<?xml version="1.0" encoding="utf-8"?>
<!-- Generator: Adobe Illustrator 16.0.0, SVG Export Plug-In . SVG Version: 6.00 Build 0)  -->
<!DOCTYPE svg PUBLIC "-//W3C//DTD SVG 1.1//EN" "http://www.w3.org/Graphics/SVG/1.1/DTD/svg11.dtd">
<svg version="1.1" id="_x23_Layer_1" xmlns="http://www.w3.org/2000/svg" xmlns:xlink="http://www.w3.org/1999/xlink" x="0px"
	 y="0px" width="2380px" height="1700px" viewBox="0 0 2380 1700" enable-background="new 0 0 2380 1700" xml:space="preserve">
<rect x="-21.461" y="-6.765" fill-rule="evenodd" clip-rule="evenodd" fill="#FED5B0" width="2428.209" height="1729.985"/>
<g>
	<path opacity="0.5" fill-rule="evenodd" clip-rule="evenodd" fill="#C6CACC" d="M1221.863,1145.663v-31.714
		c0-8.403,6.807-15.222,15.214-15.222h54.544h46.66h11.684c8.406,0,15.217,6.818,15.217,15.222v31.714
		c0,8.402-6.811,15.217-15.217,15.217h-58.344h-38.883h-15.661C1228.67,1160.88,1221.863,1154.065,1221.863,1145.663z"/>
	<g>
		<path fill-rule="evenodd" clip-rule="evenodd" fill="#F26522" d="M1338.431,1083.571c8.407,0,15.218,6.819,15.218,15.222v31.714
			c0,8.403-6.811,15.219-15.218,15.219h-58.343v-62.154H1338.431z"/>
		<path fill-rule="evenodd" clip-rule="evenodd" fill="#407B98" d="M1210.33,1130.507v-31.714c0-8.402,6.807-15.222,15.213-15.222
			h54.545v62.154h-54.545C1217.137,1145.726,1210.33,1138.91,1210.33,1130.507z"/>
		<path opacity="0.5" fill-rule="evenodd" clip-rule="evenodd" fill="#C6CACC" d="M1326.748,1083.571h11.683
			c8.407,0,15.218,6.819,15.218,15.222v31.714c0,8.403-6.811,15.219-15.218,15.219h-58.343h-38.883L1326.748,1083.571z"/>
	</g>
</g>
<g>
	<path opacity="0.5" fill-rule="evenodd" clip-rule="evenodd" fill="#C6CACC" d="M1364.019,1266.864h-6.16v-54.433h-32.413h-4.543
		h-32.373v54.433h-6.16v12.96h-7.127v131.757c0,6.664,3.197,12.525,8.088,16.316c0.028,0.028,0.063,0.057,0.098,0.08
		c1.051,0.812,2.178,1.511,3.379,2.11c0.16,0.079,0.309,0.177,0.469,0.252c1.093,0.508,2.242,0.897,3.427,1.212
		c0.274,0.074,0.531,0.189,0.812,0.252c1.441,0.314,2.929,0.508,4.466,0.508h54.434c11.442,0,20.73-9.281,20.73-20.73v-111.846
		v-19.911h-7.125V1266.864z"/>
	<g>
		<rect x="1266.487" y="1195.657" fill-rule="evenodd" clip-rule="evenodd" fill="#FFFFFF" width="69.331" height="114.04"/>
		<rect x="1298.863" y="1195.657" fill-rule="evenodd" clip-rule="evenodd" fill="#B2B4B8" width="4.539" height="98.492"/>
		<rect x="1260.328" y="1250.089" fill-rule="evenodd" clip-rule="evenodd" fill="#F49236" width="81.648" height="27.219"/>
		<path fill-rule="evenodd" clip-rule="evenodd" fill="#AD332E" d="M1253.202,1263.049v131.758c0,11.451,9.281,20.732,20.737,20.732
			h54.432c11.444,0,20.732-9.281,20.732-20.732v-131.758H1253.202z"/>
		<rect x="1324.141" y="1283.786" fill-rule="evenodd" clip-rule="evenodd" fill="#F49236" width="10.361" height="112.749"/>
		<g>
			<rect x="1275.883" y="1206.672" fill-rule="evenodd" clip-rule="evenodd" fill="#9FA1A8" width="13.612" height="25.278"/>
			<rect x="1312.816" y="1206.672" fill-rule="evenodd" clip-rule="evenodd" fill="#9FA1A8" width="13.605" height="25.278"/>
		</g>
		<path opacity="0.5" fill-rule="evenodd" clip-rule="evenodd" fill="#C6CACC" d="M1349.104,1394.807v-111.844l-90.932,125.164
			c3.797,4.495,9.414,7.412,15.768,7.412h54.432C1339.815,1415.539,1349.104,1406.258,1349.104,1394.807z"/>
	</g>
</g>
<g>
	<path fill-rule="evenodd" clip-rule="evenodd" fill="#E3BFA0" d="M1356.875,385.03h-12.779v-61.482
		c0-16.934-13.865-30.656-30.961-30.656H838.614c-17.08,0-30.94,13.723-30.94,30.656v654.364c0,16.932,13.86,30.662,30.94,30.662
		h474.521c17.096,0,30.961-13.73,30.961-30.662v-62.098h12.779v62.098c0,16.932,13.863,30.662,30.958,30.662h474.521
		c17.082,0,30.944-13.73,30.944-30.662V453.727h60.951l-31.439-41.929l31.439-43.662h-60.951v-44.588
		c0-16.934-13.862-30.656-30.944-30.656h-474.521c-17.095,0-30.958,13.723-30.958,30.656V385.03L1356.875,385.03z M1356.875,899.167
		h-12.779v-57.059h12.779V899.167L1356.875,899.167z M1356.875,825.476h-12.779v-56.481h12.779V825.476L1356.875,825.476z
		 M1356.875,752.362h-12.779v-56.474h12.779V752.362L1356.875,752.362z M1356.875,679.239h-12.779V622.78h12.779V679.239
		L1356.875,679.239z M1356.875,606.134h-12.779v-57.666h12.779V606.134L1356.875,606.134z M1356.875,531.82h-12.779v-55.86h12.779
		V531.82L1356.875,531.82z M1356.875,459.335h-12.779v-57.658h12.779V459.335z"/>
	<g>
		<path fill-rule="evenodd" clip-rule="evenodd" fill="#F26522" d="M1312.356,949.249c0,16.932-13.864,30.662-30.96,30.662H806.875
			c-17.08,0-30.939-13.73-30.939-30.662V294.885c0-16.934,13.859-30.656,30.939-30.656h474.521c17.096,0,30.96,13.723,30.96,30.656
			V949.249z"/>
		<path fill-rule="evenodd" clip-rule="evenodd" fill="#4B7CA3" d="M905.918,710.515c0,11.04-8.955,19.983-19.978,19.983h-59.911
			c-11.023,0-19.969-8.943-19.969-19.983V599.009c0-11.031,8.945-19.975,19.969-19.975h59.911c11.022,0,19.978,8.943,19.978,19.975
			V710.515z"/>
		<rect x="826.659" y="319.108" fill-rule="evenodd" clip-rule="evenodd" fill="#8C8F94" width="413.69" height="610.244"/>
		<path fill-rule="evenodd" clip-rule="evenodd" fill="#AD332E" d="M905.918,580.556c0,11.018-8.955,19.975-19.978,19.975h-59.911
			c-11.023,0-19.969-8.957-19.969-19.975V469.033c0-11.032,8.945-19.951,19.969-19.951h59.911c11.022,0,19.978,8.919,19.978,19.951
			V580.556z"/>
		<rect x="837.744" y="319.108" fill-rule="evenodd" clip-rule="evenodd" fill="#B2B4B8" width="402.605" height="610.244"/>
		<path fill-rule="evenodd" clip-rule="evenodd" fill="#47809D" d="M905.918,450.58c0,11.027-8.955,19.981-19.978,19.981h-59.911
			c-11.023,0-19.969-8.954-19.969-19.981V339.081c0-11.041,8.945-19.973,19.969-19.973h59.911c11.022,0,19.978,8.932,19.978,19.973
			V450.58z"/>
		<rect x="848.85" y="319.108" fill-rule="evenodd" clip-rule="evenodd" fill="#FFFFFF" width="443.811" height="610.244"/>
		<path fill-rule="evenodd" clip-rule="evenodd" fill="#B2B4B8" d="M1210.239,394.385c0,2.2-1.78,3.971-3.975,3.971H884.517
			c-2.198,0-3.966-1.771-3.966-3.971c0-2.18,1.768-3.969,3.966-3.969h321.748C1208.459,390.416,1210.239,392.205,1210.239,394.385z"
			/>
		<path fill-rule="evenodd" clip-rule="evenodd" fill="#B2B4B8" d="M1210.239,459.392c0,2.184-1.78,3.963-3.975,3.963H884.517
			c-2.198,0-3.966-1.779-3.966-3.963c0-2.194,1.768-3.971,3.966-3.971h321.748C1208.459,455.421,1210.239,457.197,1210.239,459.392z
			"/>
		<path fill-rule="evenodd" clip-rule="evenodd" fill="#B2B4B8" d="M1210.239,524.36c0,2.199-1.78,3.963-3.975,3.963H884.517
			c-2.198,0-3.966-1.764-3.966-3.963c0-2.203,1.768-3.971,3.966-3.971h321.748C1208.459,520.39,1210.239,522.157,1210.239,524.36z"
			/>
		<path fill-rule="evenodd" clip-rule="evenodd" fill="#B2B4B8" d="M1210.239,589.356c0,2.18-1.78,3.95-3.975,3.95H884.517
			c-2.198,0-3.966-1.771-3.966-3.95c0-2.198,1.768-3.961,3.966-3.961h321.748C1208.459,585.396,1210.239,587.158,1210.239,589.356z"
			/>
		<path fill-rule="evenodd" clip-rule="evenodd" fill="#B2B4B8" d="M1210.239,654.328c0,2.192-1.78,3.969-3.975,3.969H884.517
			c-2.198,0-3.966-1.776-3.966-3.969c0-2.187,1.768-3.964,3.966-3.964h321.748C1208.459,650.364,1210.239,652.142,1210.239,654.328z
			"/>
		<path fill-rule="evenodd" clip-rule="evenodd" fill="#B2B4B8" d="M1210.239,719.318c0,2.186-1.78,3.956-3.975,3.956H884.517
			c-2.198,0-3.966-1.771-3.966-3.956c0-2.201,1.768-3.969,3.966-3.969h321.748C1208.459,715.35,1210.239,717.117,1210.239,719.318z"
			/>
		<path fill-rule="evenodd" clip-rule="evenodd" fill="#B2B4B8" d="M1210.239,784.287c0,2.209-1.78,3.985-3.975,3.985H884.517
			c-2.198,0-3.966-1.776-3.966-3.985c0-2.186,1.768-3.962,3.966-3.962h321.748C1208.459,780.325,1210.239,782.102,1210.239,784.287z
			"/>
		<path fill-rule="evenodd" clip-rule="evenodd" fill="#B2B4B8" d="M1210.239,849.285c0,2.187-1.78,3.963-3.975,3.963H884.517
			c-2.198,0-3.966-1.776-3.966-3.963c0-2.2,1.768-3.962,3.966-3.962h321.748C1208.459,845.323,1210.239,847.085,1210.239,849.285z"
			/>
		<path fill-rule="evenodd" clip-rule="evenodd" fill="#F26522" d="M1325.137,949.249c0,16.932,13.863,30.662,30.958,30.662h474.521
			c17.082,0,30.944-13.73,30.944-30.662V294.885c0-16.934-13.862-30.656-30.944-30.656h-474.521
			c-17.095,0-30.958,13.723-30.958,30.656V949.249z"/>
		<polygon fill-rule="evenodd" clip-rule="evenodd" fill="#4B7CA3" points="1753.07,425.063 1753.07,339.473 1922.512,339.473 
			1891.072,383.134 1922.512,425.063 		"/>
		<polygon fill-rule="evenodd" clip-rule="evenodd" fill="#FFFFFF" points="1822.74,805.601 1822.74,319.108 1341.788,319.108 
			1341.788,929.353 1664.884,929.353 1664.884,805.601 		"/>
		<path fill-rule="evenodd" clip-rule="evenodd" fill="#B2B4B8" d="M1427.26,394.385c0,2.2,1.772,3.971,3.967,3.971h321.759
			c2.19,0,3.965-1.771,3.965-3.971c0-2.18-1.774-3.969-3.965-3.969h-321.759C1429.032,390.416,1427.26,392.205,1427.26,394.385z"/>
		<path fill-rule="evenodd" clip-rule="evenodd" fill="#B2B4B8" d="M1427.26,459.392c0,2.184,1.772,3.963,3.967,3.963h321.759
			c2.19,0,3.965-1.779,3.965-3.963c0-2.194-1.774-3.971-3.965-3.971h-321.759C1429.032,455.421,1427.26,457.197,1427.26,459.392z"/>
		<path fill-rule="evenodd" clip-rule="evenodd" fill="#B2B4B8" d="M1427.26,524.36c0,2.199,1.772,3.963,3.967,3.963h321.759
			c2.19,0,3.965-1.764,3.965-3.963c0-2.203-1.774-3.971-3.965-3.971h-321.759C1429.032,520.39,1427.26,522.157,1427.26,524.36z"/>
		<path fill-rule="evenodd" clip-rule="evenodd" fill="#B2B4B8" d="M1427.26,589.356c0,2.18,1.772,3.95,3.967,3.95h321.759
			c2.19,0,3.965-1.771,3.965-3.95c0-2.198-1.774-3.961-3.965-3.961h-321.759C1429.032,585.396,1427.26,587.158,1427.26,589.356z"/>
		<path fill-rule="evenodd" clip-rule="evenodd" fill="#B2B4B8" d="M1427.26,654.328c0,2.192,1.772,3.969,3.967,3.969h321.759
			c2.19,0,3.965-1.776,3.965-3.969c0-2.187-1.774-3.964-3.965-3.964h-321.759C1429.032,650.364,1427.26,652.142,1427.26,654.328z"/>
		<path fill-rule="evenodd" clip-rule="evenodd" fill="#B2B4B8" d="M1427.26,719.318c0,2.186,1.772,3.956,3.967,3.956h321.759
			c2.19,0,3.965-1.771,3.965-3.956c0-2.201-1.774-3.969-3.965-3.969h-321.759C1429.032,715.35,1427.26,717.117,1427.26,719.318z"/>
		<path fill-rule="evenodd" clip-rule="evenodd" fill="#B2B4B8" d="M1427.26,784.287c0,2.209,1.772,3.985,3.967,3.985h321.759
			c2.19,0,3.965-1.776,3.965-3.985c0-2.186-1.774-3.962-3.965-3.962h-321.759C1429.032,780.325,1427.26,782.102,1427.26,784.287z"/>
		<path fill-rule="evenodd" clip-rule="evenodd" fill="#B2B4B8" d="M1427.26,849.285c0,2.187,1.772,3.963,3.967,3.963h255.186
			c2.196,0,3.962-1.776,3.962-3.963c0-2.2-1.766-3.962-3.962-3.962h-255.186C1429.032,845.323,1427.26,847.085,1427.26,849.285z"/>
		<polygon fill-rule="evenodd" clip-rule="evenodd" fill="#C6CACC" points="1822.74,805.601 1664.884,805.601 1664.884,929.353 		
			"/>
		<g>
			<g>
				<path fill-rule="evenodd" clip-rule="evenodd" fill="#AD332E" d="M1279.768,364.877c0,11.15-9.031,20.192-20.173,20.192
					c-11.124,0-20.165-9.042-20.165-20.192c0-11.13,9.041-20.173,20.165-20.173C1270.736,344.704,1279.768,353.747,1279.768,364.877
					z"/>
				<path fill-rule="evenodd" clip-rule="evenodd" fill="#AD332E" d="M1279.768,438.37c0,11.137-9.031,20.149-20.173,20.149
					c-11.124,0-20.165-9.013-20.165-20.149c0-11.129,9.041-20.165,20.165-20.165C1270.736,418.205,1279.768,427.241,1279.768,438.37
					z"/>
				<path fill-rule="evenodd" clip-rule="evenodd" fill="#AD332E" d="M1279.768,511.843c0,11.148-9.031,20.173-20.173,20.173
					c-11.124,0-20.165-9.024-20.165-20.173c0-11.129,9.041-20.18,20.165-20.18C1270.736,491.663,1279.768,500.714,1279.768,511.843z
					"/>
				<path fill-rule="evenodd" clip-rule="evenodd" fill="#AD332E" d="M1279.768,585.323c0,11.141-9.031,20.172-20.173,20.172
					c-11.124,0-20.165-9.031-20.165-20.172c0-11.13,9.041-20.151,20.165-20.151C1270.736,565.172,1279.768,574.193,1279.768,585.323
					z"/>
				<path fill-rule="evenodd" clip-rule="evenodd" fill="#AD332E" d="M1279.768,658.817c0,11.113-9.031,20.15-20.173,20.15
					c-11.124,0-20.165-9.037-20.165-20.15c0-11.15,9.041-20.173,20.165-20.173C1270.736,638.645,1279.768,647.667,1279.768,658.817z
					"/>
				<path fill-rule="evenodd" clip-rule="evenodd" fill="#AD332E" d="M1279.768,732.274c0,11.136-9.031,20.179-20.173,20.179
					c-11.124,0-20.165-9.043-20.165-20.179c0-11.135,9.041-20.15,20.165-20.15C1270.736,712.124,1279.768,721.14,1279.768,732.274z"
					/>
				<path fill-rule="evenodd" clip-rule="evenodd" fill="#AD332E" d="M1279.768,805.76c0,11.13-9.031,20.175-20.173,20.175
					c-11.124,0-20.165-9.045-20.165-20.175c0-11.135,9.041-20.172,20.165-20.172C1270.736,785.588,1279.768,794.625,1279.768,805.76
					z"/>
				<path fill-rule="evenodd" clip-rule="evenodd" fill="#AD332E" d="M1279.768,879.248c0,11.12-9.031,20.165-20.173,20.165
					c-11.124,0-20.165-9.045-20.165-20.165c0-11.15,9.041-20.173,20.165-20.173C1270.736,859.075,1279.768,868.098,1279.768,879.248
					z"/>
			</g>
			<g>
				<path fill-rule="evenodd" clip-rule="evenodd" fill="#AD332E" d="M1358.181,364.877c0,11.15,9.028,20.192,20.181,20.192
					c11.131,0,20.157-9.042,20.157-20.192c0-11.13-9.026-20.173-20.157-20.173C1367.209,344.704,1358.181,353.747,1358.181,364.877z
					"/>
				<path fill-rule="evenodd" clip-rule="evenodd" fill="#AD332E" d="M1358.181,438.37c0,11.137,9.028,20.149,20.181,20.149
					c11.131,0,20.157-9.013,20.157-20.149c0-11.129-9.026-20.165-20.157-20.165C1367.209,418.205,1358.181,427.241,1358.181,438.37z
					"/>
				<path fill-rule="evenodd" clip-rule="evenodd" fill="#AD332E" d="M1358.181,511.843c0,11.148,9.028,20.173,20.181,20.173
					c11.131,0,20.157-9.024,20.157-20.173c0-11.129-9.026-20.18-20.157-20.18C1367.209,491.663,1358.181,500.714,1358.181,511.843z"
					/>
				<path fill-rule="evenodd" clip-rule="evenodd" fill="#AD332E" d="M1358.181,585.323c0,11.141,9.028,20.172,20.181,20.172
					c11.131,0,20.157-9.031,20.157-20.172c0-11.13-9.026-20.151-20.157-20.151C1367.209,565.172,1358.181,574.193,1358.181,585.323z
					"/>
				<path fill-rule="evenodd" clip-rule="evenodd" fill="#AD332E" d="M1358.181,658.817c0,11.113,9.028,20.15,20.181,20.15
					c11.131,0,20.157-9.037,20.157-20.15c0-11.15-9.026-20.173-20.157-20.173C1367.209,638.645,1358.181,647.667,1358.181,658.817z"
					/>
				<path fill-rule="evenodd" clip-rule="evenodd" fill="#AD332E" d="M1358.181,732.274c0,11.136,9.028,20.179,20.181,20.179
					c11.131,0,20.157-9.043,20.157-20.179c0-11.135-9.026-20.15-20.157-20.15C1367.209,712.124,1358.181,721.14,1358.181,732.274z"
					/>
				<path fill-rule="evenodd" clip-rule="evenodd" fill="#AD332E" d="M1358.181,805.76c0,11.13,9.028,20.175,20.181,20.175
					c11.131,0,20.157-9.045,20.157-20.175c0-11.135-9.026-20.172-20.157-20.172C1367.209,785.588,1358.181,794.625,1358.181,805.76z
					"/>
				<path fill-rule="evenodd" clip-rule="evenodd" fill="#AD332E" d="M1358.181,879.248c0,11.12,9.028,20.165,20.181,20.165
					c11.131,0,20.157-9.045,20.157-20.165c0-11.15-9.026-20.173-20.157-20.173C1367.209,859.075,1358.181,868.098,1358.181,879.248z
					"/>
			</g>
		</g>
		<g>
			<path fill-rule="evenodd" clip-rule="evenodd" fill="#C6CACC" d="M1381.19,364.679c0,4.6-3.497,8.334-7.819,8.334h-107.21
				c-4.319,0-7.816-3.734-7.816-8.334c0-4.599,3.497-8.313,7.816-8.313h107.21C1377.693,356.366,1381.19,360.08,1381.19,364.679z"/>
			<path fill-rule="evenodd" clip-rule="evenodd" fill="#C6CACC" d="M1381.19,438.978c0,4.6-3.497,8.319-7.819,8.319h-107.21
				c-4.319,0-7.816-3.72-7.816-8.319c0-4.599,3.497-8.307,7.816-8.307h107.21C1377.693,430.671,1381.19,434.379,1381.19,438.978z"/>
			<path fill-rule="evenodd" clip-rule="evenodd" fill="#C6CACC" d="M1381.19,511.499c0,4.576-3.497,8.305-7.819,8.305h-107.21
				c-4.319,0-7.816-3.729-7.816-8.305c0-4.598,3.497-8.342,7.816-8.342h107.21C1377.693,503.157,1381.19,506.901,1381.19,511.499z"
				/>
			<path fill-rule="evenodd" clip-rule="evenodd" fill="#C6CACC" d="M1381.19,585.774c0,4.6-3.497,8.343-7.819,8.343h-107.21
				c-4.319,0-7.816-3.743-7.816-8.343c0-4.575,3.497-8.305,7.816-8.305h107.21C1377.693,577.47,1381.19,581.199,1381.19,585.774z"/>
			<path fill-rule="evenodd" clip-rule="evenodd" fill="#C6CACC" d="M1381.19,658.897c0,4.599-3.497,8.328-7.819,8.328h-107.21
				c-4.319,0-7.816-3.729-7.816-8.328c0-4.593,3.497-8.322,7.816-8.322h107.21C1377.693,650.575,1381.19,654.305,1381.19,658.897z"
				/>
			<path fill-rule="evenodd" clip-rule="evenodd" fill="#C6CACC" d="M1381.19,732.018c0,4.578-3.497,8.313-7.819,8.313h-107.21
				c-4.319,0-7.816-3.735-7.816-8.313c0-4.599,3.497-8.319,7.816-8.319h107.21C1377.693,723.698,1381.19,727.419,1381.19,732.018z"
				/>
			<path fill-rule="evenodd" clip-rule="evenodd" fill="#C6CACC" d="M1381.19,805.117c0,4.599-3.497,8.328-7.819,8.328h-107.21
				c-4.319,0-7.816-3.729-7.816-8.328s3.497-8.305,7.816-8.305h107.21C1377.693,796.813,1381.19,800.519,1381.19,805.117z"/>
			<path fill-rule="evenodd" clip-rule="evenodd" fill="#C6CACC" d="M1381.19,878.817c0,4.605-3.497,8.334-7.819,8.334h-107.21
				c-4.319,0-7.816-3.729-7.816-8.334c0-4.6,3.497-8.313,7.816-8.313h107.21C1377.693,870.504,1381.19,874.218,1381.19,878.817z"/>
		</g>
	</g>
</g>
<g>
	<g>
		<path opacity="0.5" fill-rule="evenodd" clip-rule="evenodd" fill="#E3BFA0" d="M1128.344,1316.466l-35.006-19.487
			c10.378-49.589-1.553-103.272-37.111-144.676c-60.741-70.722-167.313-78.813-238.037-18.073
			c-70.719,60.741-78.811,167.313-18.07,238.035c60.742,70.722,167.311,78.813,238.034,18.071
			c15.341-13.175,27.723-28.511,37.106-45.166l28.325,15.769c12.282,6.836,27.782,2.424,34.616-9.857
			C1145.039,1338.799,1140.623,1323.303,1128.344,1316.466z"/>
		<g>
			<path fill-rule="evenodd" clip-rule="evenodd" fill="#FFFFFF" d="M1098.08,1330.003l-72.129-40.152l24.76-44.474l72.127,40.152
				c12.279,6.837,16.695,22.335,9.858,34.615v0.001C1125.861,1332.426,1110.361,1336.839,1098.08,1330.003z"/>
			<path fill-rule="evenodd" clip-rule="evenodd" fill="#FFFFFF" d="M1032.648,1359.4c-70.725,60.741-177.293,52.65-238.033-18.072
				c-60.742-70.723-52.65-177.294,18.07-238.034c70.723-60.74,177.294-52.648,238.032,18.073
				C1111.46,1192.089,1103.368,1298.66,1032.648,1359.4z"/>
			<path fill-rule="evenodd" clip-rule="evenodd" fill="#E4EAF1" d="M1021.657,1346.605
				c-63.655,54.672-159.577,47.389-214.248-16.267c-54.673-63.655-47.389-159.577,16.267-214.249s159.578-47.389,214.252,16.267
				C1092.596,1196.011,1085.313,1291.934,1021.657,1346.605z"/>
			<circle fill-rule="evenodd" clip-rule="evenodd" fill="#AD332E" cx="922.667" cy="1231.348" r="141.343"/>
		</g>
	</g>
	<g>
		
			<path opacity="0.4" fill-rule="evenodd" clip-rule="evenodd" fill="none" stroke="#FFFFFF" stroke-width="23.9998" stroke-linecap="round" stroke-linejoin="round" stroke-miterlimit="10" d="
			M1025.651,1221.796c0.772,10.822-0.146,21.942-2.949,33.03"/>
		
			<path opacity="0.4" fill-rule="evenodd" clip-rule="evenodd" fill="none" stroke="#FFFFFF" stroke-width="23.9998" stroke-linecap="round" stroke-linejoin="round" stroke-miterlimit="10" d="
			M947.035,1127.952c31.645,8,56.231,29.659,69.054,57.089"/>
	</g>
</g>
<g>
	<path fill-rule="evenodd" clip-rule="evenodd" fill="#E3BFA0" d="M733.947,430.822L733.947,430.822L733.947,430.822l4.362-0.004
		l1.565-0.001l8.351-0.01c2.552-0.003,4.624,2.066,4.627,4.619l0.313,118.307c0.005,5.497-4.446,9.959-9.945,9.964
		c-2.531,0.003-4.586-2.048-4.588-4.579l-0.203-68.867l-4.294,0.004l0.686,344.975c0,0-6.2,35.026-18.253,61.822l-2.313,0.002
		l-0.074,0.222l0,0l-0.076,0.222l-0.074,0.221l0,0l-0.076,0.221l0,0l-0.076,0.22l0,0l-0.076,0.22l0,0l-0.076,0.219l0,0l-0.076,0.219
		l0,0l-0.076,0.219l0,0l-0.077,0.218v0.001l-0.077,0.217l-0.076,0.217l0,0l-0.078,0.217l-0.078,0.217l0,0l-0.078,0.216l-0.077,0.215
		l-0.078,0.215l-0.079,0.214l-0.078,0.215l0,0l-0.078,0.213l-0.08,0.213l0,0l-0.079,0.213l-0.079,0.212l-0.08,0.211l-0.08,0.211
		v0.001l-0.08,0.21l-0.08,0.21l-0.08,0.209l0,0l-0.08,0.209l-0.082,0.208l-0.08,0.208l0,0l-0.082,0.207l-0.081,0.207l-0.081,0.206
		l-0.082,0.205l0,0l-0.082,0.205l-0.082,0.205l-0.082,0.203l-0.084,0.203l-0.082,0.203l-0.083,0.202l-0.083,0.201l-0.084,0.201
		l-0.084,0.2l-0.084,0.199l-0.084,0.199l-0.084,0.199l-0.084,0.197l-0.085,0.197l-0.085,0.196l-0.084,0.196l-0.086,0.194
		l-0.086,0.195l-0.085,0.193l-0.087,0.193l-0.086,0.192l-0.086,0.191l-0.086,0.191l-0.086,0.19l-0.088,0.189l-0.087,0.189
		l-0.087,0.188l-0.088,0.188l-0.088,0.188c-0.709,1.512-2.841,1.513-3.555,0.003c-1.879-3.977-3.623-8.447-5.232-13.175l6.991-0.007
		h0.005l-9.308,0.009c-12.107-26.772-18.377-61.786-18.377-61.786l-0.685-344.973l-1.371,0.001
		c-2.554,0.003-4.626-2.064-4.629-4.618l-0.109-50.188c-0.004-2.553,2.064-4.625,4.617-4.627l1.303-0.001v-0.001l7.996-0.008
		l-0.027-28.361c-0.006-6.417,5.19-11.624,11.607-11.631l16.016-0.017c6.417-0.007,11.624,5.19,11.631,11.607l0.027,28.362
		L733.947,430.822z"/>
	<polygon fill-rule="evenodd" clip-rule="evenodd" fill="#4B7CA3" points="708.199,430.822 709.073,835.229 653.828,835.284 
		652.953,430.878 	"/>
	<path fill-rule="evenodd" clip-rule="evenodd" fill="#384752" d="M674.516,897.068c1.608,4.729,3.354,9.197,5.232,13.174
		c0.714,1.51,2.845,1.51,3.555-0.003c1.871-3.98,3.607-8.454,5.205-13.186L674.516,897.068z"/>
	<path fill-rule="evenodd" clip-rule="evenodd" fill="#F26522" d="M672.204,897.069l18.616-0.017
		c12.053-26.797,18.253-61.824,18.253-61.824l-55.245,0.056C653.828,835.284,660.097,870.299,672.204,897.069z"/>
	<path fill-rule="evenodd" clip-rule="evenodd" fill="#384752" d="M700.271,438.663l-0.096-36.194
		c-0.007-6.417-5.215-11.614-11.632-11.607l-16.015,0.017c-6.418,0.006-11.614,5.213-11.607,11.631l0.096,36.193
		c0.006,6.418,5.214,11.614,11.631,11.608l16.016-0.016C695.081,450.287,700.277,445.08,700.271,438.663z"/>
	<path fill-rule="evenodd" clip-rule="evenodd" fill="#F26522" d="M651.771,490.313l60.91-0.062l0.203,68.867
		c0.002,2.531,2.057,4.582,4.588,4.579c5.499-0.005,9.95-4.466,9.945-9.964l-0.313-118.307c-0.003-2.553-2.075-4.622-4.627-4.619
		l-8.351,0.01l-1.565,0.001l-60.911,0.062c-2.553,0.002-4.621,2.074-4.617,4.627l0.109,50.188
		C647.146,488.247,649.217,490.315,651.771,490.313z"/>
	
		<line opacity="0.5" fill-rule="evenodd" clip-rule="evenodd" fill="none" stroke="#FFFFFF" stroke-width="11.9999" stroke-linecap="round" stroke-linejoin="round" stroke-miterlimit="10" x1="670.486" y1="755.731" x2="670.486" y2="513.314"/>
	
		<line opacity="0.5" fill-rule="evenodd" clip-rule="evenodd" fill="none" stroke="#FFFFFF" stroke-width="11.9999" stroke-linecap="round" stroke-linejoin="round" stroke-miterlimit="10" x1="670.486" y1="813.852" x2="670.486" y2="782.237"/>
	<polygon fill-rule="evenodd" clip-rule="evenodd" fill="#4B7CA3" points="708.199,430.822 709.073,835.229 653.828,835.284 
		652.953,430.878 	"/>
	<path fill-rule="evenodd" clip-rule="evenodd" fill="#384752" d="M674.516,897.068c1.608,4.729,3.354,9.197,5.232,13.174
		c0.714,1.51,2.845,1.51,3.555-0.003c1.871-3.98,3.607-8.454,5.205-13.186L674.516,897.068z"/>
	<path fill-rule="evenodd" clip-rule="evenodd" fill="#F26522" d="M672.204,897.069l18.616-0.017
		c12.053-26.797,18.253-61.824,18.253-61.824l-55.245,0.056C653.828,835.284,660.097,870.299,672.204,897.069z"/>
	<path fill-rule="evenodd" clip-rule="evenodd" fill="#384752" d="M700.271,438.663l-0.096-36.194
		c-0.007-6.417-5.215-11.614-11.632-11.607l-16.015,0.017c-6.418,0.006-11.614,5.213-11.607,11.631l0.096,36.193
		c0.006,6.418,5.214,11.614,11.631,11.608l16.016-0.016C695.081,450.287,700.277,445.08,700.271,438.663z"/>
	<path fill-rule="evenodd" clip-rule="evenodd" fill="#F26522" d="M651.771,490.313l60.91-0.062l0.203,68.867
		c0.002,2.531,2.057,4.582,4.588,4.579c5.499-0.005,9.95-4.466,9.945-9.964l-0.313-118.307c-0.003-2.553-2.075-4.622-4.627-4.619
		l-8.351,0.01l-1.565,0.001l-60.911,0.062c-2.553,0.002-4.621,2.074-4.617,4.627l0.109,50.188
		C647.146,488.247,649.217,490.315,651.771,490.313z"/>
	
		<line opacity="0.5" fill-rule="evenodd" clip-rule="evenodd" fill="none" stroke="#FFFFFF" stroke-width="11.9999" stroke-linecap="round" stroke-linejoin="round" stroke-miterlimit="10" x1="670.486" y1="755.731" x2="670.486" y2="513.314"/>
	
		<line opacity="0.5" fill-rule="evenodd" clip-rule="evenodd" fill="none" stroke="#FFFFFF" stroke-width="11.9999" stroke-linecap="round" stroke-linejoin="round" stroke-miterlimit="10" x1="670.486" y1="813.852" x2="670.486" y2="782.237"/>
</g>
<g>
	<path fill-rule="evenodd" clip-rule="evenodd" fill="#F26522" d="M501.393,762.945v-62.088c34.29,0,62.088,27.798,62.088,62.088
		H501.393z"/>
	<path fill-rule="evenodd" clip-rule="evenodd" fill="#AD332E" d="M494.129,762.979h-86.917c0-48.003,38.914-86.917,86.917-86.917
		V762.979z"/>
	<path fill-rule="evenodd" clip-rule="evenodd" fill="#47809D" d="M501.393,769.819v62.088c34.29,0,62.088-27.798,62.088-62.088
		H501.393z"/>
	<path fill-rule="evenodd" clip-rule="evenodd" fill="#FFFFFF" d="M493.867,769.819v62.088c-34.29,0-62.088-27.798-62.088-62.088
		H493.867z"/>
</g>
<g>
	<path fill-rule="evenodd" clip-rule="evenodd" fill="#FFFFFF" d="M557.871,395.888c-3.16,0-5.723-2.563-5.723-5.723
		c0-3.159,2.563-5.721,5.723-5.721h21.593c3.161,0,5.722,2.562,5.722,5.721c0,3.16-2.561,5.723-5.722,5.723H557.871z"/>
	<path fill-rule="evenodd" clip-rule="evenodd" fill="#FFFFFF" d="M562.945,379.368c0-3.159,2.563-5.721,5.723-5.721
		s5.721,2.562,5.721,5.721v21.594c0,3.16-2.561,5.723-5.721,5.723s-5.723-2.563-5.723-5.723V379.368z"/>
</g>
<path fill-rule="evenodd" clip-rule="evenodd" fill="#F26522" d="M1995.351,1028.338v-37.917c-20.94,0-37.917,16.977-37.917,37.917
	H1995.351z"/>
<path fill-rule="evenodd" clip-rule="evenodd" fill="#AD332E" d="M1999.787,1028.358h53.08c0-29.315-23.766-53.08-53.08-53.08
	V1028.358z"/>
<g>
	<path fill-rule="evenodd" clip-rule="evenodd" fill="#E3BFA0" d="M1543.225,1078.938v-10.717c0-5.461,4.428-9.889,9.889-9.889
		c5.462,0,9.89,4.428,9.89,9.889v10.717h39.488v-10.717c0-5.461,4.428-9.889,9.889-9.889c5.462,0,9.89,4.428,9.89,9.889v10.717
		h39.482v-10.717c0-5.461,4.428-9.889,9.889-9.889c5.462,0,9.89,4.428,9.89,9.889v10.717h39.486v-10.717
		c0-5.461,4.428-9.889,9.889-9.889c5.462,0,9.89,4.428,9.89,9.889v10.717h39.482v-10.717c0-5.461,4.428-9.889,9.889-9.889
		c5.462,0,9.89,4.428,9.89,9.889v10.717h43.687c18.852,0,34.137,15.28,34.137,34.137v20.103v280.836
		c0,18.85-15.285,34.134-34.137,34.134h-324.667h-19.535c-18.852,0-34.134-15.284-34.134-34.134v-300.938
		c0-18.856,15.282-34.137,34.134-34.137H1543.225z"/>
	<path fill-rule="evenodd" clip-rule="evenodd" fill="#F26522" d="M1866.896,1409.954c0,18.85-15.285,34.135-34.137,34.135h-344.202
		c-18.852,0-34.135-15.285-34.135-34.135v-300.938c0-18.855,15.283-34.137,34.135-34.137h344.202
		c18.852,0,34.137,15.281,34.137,34.137V1409.954z"/>
	<path fill-rule="evenodd" clip-rule="evenodd" fill="#AD332E" d="M1866.896,1129.119l-26.369-24.883l-324.257,186.244
		l-33.551,128.238l25.373,25.37h324.667c18.852,0,34.137-15.285,34.137-34.135V1129.119z"/>
	<path fill-rule="evenodd" clip-rule="evenodd" fill="#AD332E" d="M1850.481,1399.826c0,17.356-14.068,31.419-31.421,31.419H1502.26
		c-17.355,0-31.422-14.063-31.422-31.419v-267.004c0-17.351,14.066-31.417,31.422-31.417h316.801
		c17.353,0,31.421,14.066,31.421,31.417V1399.826z"/>
	<path fill-rule="evenodd" clip-rule="evenodd" fill="#B2B1B9" d="M1850.481,1394.14c0,17.351-14.068,31.422-31.421,31.422H1502.26
		c-17.355,0-31.422-14.071-31.422-31.422v-267.007c0-17.35,14.066-31.417,31.422-31.417h316.801
		c17.353,0,31.421,14.067,31.421,31.417V1394.14z"/>
	<path fill-rule="evenodd" clip-rule="evenodd" fill="#FFFFFF" d="M1850.481,1381.726c0,17.354-14.068,31.423-31.421,31.423H1502.26
		c-17.355,0-31.422-14.068-31.422-31.423v-254.593c0-17.35,14.066-31.417,31.422-31.417h316.801
		c17.353,0,31.421,14.067,31.421,31.417V1381.726z"/>
	<g>
		<path fill-rule="evenodd" clip-rule="evenodd" fill="#BFC6C9" d="M1526.254,1126.421c0,8.771,7.11,15.88,15.877,15.88
			c8.769,0,15.882-7.108,15.882-15.88c0-8.766-7.113-15.878-15.882-15.878C1533.364,1110.543,1526.254,1117.655,1526.254,1126.421z"
			/>
		<path fill-rule="evenodd" clip-rule="evenodd" fill="#BFC6C9" d="M1585.521,1126.421c0,8.771,7.105,15.88,15.879,15.88
			c8.769,0,15.875-7.108,15.875-15.88c0-8.766-7.106-15.878-15.875-15.878C1592.626,1110.543,1585.521,1117.655,1585.521,1126.421z"
			/>
		<path fill-rule="evenodd" clip-rule="evenodd" fill="#BFC6C9" d="M1644.779,1126.421c0,8.771,7.112,15.88,15.879,15.88
			c8.768,0,15.877-7.108,15.877-15.88c0-8.766-7.109-15.878-15.877-15.878C1651.892,1110.543,1644.779,1117.655,1644.779,1126.421z"
			/>
		<path fill-rule="evenodd" clip-rule="evenodd" fill="#BFC6C9" d="M1704.048,1126.421c0,8.771,7.105,15.88,15.877,15.88
			c8.77,0,15.872-7.108,15.872-15.88c0-8.766-7.103-15.878-15.872-15.878C1711.153,1110.543,1704.048,1117.655,1704.048,1126.421z"
			/>
		<path fill-rule="evenodd" clip-rule="evenodd" fill="#BFC6C9" d="M1763.305,1126.421c0,8.771,7.115,15.88,15.879,15.88
			c8.768,0,15.88-7.108,15.88-15.88c0-8.766-7.112-15.878-15.88-15.878C1770.42,1110.543,1763.305,1117.655,1763.305,1126.421z"/>
	</g>
	<g>
		<path fill-rule="evenodd" clip-rule="evenodd" fill="#D52229" d="M1552.021,1121.535c0,5.462-4.428,9.89-9.89,9.89
			c-5.461,0-9.889-4.428-9.889-9.89v-57.372c0-5.462,4.428-9.89,9.889-9.89c5.462,0,9.89,4.428,9.89,9.89V1121.535z"/>
		<path fill-rule="evenodd" clip-rule="evenodd" fill="#D52229" d="M1611.287,1121.535c0,5.462-4.428,9.89-9.89,9.89
			s-9.889-4.428-9.889-9.89v-57.372c0-5.462,4.427-9.89,9.889-9.89s9.89,4.428,9.89,9.89V1121.535z"/>
		<path fill-rule="evenodd" clip-rule="evenodd" fill="#D52229" d="M1670.548,1121.535c0,5.462-4.428,9.89-9.89,9.89
			c-5.461,0-9.889-4.428-9.889-9.89v-57.372c0-5.462,4.428-9.89,9.889-9.89c5.462,0,9.89,4.428,9.89,9.89V1121.535z"/>
		<path fill-rule="evenodd" clip-rule="evenodd" fill="#D52229" d="M1729.813,1121.535c0,5.462-4.428,9.89-9.89,9.89
			c-5.461,0-9.89-4.428-9.89-9.89v-57.372c0-5.462,4.429-9.89,9.89-9.89c5.462,0,9.89,4.428,9.89,9.89V1121.535z"/>
		<path fill-rule="evenodd" clip-rule="evenodd" fill="#D52229" d="M1789.073,1121.535c0,5.462-4.428,9.89-9.89,9.89
			c-5.461,0-9.889-4.428-9.889-9.89v-57.372c0-5.462,4.428-9.89,9.889-9.89c5.462,0,9.89,4.428,9.89,9.89V1121.535z"/>
	</g>
	<g>
		<path fill-rule="evenodd" clip-rule="evenodd" fill="#FFFFFF" d="M1537.07,1088.135c0-1.365,1.107-2.473,2.473-2.473
			s2.473,1.107,2.473,2.473v24.93c0,1.365-1.107,2.473-2.473,2.473s-2.473-1.107-2.473-2.473V1088.135z"/>
		<path fill-rule="evenodd" clip-rule="evenodd" fill="#FFFFFF" d="M1537.07,1071.109c0-1.365,1.107-2.473,2.473-2.473
			s2.473,1.107,2.473,2.473v7.556c0,1.365-1.107,2.473-2.473,2.473s-2.473-1.107-2.473-2.473V1071.109z"/>
		<path fill-rule="evenodd" clip-rule="evenodd" fill="#FFFFFF" d="M1596.865,1088.135c0-1.365,1.107-2.473,2.473-2.473
			s2.473,1.107,2.473,2.473v24.93c0,1.365-1.107,2.473-2.473,2.473s-2.473-1.107-2.473-2.473V1088.135z"/>
		<path fill-rule="evenodd" clip-rule="evenodd" fill="#FFFFFF" d="M1596.865,1071.109c0-1.365,1.107-2.473,2.473-2.473
			s2.473,1.107,2.473,2.473v7.556c0,1.365-1.107,2.473-2.473,2.473s-2.473-1.107-2.473-2.473V1071.109z"/>
		<path fill-rule="evenodd" clip-rule="evenodd" fill="#FFFFFF" d="M1656.66,1088.135c0-1.365,1.107-2.473,2.473-2.473
			s2.473,1.107,2.473,2.473v24.93c0,1.365-1.107,2.473-2.473,2.473s-2.473-1.107-2.473-2.473V1088.135z"/>
		<path fill-rule="evenodd" clip-rule="evenodd" fill="#FFFFFF" d="M1656.66,1071.109c0-1.365,1.107-2.473,2.473-2.473
			s2.473,1.107,2.473,2.473v7.556c0,1.365-1.107,2.473-2.473,2.473s-2.473-1.107-2.473-2.473V1071.109z"/>
		<path fill-rule="evenodd" clip-rule="evenodd" fill="#FFFFFF" d="M1716.453,1088.135c0-1.365,1.107-2.473,2.473-2.473
			s2.473,1.107,2.473,2.473v24.93c0,1.365-1.107,2.473-2.473,2.473s-2.473-1.107-2.473-2.473V1088.135z"/>
		<path fill-rule="evenodd" clip-rule="evenodd" fill="#FFFFFF" d="M1716.453,1071.109c0-1.365,1.107-2.473,2.473-2.473
			s2.473,1.107,2.473,2.473v7.556c0,1.365-1.107,2.473-2.473,2.473s-2.473-1.107-2.473-2.473V1071.109z"/>
		<path fill-rule="evenodd" clip-rule="evenodd" fill="#FFFFFF" d="M1776.245,1088.135c0-1.365,1.107-2.473,2.473-2.473
			s2.473,1.107,2.473,2.473v24.93c0,1.365-1.107,2.473-2.473,2.473s-2.473-1.107-2.473-2.473V1088.135z"/>
		<path fill-rule="evenodd" clip-rule="evenodd" fill="#FFFFFF" d="M1776.245,1071.109c0-1.365,1.107-2.473,2.473-2.473
			s2.473,1.107,2.473,2.473v7.556c0,1.365-1.107,2.473-2.473,2.473s-2.473-1.107-2.473-2.473V1071.109z"/>
	</g>
	<path fill-rule="evenodd" clip-rule="evenodd" fill="#B2B4B8" stroke="#B2B4B8" stroke-width="4" stroke-miterlimit="22.9256" d="
		M1511.563,1175.858c-0.683,0-1.236-0.554-1.236-1.236s0.554-1.236,1.236-1.236h302.9c0.683,0,1.236,0.554,1.236,1.236
		s-0.554,1.236-1.236,1.236H1511.563z"/>
	<path fill-rule="evenodd" clip-rule="evenodd" fill="#B2B4B8" stroke="#B2B4B8" stroke-width="4" stroke-miterlimit="22.9256" d="
		M1511.563,1223.19c-0.683,0-1.236-0.554-1.236-1.236s0.554-1.236,1.236-1.236h302.9c0.683,0,1.236,0.554,1.236,1.236
		s-0.554,1.236-1.236,1.236H1511.563z"/>
	<path fill-rule="evenodd" clip-rule="evenodd" fill="#B2B4B8" stroke="#B2B4B8" stroke-width="4" stroke-miterlimit="22.9256" d="
		M1511.563,1270.522c-0.683,0-1.236-0.554-1.236-1.236s0.554-1.236,1.236-1.236h302.9c0.683,0,1.236,0.554,1.236,1.236
		s-0.554,1.236-1.236,1.236H1511.563z"/>
	<path fill-rule="evenodd" clip-rule="evenodd" fill="#B2B4B8" stroke="#B2B4B8" stroke-width="4" stroke-miterlimit="22.9256" d="
		M1511.563,1320.222c-0.683,0-1.236-0.554-1.236-1.236s0.554-1.236,1.236-1.236h302.9c0.683,0,1.236,0.554,1.236,1.236
		s-0.554,1.236-1.236,1.236H1511.563z"/>
	<path fill-rule="evenodd" clip-rule="evenodd" fill="#B2B4B8" stroke="#B2B4B8" stroke-width="4" stroke-miterlimit="22.9256" d="
		M1511.563,1367.554c-0.683,0-1.236-0.553-1.236-1.236c0-0.682,0.554-1.235,1.236-1.235h302.9c0.683,0,1.236,0.554,1.236,1.235
		c0,0.684-0.554,1.236-1.236,1.236H1511.563z"/>
</g>
<path fill-rule="evenodd" clip-rule="evenodd" fill="#47809D" d="M1995.351,1032.536v37.917c-20.94,0-37.917-16.976-37.917-37.917
	H1995.351z"/>
<path fill-rule="evenodd" clip-rule="evenodd" fill="#FFFFFF" d="M1999.946,1032.536v37.917c20.941,0,37.917-16.976,37.917-37.917
	H1999.946z"/>
<g>
	<path fill-rule="evenodd" clip-rule="evenodd" fill="#FFFFFF" d="M2008.285,1144.806c-3.239,0-5.865-2.626-5.865-5.865
		c0-3.238,2.626-5.864,5.865-5.864h22.132c3.239,0,5.865,2.626,5.865,5.864c0,3.239-2.626,5.865-5.865,5.865H2008.285z"/>
	<path fill-rule="evenodd" clip-rule="evenodd" fill="#FFFFFF" d="M2013.486,1127.874c0-3.238,2.626-5.864,5.865-5.864
		c3.238,0,5.864,2.626,5.864,5.864v22.133c0,3.239-2.626,5.865-5.864,5.865c-3.239,0-5.865-2.626-5.865-5.865V1127.874z"/>
</g>
<g>
	<path fill-rule="evenodd" clip-rule="evenodd" fill="#FFFFFF" d="M1928.843,537.975c-3.159,0-5.722-2.562-5.722-5.722
		s2.563-5.723,5.722-5.723h21.594c3.16,0,5.722,2.563,5.722,5.723s-2.562,5.722-5.722,5.722H1928.843z"/>
	<path fill-rule="evenodd" clip-rule="evenodd" fill="#FFFFFF" d="M1933.918,521.456c0-3.16,2.563-5.723,5.722-5.723
		c3.16,0,5.723,2.563,5.723,5.723v21.594c0,3.16-2.563,5.721-5.723,5.721c-3.159,0-5.722-2.561-5.722-5.721V521.456z"/>
</g>
<g>
	<path fill-rule="evenodd" clip-rule="evenodd" fill="#FFFFFF" d="M706.971,1079.565c-5.938,0-10.752-4.813-10.752-10.751
		s4.814-10.751,10.752-10.751h40.57c5.938,0,10.752,4.813,10.752,10.751s-4.814,10.751-10.752,10.751H706.971z"/>
	<path fill-rule="evenodd" clip-rule="evenodd" fill="#FFFFFF" d="M716.506,1048.528c0-5.938,4.813-10.751,10.75-10.751
		s10.752,4.813,10.752,10.751v40.571c0,5.938-4.814,10.751-10.752,10.751s-10.75-4.813-10.75-10.751V1048.528z"/>
</g>
<g>
	<path fill-rule="evenodd" clip-rule="evenodd" fill="#FFFFFF" d="M673.088,1133.328c-2.057,0-3.725-1.668-3.725-3.724
		c0-2.058,1.668-3.725,3.725-3.725h14.055c2.056,0,3.724,1.667,3.724,3.725c0,2.056-1.668,3.724-3.724,3.724H673.088z"/>
	<path fill-rule="evenodd" clip-rule="evenodd" fill="#FFFFFF" d="M676.391,1122.576c0-2.057,1.668-3.724,3.725-3.724
		s3.724,1.667,3.724,3.724v14.055c0,2.057-1.667,3.724-3.724,3.724s-3.725-1.667-3.725-3.724V1122.576z"/>
</g>
<g>
	<path fill-rule="evenodd" clip-rule="evenodd" fill="#FFFFFF" d="M1167.728,1236.991c-3.872,0-7.012-3.139-7.012-7.012
		c0-3.872,3.14-7.012,7.012-7.012h26.462c3.873,0,7.012,3.14,7.012,7.012c0,3.873-3.139,7.012-7.012,7.012H1167.728z"/>
	<path fill-rule="evenodd" clip-rule="evenodd" fill="#FFFFFF" d="M1173.947,1216.748c0-3.872,3.139-7.012,7.012-7.012
		s7.012,3.14,7.012,7.012v26.462c0,3.873-3.139,7.013-7.012,7.013s-7.012-3.14-7.012-7.013V1216.748z"/>
</g>
<g>
	<path fill-rule="evenodd" clip-rule="evenodd" fill="#FFFFFF" d="M370.594,808.49c-2.518,0-4.559-2.04-4.559-4.558
		c0-2.517,2.041-4.558,4.559-4.558h17.197c2.518,0,4.559,2.041,4.559,4.558c0,2.518-2.041,4.558-4.559,4.558H370.594z"/>
	<path fill-rule="evenodd" clip-rule="evenodd" fill="#FFFFFF" d="M374.635,795.334c0-2.518,2.041-4.558,4.558-4.558
		s4.558,2.04,4.558,4.558v17.198c0,2.518-2.041,4.558-4.558,4.558s-4.558-2.04-4.558-4.558V795.334z"/>
</g>
<g>
	<path fill-rule="evenodd" clip-rule="evenodd" fill="#FFFFFF" d="M597.039,743.915c-1.055,0-1.908-0.854-1.908-1.908
		c0-1.053,0.854-1.906,1.908-1.906h7.197c1.053,0,1.906,0.854,1.906,1.906c0,1.054-0.854,1.908-1.906,1.908H597.039z"/>
	<path fill-rule="evenodd" clip-rule="evenodd" fill="#FFFFFF" d="M598.73,738.408c0-1.053,0.854-1.907,1.906-1.907
		c1.055,0,1.908,0.854,1.908,1.907v7.198c0,1.053-0.854,1.907-1.908,1.907c-1.053,0-1.906-0.854-1.906-1.907V738.408z"/>
</g>
<g>
	<path fill-rule="evenodd" clip-rule="evenodd" fill="#E3BFA0" d="M306.657,986.77h7.463v-1.251c0-8.875,7.26-16.135,16.135-16.135
		h202.402l48.13-48.13c8.961-8.962,22.625-8.814,31.783,0.343c9.141,9.142,9.395,23.206,0.576,32.026l-15.797,15.761h4.534
		l8.094-8.094c1.319-1.321,3.461-1.321,4.78-0.002c1.32,1.32,1.32,3.464,0,4.783l-3.313,3.313h10.707
		c8.875,0,16.135,7.26,16.135,16.135v291.897c0,8.875-7.26,16.135-16.135,16.135h-5.991v2.723c0,8.064-6.599,14.663-14.663,14.663
		H306.657c-8.065,0-14.663-6.599-14.663-14.663v-294.841C291.994,993.367,298.592,986.77,306.657,986.77L306.657,986.77z
		 M542.219,969.384h4.566l34.895-34.836c1.318-1.318,3.461-1.321,4.779,0c1.318,1.319,1.318,3.463,0,4.781l-30.043,30.055h31.391
		l20.561-20.547c5.305-5.303,6.902-14.979-0.578-22.459c-7.408-7.405-16.785-5.777-22.222-0.342L542.219,969.384z"/>
	<path fill-rule="evenodd" clip-rule="evenodd" fill="#F26522" d="M290.363,967.704h294.84c8.065,0,14.664,6.598,14.664,14.662
		v294.842c0,8.064-6.599,14.662-14.664,14.662h-294.84c-8.065,0-14.664-6.598-14.664-14.662V982.366
		C275.699,974.302,282.298,967.704,290.363,967.704z"/>
	<path fill-rule="evenodd" clip-rule="evenodd" fill="#FFFFFF" d="M313.961,950.318h291.896c8.875,0,16.135,7.26,16.135,16.135
		v291.897c0,8.875-7.26,16.135-16.135,16.135H313.961c-8.875,0-16.135-7.26-16.135-16.135V966.453
		C297.826,957.578,305.086,950.318,313.961,950.318z"/>
	<g>
		<path opacity="0.4" fill-rule="evenodd" clip-rule="evenodd" fill="#B2B4B8" d="M329.79,1244.815
			c-4.827,0-8.741-3.916-8.741-8.744v-179.355c0-4.828,3.914-8.743,8.741-8.743c4.833,0,8.747,3.915,8.747,8.743v179.355
			C338.537,1240.899,334.623,1244.815,329.79,1244.815z"/>
	</g>
	<g>
		<path opacity="0.4" fill-rule="evenodd" clip-rule="evenodd" fill="#B2B4B8" d="M329.79,1029.995
			c-4.827,0-8.741-3.916-8.741-8.743V981.12c0-4.828,3.914-8.744,8.741-8.744c4.833,0,8.747,3.916,8.747,8.744v40.132
			C338.537,1026.079,334.623,1029.995,329.79,1029.995z"/>
	</g>
	<path fill-rule="evenodd" clip-rule="evenodd" fill="#F26522" d="M507.242,998.832c-12.329-12.329-9.834-29.56-0.301-39.093
		l57.551-57.551c8.963-8.962,22.625-8.815,31.783,0.343c9.142,9.142,9.395,23.206,0.577,32.026l-15.798,15.761h-9.543l20.561-20.547
		c5.305-5.303,6.903-14.979-0.578-22.459c-7.407-7.405-16.785-5.777-22.221-0.342l-57.551,57.548
		c-7.185,7.185-9.035,20.195,0.301,29.533c9.792,9.791,22.268,7.564,29.529,0.301l22.979-22.978c1.02-0.741,1.916-1.638,2.657-2.657
		l26.495-26.493c1.318-1.321,3.461-1.321,4.779-0.003c1.321,1.321,1.321,3.465,0,4.784l-52.127,52.129
		C536.934,1008.539,520.037,1011.627,507.242,998.832L507.242,998.832z M530.49,950.318h9.631l30.043-30.055
		c1.319-1.319,1.319-3.462,0-4.781c-1.318-1.321-3.461-1.318-4.779,0L530.49,950.318z"/>
	<path fill-rule="evenodd" clip-rule="evenodd" fill="#B2B4B8" stroke="#B2B4B8" stroke-width="4" stroke-miterlimit="22.9256" d="
		M367.49,1022.929c-0.684,0-1.236-0.554-1.236-1.236s0.553-1.236,1.236-1.236h218.9c0.682,0,1.236,0.554,1.236,1.236
		s-0.555,1.236-1.236,1.236H367.49z"/>
	<path fill-rule="evenodd" clip-rule="evenodd" fill="#B2B4B8" stroke="#B2B4B8" stroke-width="4" stroke-miterlimit="22.9256" d="
		M367.49,1070.261c-0.684,0-1.236-0.554-1.236-1.236s0.553-1.236,1.236-1.236h218.9c0.682,0,1.236,0.554,1.236,1.236
		s-0.555,1.236-1.236,1.236H367.49z"/>
	<path fill-rule="evenodd" clip-rule="evenodd" fill="#B2B4B8" stroke="#B2B4B8" stroke-width="4" stroke-miterlimit="22.9256" d="
		M367.49,1117.593c-0.684,0-1.236-0.554-1.236-1.236s0.553-1.236,1.236-1.236h218.9c0.682,0,1.236,0.554,1.236,1.236
		s-0.555,1.236-1.236,1.236H367.49z"/>
	<path fill-rule="evenodd" clip-rule="evenodd" fill="#B2B4B8" stroke="#B2B4B8" stroke-width="4" stroke-miterlimit="22.9256" d="
		M367.49,1167.293c-0.684,0-1.236-0.555-1.236-1.237c0-0.682,0.553-1.235,1.236-1.235h218.9c0.682,0,1.236,0.554,1.236,1.235
		c0,0.683-0.555,1.237-1.236,1.237H367.49z"/>
	<path fill-rule="evenodd" clip-rule="evenodd" fill="#B2B4B8" stroke="#B2B4B8" stroke-width="4" stroke-miterlimit="22.9256" d="
		M367.49,1214.625c-0.684,0-1.236-0.554-1.236-1.236s0.553-1.236,1.236-1.236h218.9c0.682,0,1.236,0.554,1.236,1.236
		s-0.555,1.236-1.236,1.236H367.49z"/>
</g>
</svg>
