<svg width="182" height="33" viewBox="0 0 182 33" fill="none" xmlns="http://www.w3.org/2000/svg">
    <g clip-path="url(#clip0)">
        <path d="M78.4233 9.70573H74.4882V6.79395L67.6017 13.5886H70.5532V31.0593L72.5204 33L74.4882 31.0593L77.4397 28.1475L76.4561 27.1764L74.4882 29.1178V13.5886L78.4233 9.70573Z" fill="white"/>
        <path d="M142.67 6.79393V2.91177L138.734 6.79393V10.6768L135.783 13.5885H138.734V31.0592L140.702 33L142.67 31.0592V13.5885L146.605 9.70571H142.67V6.79393Z" fill="white"/>
        <path d="M145.62 0.00112934L142.668 2.91269L145.62 5.82424L148.571 2.91268L145.62 0.00112934Z" fill="white"/>
        <path d="M98.7464 12.6175V9.70572V4.85319L95.7949 1.94141L92.8435 4.85319L94.8113 6.79394V29.1178L98.7464 33L101.698 30.0882L98.7464 27.1764V12.6175Z" fill="white"/>
        <path d="M98.7464 12.6175L101.698 15.5293V30.0882L105.633 26.2061V13.5885L101.698 9.70572L98.7464 12.6175Z" fill="white"/>
        <path d="M20.6744 28.921L18.6067 26.8811V23.8217V8.52453V4.4455V3.42525L15.5056 0.365814L12.4045 3.42525L14.4721 5.46509V10.5391L9.32898 15.6131V8.52453V3.42525L6.22786 0.365814L6.21505 0.378451L6.20224 0.365814L0 6.48468L1.0591 7.53021L4.16022 4.47078L5.19438 5.49037V30.9608L7.26134 33L9.32898 30.9608V20.0074L14.4721 14.934V23.8217V28.921L18.6067 33L20.6744 30.9608L21.7078 29.9406L23.7755 27.9014L22.7413 26.8811L20.6744 28.921Z" fill="white"/>
        <path d="M178.064 29.1178V13.5886L182 9.70573H178.065V6.79395L171.178 13.5886H174.129V31.0593L176.097 33L178.064 31.0593L181.016 28.1475L180.032 27.1764L178.064 29.1178Z" fill="white"/>
        <path d="M83.9945 12.6175L80.0594 16.5003V29.1179L83.9945 33L86.946 30.0882L83.9945 27.1764V12.6175Z" fill="white"/>
        <path d="M83.9945 12.6175L86.946 15.5293V30.0882L90.8817 26.2061V13.5885L86.946 9.70572L83.9945 12.6175Z" fill="white"/>
        <path d="M120.029 13.5646L116.118 9.70572L113.167 12.6175L116.093 15.5053L113.167 18.3932V12.6175L109.231 16.5003V29.1178L113.167 33L115.134 31.0592L116.118 30.0882L119.07 27.1764L118.085 26.2061L115.134 29.1178L113.167 27.1764V20.3346L120.029 13.5646Z" fill="white"/>
        <path d="M30.2089 12.6175L26.2739 16.5003V29.1179L30.2089 33L33.1604 30.0882L30.2089 27.1764V12.6175Z" fill="white"/>
        <path d="M37.0955 13.5885L33.1604 9.70572L30.209 12.6175L33.1604 15.5293V30.0882L36.1119 33L39.0633 30.0882L37.0955 28.1475V13.5885Z" fill="white"/>
        <path d="M47.6103 29.1179L45.6424 27.1764V12.6175L41.7074 16.5003V29.1179L45.6424 33L47.6103 31.0593L48.5939 30.0882L51.5453 27.1764L50.5617 26.2061L47.6103 29.1179Z" fill="white"/>
        <path d="M48.5939 9.67911L45.6426 12.5907L48.5939 15.5022L51.5451 12.5907L48.5939 9.67911Z" fill="white"/>
        <path d="M61.7036 9.70697L58.7524 12.6185L61.7036 15.5301L64.6548 12.6185L61.7036 9.70697Z" fill="white"/>
        <path d="M60.7206 20.3825V31.0593L62.6878 33L64.6557 31.0593V18.4411L61.7042 15.5293L58.7527 18.4411L60.7206 20.3825Z" fill="white"/>
        <path d="M58.7527 9.70572V4.85319L55.8013 1.94141L52.8498 4.85319L54.8177 6.79394V31.0592L56.7849 33L58.7527 31.0592V18.4411V12.6175V9.70572Z" fill="white"/>
        <path d="M151.839 12.6175L154.766 15.5053L151.839 18.3932V12.6175L147.904 16.5003V29.1178L151.839 33L153.806 31.0592L154.79 30.0882L157.742 27.1764L156.758 26.2061L153.806 29.1178L151.839 27.1764V20.3346L158.701 13.5646L154.79 9.70572L151.839 12.6175Z" fill="white"/>
        <path d="M130.868 9.7077L127.917 12.6193L130.868 15.5308L133.82 12.6193L130.868 9.7077Z" fill="white"/>
        <path d="M122.015 12.6175L123.983 14.5589V17.4707V20.3825V31.0592L125.951 33L127.918 31.0592V20.3825V17.4707V12.6175L124.966 9.70572L122.015 12.6175Z" fill="white"/>
        <path d="M164.289 27.1771L161.338 30.0887L164.289 33.0002L167.24 30.0886L164.289 27.1771Z" fill="white"/>
        <path d="M167.241 9.70698L164.29 12.6185L167.241 15.5301L170.192 12.6185L167.241 9.70698Z" fill="white"/>
        <path d="M161.34 15.5293V19.4121L167.243 25.2357V30.0882L170.194 27.1764V22.3239L169.702 21.8384L167.243 19.4121L164.291 16.5003V12.6175L161.34 15.5293Z" fill="white"/>
    </g>
    <defs>
        <clipPath id="clip0">
            <rect width="182" height="33" fill="white"/>
        </clipPath>
    </defs>
</svg>