<svg width="209" height="73" viewBox="0 0 209 73" fill="none" xmlns="http://www.w3.org/2000/svg">
<path d="M208.941 19.0297C208.946 18.9669 208.946 18.9085 208.95 18.8457C209.009 18.913 209 18.9713 208.941 19.0297Z" fill="#999999"/>
<path d="M182.265 49.4833L182.296 49.4744L182.292 49.5058L182.265 49.4833Z" fill="#999999"/>
<path d="M68.2734 31.2972C68.1557 32.1722 67.9157 33.0561 67.1957 33.7247C67.0508 33.8593 66.9058 34.0837 66.6975 33.8459C66.5164 33.6439 66.3534 33.3927 66.6115 33.1369C67.3677 32.3831 67.6666 31.5081 67.3496 30.4402C67.2545 30.1171 67.3089 29.7626 67.6892 29.7043C68.0787 29.6415 68.1013 30.0363 68.1647 30.3011C68.2326 30.6017 68.2326 30.9158 68.2734 31.2972Z" fill="#9FA09F"/>
<path d="M66.8877 31.3826C66.8787 31.6742 66.8379 31.939 66.6432 32.1947C66.4077 32.4998 66.2402 32.2845 66.0273 32.2082C65.7103 32.0915 65.8326 31.9165 65.9277 31.7236C65.9956 31.5755 66.0817 31.4185 66.0953 31.2614C66.1224 30.9249 66.2764 30.7499 66.6024 30.7992C66.9375 30.8441 66.8922 31.1358 66.8877 31.3826Z" fill="#9FA09F"/>
<path d="M25.5991 56.5055C25.6535 56.0882 25.8663 55.8145 26.2286 55.5992C26.8037 55.2581 27.2565 54.7421 27.8452 54.4011C28.0535 54.28 28.1848 53.9883 28.1305 53.6383C27.7773 51.3409 27.578 49.0211 27.4829 46.6968C27.4648 46.284 27.329 45.8847 27.3652 45.4584C27.3969 45.1264 27.2157 44.9783 26.8897 44.9514C24.6889 44.7808 22.4837 44.6014 20.2829 44.4219C19.8255 44.386 19.3999 44.1706 18.9289 44.1751C18.6165 44.1751 18.3674 44.2379 18.1863 44.4982C16.9048 46.3558 15.5327 48.1551 14.378 50.089C13.2051 52.0544 12.0006 54.0332 11.1629 56.1825C10.6693 57.4523 10.1485 58.7715 10.2074 60.1939C10.2617 61.5221 10.7644 62.2624 12.1908 62.4958C13.3138 62.6797 14.4097 62.3791 15.4648 61.9842C15.6187 61.9259 15.7636 61.8407 15.9176 61.8092C16.0489 61.7823 16.2255 61.5625 16.3251 61.8137C16.4067 62.0156 16.2799 62.1772 16.0897 62.2579C14.6225 62.9086 13.1146 63.3438 11.5025 62.9983C10.5108 62.7829 9.67757 61.6253 9.64587 60.4497C9.60059 58.8433 10.0806 57.3536 10.6738 55.8998C11.498 53.8896 12.6029 52.0319 13.658 50.1474C14.061 49.4294 14.5908 48.7878 15.0165 48.0833C15.7817 46.8135 16.7191 45.6738 17.5342 44.4353C17.8059 44.0225 17.6338 43.9104 17.258 43.9328C16.5787 43.9732 15.9357 43.7129 15.2655 43.686C14.9802 43.6725 14.7855 43.4841 14.8625 43.1879C14.9395 42.8918 15.1614 42.9501 15.4059 43.0488C16.2889 43.4033 17.2399 43.3495 18.1591 43.4347C18.4942 43.4661 18.7251 42.9187 18.947 42.6091C19.7078 41.5412 20.5319 40.5226 21.3878 39.5355C22.0806 38.7368 22.701 37.8753 23.4482 37.1259C23.8195 36.7535 23.8693 36.3452 23.4437 35.9054C22.212 34.6221 21.1614 33.1773 19.9931 31.8357C19.4542 31.2165 19.0919 30.4761 18.5214 29.8748C18.2768 29.6191 18.1048 29.5697 17.815 29.5921C16.2753 29.7133 14.781 30.0947 13.264 30.346C11.0044 30.7229 8.80813 31.3915 6.61643 32.0152C4.89114 32.5042 3.19755 33.1863 1.81641 34.4471C1.13263 35.0708 0.485083 35.708 0.575649 36.7849C0.620932 37.3278 0.928858 37.6913 1.24584 38.0637C1.39527 38.2432 1.57641 38.4272 1.34546 38.647C1.1281 38.8534 0.960556 38.6201 0.829235 38.49C-0.284731 37.4131 -0.293788 35.5599 0.92433 34.4696C3.00283 32.6075 5.50699 31.7549 8.09719 31.028C9.0753 30.7543 10.0353 30.3819 11.0315 30.171C12.6346 29.8344 14.2648 29.6146 15.8678 29.2646C16.3433 29.1614 16.8142 29.1031 17.2942 29.0672C17.6429 29.0402 17.8104 28.9415 17.5387 28.5826C17.1674 28.089 16.8051 27.5864 16.461 27.0749C16.3704 26.9403 16.1304 26.7653 16.3161 26.6038C16.4972 26.4422 16.7417 26.5185 16.9048 26.7294C17.2716 27.2005 17.747 27.6223 17.978 28.1518C18.3448 29.0043 18.9787 28.9236 19.5901 28.7576C19.984 28.6543 20.3735 28.6364 20.7629 28.596C22.8006 28.3941 24.8429 28.2191 26.8852 28.0621C27.2882 28.0306 27.3742 27.8646 27.4059 27.4832C27.6052 24.8359 27.6822 22.1795 28.135 19.5546C28.2165 19.0835 28.0354 18.7738 27.6505 18.4642C26.7765 17.7553 25.8527 17.1226 24.9244 16.5034C23.3033 15.422 21.7501 14.2464 20.0202 13.3176C18.1546 12.3125 16.307 11.3074 14.2829 10.6837C13.5312 10.4503 12.7387 10.3696 11.9915 10.5311C10.6874 10.8183 10.153 11.7292 10.2346 13.2144C10.2753 13.9772 10.4202 14.731 10.7372 15.44C10.8051 15.588 10.8232 15.7585 10.8549 15.9246C10.8821 16.0726 10.8187 16.1669 10.6783 16.2028C10.5515 16.2342 10.4474 16.2162 10.3704 16.0816C9.80889 15.0765 9.21568 12.2138 10.2074 10.9574C10.9229 10.0465 11.8874 9.77728 12.9425 9.876C14.6134 10.0286 16.1621 10.6388 17.6655 11.3747C20.5138 12.7657 23.172 14.4663 25.7214 16.3643C26.3735 16.8489 27.0437 17.3155 27.7139 17.7822C28.1214 18.0694 28.3433 17.9662 28.3841 17.4502C28.4158 17.0194 28.4701 16.5931 28.5108 16.1624C28.529 15.9649 28.5788 15.7899 28.778 15.7092C28.8776 15.6688 28.9818 15.6733 29.0633 15.7585C29.2082 15.9111 29.2037 16.0861 29.1267 16.279C28.8414 16.988 29.0361 17.7687 28.8142 18.4867C28.7554 18.6706 28.8958 18.7335 29.009 18.8277C30.1773 19.7745 31.3637 20.7078 32.5094 21.6815C33.3471 22.3949 34.1079 23.1936 34.9546 23.9026C35.6384 24.4769 35.7426 24.4365 36.4852 23.7994C38.1879 22.3276 39.7728 20.7078 41.6294 19.4245C42.1818 19.0431 42.4717 18.5495 42.3811 17.7373C42.2 16.0816 41.8739 14.4528 41.5705 12.8285C41.2445 11.074 40.7101 9.3555 40.2935 7.61901C39.9584 6.22353 39.3833 4.91779 38.7811 3.63898C38.2422 2.49927 37.5992 1.42686 36.4128 0.762776C35.6294 0.323044 34.8822 0.69547 34.3116 1.15315C33.9403 1.4493 33.5554 1.77236 33.3244 2.22556C33.2112 2.44542 33.0301 2.54863 32.8263 2.4185C32.6044 2.2794 32.7765 2.08197 32.8399 1.92044C33.338 0.650599 35.1856 -0.32758 36.4445 0.103178C37.0694 0.318557 37.6354 0.77175 38.0248 1.31917C39.4377 3.29797 40.3252 5.52803 40.9592 7.88374C41.3803 9.45421 41.8513 11.0202 42.1003 12.6266C42.3539 14.2464 42.7977 15.8303 42.9064 17.4726C42.92 17.6745 42.8928 17.9258 43.1147 18.0155C43.332 18.1008 43.4815 17.9078 43.64 17.7822C43.9932 17.4995 44.3509 17.2303 44.7086 16.9566C44.8671 16.8354 45.0619 16.7592 45.2068 16.9072C45.3788 17.0867 45.2249 17.2707 45.0845 17.3829C44.609 17.7643 44.129 18.1367 43.6354 18.5001C43.2732 18.7649 43.1328 19.0924 43.1735 19.5636C43.3139 21.0712 43.5403 22.5699 43.6128 24.091C43.6717 25.2666 43.8528 26.4422 43.8618 27.6268C43.8664 27.9454 44.0385 28.0486 44.3328 28.0531C46.6649 28.1204 49.0015 28.2595 51.3019 28.6095C52.529 28.7979 53.1992 28.5377 53.8604 27.4922C55.3457 25.1455 57.0076 22.9244 58.2845 20.4341C58.8642 19.3033 59.5253 18.2174 60.0008 17.0329C60.5532 15.6419 61.0151 14.2329 61.0468 12.7118C61.0695 11.5945 60.2498 10.6837 59.1857 10.5356C58.126 10.3875 57.1298 10.6119 56.1517 10.9888C55.8483 11.1055 55.5359 11.1907 55.2279 11.2939C55.0287 11.3612 54.8023 11.442 54.7162 11.1683C54.6347 10.917 54.843 10.7644 55.0377 10.7151C55.9389 10.4862 56.7676 9.99715 57.714 9.96125C58.0989 9.94779 58.4838 9.93882 58.8732 9.92984C60.7751 9.88946 61.6944 11.4285 61.6129 13.0663C61.5223 14.8252 60.9064 16.4226 60.2136 17.9931C59.4438 19.743 58.4657 21.3808 57.5102 23.0276C56.8762 24.1224 56.0928 25.132 55.3728 26.1775C54.8747 26.9044 54.3766 27.6313 53.8649 28.3447C53.643 28.6588 53.72 28.8428 54.0596 28.937C54.2543 28.9909 54.4581 29.0627 54.6574 29.0492C55.8166 28.9909 56.8943 29.5562 58.0581 29.4979C58.3027 29.4845 58.4838 29.7088 58.4521 29.9601C58.4204 30.2338 58.1532 30.2248 57.963 30.1934C57.5645 30.1261 57.1751 30.0274 56.7857 29.9242C55.717 29.646 54.6076 29.6953 53.5389 29.4396C53.2853 29.3768 53.1041 29.4172 52.914 29.655C52.289 30.4357 51.7004 31.2479 51.0981 32.0466C50.3373 33.0472 49.477 33.967 48.6664 34.9273C48.3358 35.3176 48.0234 35.7215 47.6928 36.1118C47.1856 36.7131 47.7517 37.0182 48.0415 37.3682C48.8475 38.3464 49.6853 39.2932 50.4868 40.2758C51.2973 41.272 52.0853 42.286 52.8687 43.3046C53.0498 43.5424 53.2355 43.6097 53.5343 43.5783C56.197 43.2732 58.8461 42.838 61.4272 42.1604C63.8227 41.5322 66.2815 41.0207 68.4914 39.7464C69.551 39.1361 70.6876 38.6605 71.2808 37.4804C71.8106 36.4304 71.5208 35.3131 70.5835 34.5818C70.185 34.2722 69.714 34.0613 69.3789 33.6574C69.1978 33.4376 68.9895 33.5363 68.917 33.7831C68.7314 34.4157 68.3193 34.9048 67.957 35.4253C67.8302 35.6093 67.6763 35.8336 67.4182 35.6228C67.1736 35.4253 67.1283 35.1875 67.3457 34.9228C68.6589 33.3164 69.1118 31.4588 68.8763 29.3992C68.8536 29.2152 68.8446 29.0268 68.84 28.8383C68.8355 28.5736 69.0031 28.4749 69.225 28.4435C69.5012 28.4031 69.4967 28.6185 69.5329 28.8024C69.7865 30.0678 69.7367 31.3242 69.388 32.5671C69.1887 33.276 69.2521 33.276 69.9359 33.451C70.5155 33.5991 70.9865 34.0568 71.3623 34.5234C72.0235 35.3446 72.5306 36.2824 72.0552 37.3772C71.6884 38.2163 71.1087 38.8938 70.3163 39.3874C68.1155 40.7515 65.7472 41.6354 63.2521 42.2546C62.1608 42.5239 61.0785 42.8828 59.9691 43.0713C58.3525 43.3495 56.763 43.8027 55.1238 43.9373C54.9426 43.9507 54.757 43.9507 54.5758 43.9642C54.2679 43.9911 53.9102 44.0225 53.7608 44.3007C53.5796 44.6328 53.9781 44.7808 54.1275 45.0052C54.4808 45.5347 54.8521 46.0507 55.1917 46.5891C55.2823 46.7282 55.4 46.9616 55.1691 47.0782C54.9472 47.1949 54.8611 46.975 54.7615 46.818C54.2634 46.0238 53.6023 45.3507 53.1223 44.5386C52.9819 44.3052 52.7147 44.2065 52.3751 44.2603C50.5321 44.5565 48.6754 44.727 46.8143 44.8212C45.9494 44.8661 45.08 44.9244 44.2151 44.9693C43.9117 44.9873 43.8573 45.1892 43.8528 45.436C43.7849 47.7019 43.4996 49.9455 43.3275 52.2024C43.2913 52.6556 43.2551 53.1133 43.16 53.5575C43.0739 53.9793 43.246 54.253 43.5403 54.4684C45.3652 55.7966 47.1358 57.2235 49.0422 58.4125C50.9487 59.6061 52.8732 60.8311 54.9698 61.6298C56.3283 62.1458 57.7276 62.7605 59.2717 62.4868C60.0596 62.3477 60.9472 61.4951 61.0242 60.6785C61.0559 60.3689 61.0151 60.0548 61.0423 59.7452C61.083 59.283 61.2234 58.8074 60.4581 58.8927C60.1547 58.9286 60.114 58.5516 60.0868 58.3318C60.0325 57.91 59.7925 57.7126 59.4393 57.5959C59.3442 57.5645 59.2174 57.56 59.154 57.4927C58.3751 56.6895 57.4921 57.0081 56.6136 57.228C55.6083 57.4837 54.6075 57.7574 53.5932 57.9549C52.7962 58.1074 52.3207 57.7619 52.1079 56.9542C51.8634 56.012 51.6596 55.0607 51.4423 54.1094C51.1389 52.7947 50.8309 51.4845 50.5321 50.1698C50.3011 49.1602 50.6045 48.6218 51.5872 48.375C54.1638 47.7199 56.7494 47.0917 59.3306 46.45C60.0959 46.2571 60.8566 46.0372 61.6264 45.8577C62.4325 45.6738 63.0664 46.0821 63.2566 46.9032C63.714 48.8596 64.1532 50.8159 64.6106 52.7723C64.6695 53.0326 64.7555 53.2928 64.8415 53.5441C65.1268 54.4056 64.7238 55.1908 63.8634 55.4242C62.908 55.6889 62.908 55.6934 63.1344 56.6985C63.1525 56.7793 63.1525 56.869 63.1797 56.9453C63.6642 58.2465 63.4695 58.1209 62.1064 58.4529C61.64 58.5651 61.3774 58.4664 61.5359 59.2426C61.9434 61.2484 60.9834 63.3124 58.5155 63.1419C56.4279 62.9983 54.5487 62.1682 52.7464 61.19C50.9124 60.1984 49.083 59.1843 47.3849 57.9504C46.1079 57.0171 44.7811 56.1511 43.563 55.1415C43.409 55.0158 43.2732 54.8812 43.0875 54.962C42.8566 55.0652 42.8928 55.2851 42.9154 55.5004C43.0015 56.3036 42.6392 57.044 42.5803 57.8292C42.5713 57.9638 42.4626 58.0536 42.3177 58.0222C42.1184 57.9773 42.0732 57.8113 42.0868 57.6363C42.1501 56.8914 42.132 56.1241 42.3132 55.4107C42.5532 54.4819 42.1547 54.0287 41.4754 53.5172C40.0173 52.4178 38.6452 51.2018 37.2867 49.9724C36.8656 49.591 36.4897 49.1602 36.0097 48.8327C35.7109 48.6307 35.489 48.6263 35.2535 48.8461C34.4429 49.6 33.5961 50.3044 32.772 51.0403C31.7441 51.9601 30.7478 52.9338 29.5841 53.6832C29.0407 54.0332 28.8188 54.3742 28.8822 55.1505C29.0542 57.228 29.6158 59.2292 29.9101 61.2798C30.1003 62.6124 30.6527 63.8868 30.9833 65.206C31.3501 66.6822 31.8165 68.1091 32.5094 69.4552C33.0165 70.4468 33.5871 71.3981 34.538 72.0128C35.5977 72.6949 36.2452 72.6993 37.2279 71.7077C37.5313 71.4026 37.803 71.0661 38.0837 70.734C38.1879 70.6129 38.3056 70.5411 38.455 70.6173C38.5728 70.6802 38.5275 70.7923 38.4958 70.8911C38.1788 71.9321 36.3222 73.184 35.2988 72.9461C34.4067 72.7397 33.6143 72.2551 33.089 71.4609C32.5682 70.6757 32.0384 69.877 31.649 69.02C31.2233 68.0911 30.938 67.0905 30.612 66.1168C30.2452 65.022 30.0097 63.8823 29.6882 62.7695C29.3486 61.6028 29.1448 60.3868 28.9592 59.1798C28.7599 57.8696 28.3976 56.5863 28.3433 55.2492C28.3297 54.8678 28.1033 54.8633 27.8452 55.0607C27.4557 55.3613 27.0663 55.653 26.6859 55.9671C26.3644 56.2318 26.0203 56.4248 25.6037 56.4652C25.5901 56.4966 25.5991 56.5055 25.5991 56.5055ZM43.5313 36.5291C43.5358 36.5291 43.5403 36.5291 43.5449 36.5291C43.5449 35.5734 43.5449 34.6177 43.5449 33.6619C43.5449 33.3613 43.4498 33.1279 43.246 32.8812C41.969 31.3511 40.5064 30.0139 39.1071 28.614C38.849 28.3582 38.4958 28.3044 38.1381 28.3762C38.0022 28.4031 37.8573 28.4704 37.726 28.4479C36.0052 28.1967 34.2845 28.5108 32.5682 28.4076C32.3916 28.3986 32.2784 28.5063 32.1516 28.6229C30.7886 29.8389 29.5116 31.1402 28.3116 32.5222C28.0807 32.7914 27.6822 32.9754 27.6822 33.4555C27.6957 35.1965 27.6731 36.942 27.6912 38.6829C27.6957 39.3066 27.6278 39.9258 28.1803 40.4508C29.4256 41.6354 30.5939 42.9053 31.812 44.1168C32.0565 44.3636 32.3056 44.6418 32.7312 44.6373C34.5879 44.6328 36.4399 44.6597 38.2965 44.6776C38.609 44.6821 38.9033 44.6103 39.1343 44.3815C40.5381 42.9905 41.9735 41.6264 43.2641 40.1143C43.4543 39.89 43.5358 39.6791 43.5358 39.3919C43.5268 38.4406 43.5313 37.4849 43.5313 36.5291ZM59.5253 53.8806C59.6294 53.2659 59.2989 52.8082 59.2898 52.2967C59.2853 52.0992 59.2944 51.9198 59.4664 51.7986C59.6566 51.673 59.7608 51.8255 59.8785 51.9332C60.0053 52.0454 60.1502 52.1396 60.3223 52.0499C60.7072 51.848 60.9789 51.8839 61.1012 52.3685C61.1464 52.5524 61.2778 52.4851 61.3864 52.4089C61.9253 52.0275 62.1064 52.3819 62.2242 52.8441C62.2966 53.1268 62.36 53.4095 62.4053 53.6966C62.4687 54.1184 62.6181 54.3203 63.0936 54.1947C63.5872 54.0646 63.4831 53.7909 63.397 53.4454C62.9713 51.6775 62.5502 49.9096 62.1517 48.1372C61.9615 47.3026 61.9208 47.2308 61.1012 47.4282C58.1623 48.1372 55.2325 48.8731 52.2936 49.5775C51.7457 49.7076 51.8362 50.0262 51.9358 50.4121C52.4204 52.3415 52.923 54.2665 53.2808 56.2229C53.3442 56.5684 53.5072 56.5639 53.7472 56.51C54.6528 56.2991 55.563 56.0882 56.4687 55.8594C57.9223 55.4915 57.9132 55.4825 57.5645 53.9793C57.4921 53.6607 57.397 53.2524 57.8408 53.1582C58.2121 53.0819 58.3344 53.4095 58.4294 53.7325C58.5517 54.1409 58.52 54.603 58.8189 55.0158C58.8823 54.7376 58.7962 54.5447 58.751 54.3428C58.4793 53.1941 58.2211 52.0409 57.9494 50.8922C57.8815 50.6051 57.8543 50.3313 58.194 50.2281C58.5834 50.107 58.6106 50.4525 58.6966 50.6948C58.76 50.8698 58.7962 51.0538 58.837 51.2377C59.0272 52.1037 59.1947 52.9742 59.5253 53.8806ZM44.0068 42.6315C43.9932 42.6315 43.9796 42.6315 43.9615 42.6315C43.9615 43.0488 43.9796 43.4661 43.9569 43.879C43.9252 44.386 44.1335 44.5341 44.6135 44.4668C46.04 44.2648 47.4754 44.202 48.9109 44.1213C49.9524 44.0629 50.9894 43.8924 52.0309 43.7802C52.2981 43.7488 52.3117 43.6546 52.194 43.4168C51.9313 42.8738 51.474 42.4969 51.1389 42.0078C49.9977 40.3342 48.4853 38.9701 47.3079 37.3189C47.1132 37.0496 46.9049 37.0407 46.6604 37.3054C45.8996 38.131 45.1162 38.9387 44.3554 39.7598C44.1788 39.9528 44.0022 40.1726 44.0022 40.4643C44.0022 41.1822 44.0068 41.9091 44.0068 42.6315ZM43.2822 27.3262C43.1917 25.7602 43.1283 24.2705 43.0105 22.7808C42.9335 21.8295 42.7841 20.8872 42.6573 19.945C42.6166 19.6578 42.4898 19.3168 42.1683 19.6309C41.5388 20.2501 40.7781 20.6853 40.126 21.2731C38.8898 22.3904 37.6173 23.4673 36.3584 24.5622C36.055 24.8269 36.1411 25.0288 36.4037 25.2711C36.9697 25.7961 37.4905 26.3794 38.0747 26.882C38.5909 27.3217 38.935 28.0172 39.8226 27.9274C40.7237 27.8332 41.652 27.8377 42.5532 27.9499C43.2007 28.0262 43.3954 27.8736 43.2822 27.3262ZM44.0837 31.8536C44.1471 32.1677 43.8845 32.7241 44.292 33.1683C45.012 33.9536 45.723 34.7478 46.4611 35.5106C47.0045 36.0715 47.077 36.0266 47.566 35.4208C48.3947 34.3888 49.2777 33.4017 50.1064 32.3696C50.7992 31.5036 51.4423 30.5928 52.1124 29.7088C52.3298 29.4216 52.2936 29.287 51.9177 29.2466C50.7313 29.121 49.5494 28.937 48.3585 28.8742C47.1041 28.8069 45.8498 28.7755 44.6045 28.5915C44.129 28.5197 43.9252 28.6902 43.9569 29.1928C44.0113 30.0184 44.0385 30.8485 44.0837 31.8536ZM27.8905 27.1602C28.0173 27.4922 27.655 28.0037 28.2935 27.9903C29.4527 27.9678 30.6075 27.9185 31.7622 27.8871C32.0203 27.8781 32.2331 27.7749 32.4188 27.5999C33.1795 26.8685 33.9177 26.1057 34.7146 25.4102C35.1675 25.0109 35.0543 24.7013 34.692 24.4051C33.5373 23.4628 32.4595 22.4353 31.3365 21.4571C30.6346 20.8469 29.8784 20.3039 29.1358 19.7386C28.7961 19.4783 28.6195 19.6039 28.5924 20.0168C28.5742 20.286 28.5697 20.5597 28.5199 20.8199C28.1305 22.9333 28.2482 25.0961 27.8905 27.1602ZM41.2264 45.0815C41.2264 45.0949 41.2264 45.1129 41.2264 45.1264C40.6784 45.1264 40.1305 45.1219 39.5826 45.1264C39.2928 45.1308 39.0301 45.1847 38.8037 45.409C37.9977 46.2167 37.1916 47.0199 36.3675 47.8006C36.1275 48.0295 36.1003 48.2763 36.3448 48.4154C36.9833 48.7743 37.3954 49.3756 37.9479 49.8288C39.3426 50.9775 40.7056 52.1621 42.0822 53.3377C42.1954 53.4319 42.2905 53.5486 42.449 53.4992C42.6301 53.4409 42.5758 53.2659 42.603 53.1313C43.092 50.6365 43.083 48.0968 43.2958 45.5795C43.332 45.1757 43.1645 45.0635 42.8113 45.077C42.2769 45.0905 41.7517 45.0815 41.2264 45.0815ZM30.0641 45.1039C30.0641 45.0905 30.0641 45.0815 30.0641 45.068C29.498 45.068 28.9275 45.0815 28.3614 45.0635C28.0263 45.0546 27.9131 45.1623 27.9086 45.5302C27.8995 46.3872 28.0988 47.2173 28.1395 48.0699C28.2165 49.766 28.4022 51.4531 28.615 53.1358C28.6603 53.5082 28.7146 53.5396 29.0497 53.3601C29.575 53.0729 29.9463 52.6108 30.4309 52.2787C31.7531 51.3679 32.8082 50.1205 34.0852 49.1468C34.3433 48.9493 34.5924 48.7384 34.8188 48.5006C35.0814 48.2224 35.1358 47.9442 34.7645 47.675C34.2301 47.2891 33.7682 46.7911 33.3335 46.3154C32.5546 45.4629 31.7486 44.8841 30.5576 45.1039C30.3946 45.1264 30.2271 45.1039 30.0641 45.1039ZM27.2882 41.9764C27.2656 41.9764 27.2429 41.9764 27.2157 41.9764C27.2157 41.4963 27.2022 41.0207 27.2203 40.5406C27.2293 40.3162 27.1705 40.1323 27.0256 39.9707C26.2422 39.1002 25.4542 38.2297 24.6754 37.3548C24.372 37.0137 24.1546 36.9375 23.9101 37.4266C23.7878 37.6733 23.5478 37.8663 23.3576 38.0772C21.8995 39.7105 20.5048 41.4021 19.2006 43.1655C19.0104 43.4258 19.015 43.5828 19.4044 43.6546C21.7818 44.0943 24.2044 44.045 26.5908 44.3905C27.2067 44.4802 27.3108 44.3052 27.2837 43.6546C27.2701 43.0937 27.2882 42.5328 27.2882 41.9764ZM27.2203 29.2152C27.3154 28.7979 27.2565 28.587 26.7176 28.6544C25.4316 28.8159 24.132 28.8518 22.8414 28.9729C21.6776 29.0806 20.5138 29.2466 19.3501 29.3723C19.0059 29.4082 18.9697 29.5877 19.1508 29.821C19.7078 30.5524 20.2693 31.2793 20.8535 31.9882C21.8859 33.2312 22.9637 34.4382 23.9599 35.708C24.2271 36.0535 24.3312 36.058 24.5848 35.7753C25.1871 35.0978 25.8391 34.4651 26.3961 33.7472C26.695 33.3613 27.2474 33.1549 27.2293 32.5132C27.1976 31.4184 27.2203 30.3146 27.2203 29.2152ZM43.4769 40.8412C43.1373 41.0431 39.9766 44.2783 39.8045 44.6148C40.8913 44.6148 41.9554 44.6283 43.0151 44.6059C43.2234 44.6014 43.4724 44.4982 43.4724 44.1975C43.4815 43.0847 43.4769 41.9719 43.4769 40.8412ZM39.6686 28.4569C40.9366 29.6953 42.0958 30.8306 43.1826 32.0421C43.3773 32.2575 43.5132 32.1363 43.5132 31.8761C43.4996 30.8979 43.4724 29.9242 43.4498 28.946C43.4407 28.6499 43.2958 28.4659 43.0015 28.4838C41.9464 28.5467 40.9003 28.3268 39.6686 28.4569ZM37.3909 27.8781C37.6082 27.8332 37.889 28.0082 38.0158 27.7614C38.1516 27.5012 37.8482 27.4339 37.7169 27.2993C37.1509 26.7159 36.5803 26.1371 36.0052 25.5538C35.7471 25.2935 35.5252 25.3519 35.2716 25.5942C34.6784 26.1551 34.0535 26.6845 33.5146 27.3037C33.3743 27.4653 33.0075 27.5146 33.0935 27.7614C33.1931 28.0396 33.5282 27.8646 33.7546 27.8691C34.9682 27.896 36.1818 27.7255 37.3909 27.8781ZM27.1931 39.2124C27.1931 37.5342 27.1976 36.0266 27.1886 34.5189C27.1886 34.3619 27.2565 34.151 27.0935 34.0613C26.8897 33.9491 26.7493 34.1689 26.6407 34.2856C26.0203 34.9318 25.418 35.6003 24.8157 36.2644C24.6889 36.4035 24.6618 36.5965 24.7886 36.7176C25.581 37.4759 26.1969 38.4047 27.1931 39.2124ZM38.1018 45.3462C38.0113 45.1039 37.8392 45.1443 37.6807 45.1353C37.0558 45.1084 36.4309 45.1937 35.8014 45.1892C35.0543 45.1847 34.3026 45.1219 33.5554 45.1578C33.4195 45.1623 33.2475 45.0994 33.1705 45.261C33.089 45.4315 33.2429 45.5257 33.3426 45.6199C34.0128 46.2526 34.692 46.8763 35.3667 47.5045C35.6294 47.7468 35.8422 47.6212 36.0505 47.4103C36.6709 46.7911 37.2958 46.1763 37.9207 45.5571C37.9886 45.4898 38.0475 45.409 38.1018 45.3462ZM44.0973 39.1182C45.0075 38.3823 45.7456 37.5253 46.4973 36.6817C46.6558 36.5022 46.4973 36.3452 46.366 36.2016C45.7683 35.5689 45.1705 34.9318 44.5773 34.2946C44.4551 34.16 44.3373 33.9446 44.1381 34.0433C43.9117 34.16 44.0113 34.3888 44.0566 34.5952C44.0973 34.7747 44.0928 34.9676 44.0973 35.1516C44.1018 36.4394 44.0973 37.7227 44.0973 39.1182ZM31.5177 28.5287C30.7841 28.4345 30.2044 28.4749 29.6203 28.5063C29.0588 28.5332 28.3614 28.2909 27.9674 28.6364C27.5237 29.0313 27.818 29.7806 27.7818 30.3729C27.7456 30.9742 27.6867 31.5844 27.8497 32.2978C29.0271 30.9652 30.2044 29.7806 31.5177 28.5287ZM27.8044 40.6886C27.8044 41.9181 27.7954 42.9681 27.809 44.0225C27.8135 44.3636 27.9765 44.5251 28.3478 44.5161C29.1765 44.5027 30.0097 44.5475 30.8384 44.5475C31.0195 44.5475 31.2414 44.6507 31.418 44.3905C30.1863 43.2642 29.0361 42.0527 27.8044 40.6886Z" fill="#9FA09F"/>
<path d="M5.63318 24.4141C5.64224 23.7006 5.72827 23.0859 5.92752 22.4891C6.16299 21.7667 6.64752 21.3988 7.37658 21.4033C7.82489 21.4033 7.86111 21.2776 7.62564 20.9097C7.123 20.1244 7.2679 19.4424 8.01507 18.9264C10.089 17.4905 12.1675 16.0547 14.246 14.6188C14.8664 14.1925 15.6589 14.3227 16.0664 14.9284C16.9585 16.2611 17.8461 17.5937 18.7245 18.9399C19.3766 19.945 19.2498 20.4161 18.2717 21.0667C17.1215 21.834 15.994 22.6417 14.8664 23.4449C14.7215 23.5481 14.4408 23.6827 14.6264 23.9205C14.7759 24.109 14.957 23.8891 15.0974 23.7904C16.3517 22.9109 17.6061 22.0314 18.8513 21.143C19.6393 20.5776 19.843 20.6046 20.3593 21.3943C21.0566 22.4712 21.0793 22.5071 20.0513 23.2519C18.5887 24.3154 17.0808 25.316 15.5955 26.3525C14.7759 26.9223 13.9653 27.5057 13.1547 28.0935C12.8604 28.3088 12.6158 28.3088 12.3487 28.0351C11.9819 27.6627 11.8053 27.1646 11.5019 26.7473C11.357 26.5454 11.4883 26.3076 11.6604 26.1326C11.9321 25.8499 11.8143 25.7108 11.4928 25.6346C10.6098 25.4192 9.60451 25.9845 9.30565 26.864C9.10187 27.4608 8.87093 28.0576 8.21885 28.2729C7.22262 28.605 6.44828 28.1428 6.01356 26.8416C5.73733 26.0384 5.64224 25.1858 5.63318 24.4141ZM11.3207 20.0975C11.6694 20.1065 11.9909 20.1828 12.2898 20.3982C12.7789 20.7481 13.1547 21.1924 13.4672 21.7084C13.6347 21.9866 13.8113 22.2199 14.1872 21.9507C15.2468 21.1924 16.3064 20.4385 17.3842 19.7071C17.7962 19.4245 17.8551 19.1642 17.5608 18.7424C16.9042 17.7957 16.2793 16.8309 15.6498 15.8662C15.1879 15.1617 15.0702 15.1079 14.4 15.5701C12.5887 16.8175 10.7819 18.0649 8.98866 19.3482C8.02413 20.0392 8.04224 20.0661 8.76225 21.0712C9.17885 21.6545 9.35546 21.65 9.78112 21.0488C10.1615 20.5103 10.6053 20.0706 11.3207 20.0975ZM7.42639 23.5211C7.45809 23.8218 7.19092 23.8128 7.0279 23.8981C6.8196 24.0057 6.58865 24.1269 6.67016 24.3961C6.75167 24.6564 6.99167 24.6878 7.22715 24.5801C7.58488 24.4186 7.79772 24.5038 7.87923 24.9211C7.92451 25.141 8.0196 25.4147 8.31847 25.298C8.53583 25.2128 8.64904 24.9884 8.52225 24.7327C8.34111 24.3602 8.46338 24.1583 8.84829 24.0596C9.043 24.0102 9.25131 23.9025 9.1698 23.6244C9.08829 23.3462 8.88904 23.2833 8.63998 23.3731C8.32753 23.4853 8.10111 23.4763 8.01507 23.068C7.96074 22.8032 7.80224 22.5968 7.48979 22.7314C7.16375 22.8705 7.24979 23.1083 7.36753 23.3506C7.39017 23.4 7.40375 23.4583 7.42639 23.5211ZM14.9615 25.3474C15.4596 24.8224 16.1615 24.598 16.6596 24.082C16.6868 24.0506 16.6823 23.9609 16.6596 23.9115C16.6234 23.8263 16.5283 23.7904 16.4604 23.8352C15.9079 24.2077 15.36 24.5846 14.8211 24.9794C14.7713 25.0153 14.7849 25.1679 14.794 25.2666C14.7985 25.2935 14.8891 25.316 14.9615 25.3474ZM12.163 22.0404C12.1358 21.7667 11.9819 21.5782 11.7011 21.5693C11.3751 21.5603 11.2392 21.7981 11.2392 22.0987C11.2392 22.4084 11.4204 22.5475 11.7102 22.534C12.0045 22.525 12.1404 22.341 12.163 22.0404ZM11.6287 23.4673C11.5834 23.1712 11.4475 22.9782 11.1577 22.9962C10.8498 23.0141 10.7049 23.2205 10.7185 23.5391C10.7321 23.8128 10.8951 23.9654 11.1396 23.9609C11.434 23.9519 11.6106 23.7679 11.6287 23.4673ZM19.8249 22.2513C19.8113 22.009 19.7298 21.8206 19.4536 21.7936C19.1819 21.7667 19.0461 21.9148 19.0189 22.1795C18.9917 22.4487 19.123 22.6327 19.3766 22.6462C19.6076 22.6551 19.8068 22.5519 19.8249 22.2513Z" fill="#9FA09F"/>
<path d="M53.0809 9.9747C53.2711 9.73689 53.2711 9.43625 53.3435 9.15806C53.4341 8.82153 53.6062 8.53884 54.0092 8.54782C54.3217 8.5523 54.4983 8.74973 54.5752 9.02793C54.6884 9.43625 54.4575 9.66958 54.1179 9.78624C53.7828 9.89842 53.665 10.3247 53.2122 10.2798C54.9285 12.0387 55.0688 13.5778 53.7556 15.5746C53.5337 15.9156 53.3526 16.2162 53.5881 16.6559C53.7284 16.9162 53.6107 17.2303 53.4386 17.4816C53.0583 18.02 52.6779 18.5584 52.2839 19.0834C52.1209 19.2988 51.9715 19.5007 51.9579 19.7969C51.9398 20.1693 51.7133 20.4296 51.3511 20.461C51.0432 20.4879 50.8756 20.2456 50.8167 19.9584C50.7398 19.5905 50.939 19.393 51.256 19.245C51.8447 18.9757 52.0439 18.3879 52.3111 17.7912C51.2469 19.0386 50.1058 19.7744 48.5843 18.6168C48.5435 19.2046 48.1405 19.1866 47.7692 19.1552C47.0175 19.0924 46.3473 18.361 46.379 17.6745C46.3971 17.329 46.4152 17.3066 46.7639 17.2841C46.465 16.97 46.1073 16.7008 45.9488 16.288C45.6454 15.5028 45.6726 14.7444 46.225 14.0624C46.3292 13.9368 46.4107 13.7932 46.4831 13.6451C46.5329 13.5419 46.5103 13.4253 46.3971 13.3894C46.3473 13.3714 46.2295 13.4297 46.2024 13.4836C45.9578 13.9861 45.3737 14.2957 45.428 14.9823C45.4552 15.3008 45.1699 15.4399 44.8892 15.4669C44.622 15.4938 44.4046 15.3816 44.3231 15.1034C44.2507 14.8521 44.2235 14.565 44.4952 14.4438C45.3465 14.0624 45.6726 13.2144 46.1616 12.5234C46.4967 12.0522 46.8318 11.6843 47.4567 11.8099C47.7601 11.8727 47.8869 11.6618 48.0273 11.4465C48.3714 10.926 48.788 10.4817 49.3179 10.1452C50.1737 9.59779 51.0567 9.36446 52.0394 9.7683C52.3383 9.88945 52.6507 9.98367 52.9586 10.0869C52.9903 10.1632 53.0492 10.2619 53.1216 10.217C53.253 10.1362 53.1443 10.051 53.0809 9.9747ZM53.6288 13.1785C53.6334 12.824 53.5654 12.5323 53.4024 12.2541C52.8952 11.3836 52.1571 10.8676 51.1926 10.6522C50.5903 10.5176 49.5896 11.0022 49.3767 11.5811C49.2364 11.9625 49.2952 12.3125 49.662 12.5592C50.4862 13.1201 51.342 13.6272 52.0394 14.372C52.4062 14.7579 52.9858 14.713 53.2213 14.3496C53.4567 13.9906 53.6877 13.6137 53.6288 13.1785ZM50.5722 14.9509C50.4364 14.9778 50.3503 15.0316 50.3141 15.1393C50.2733 15.247 50.3005 15.3861 50.3956 15.4085C50.8711 15.5342 51.1337 15.938 51.4688 16.2431C51.6001 16.3598 51.7315 16.3508 51.8265 16.1938C51.9126 16.0457 51.9035 15.8886 51.7133 15.8617C51.4869 15.8303 51.3737 15.5746 51.2696 15.5476C50.9028 15.4624 50.8937 14.9912 50.5722 14.9509Z" fill="#9FA09F"/>
<path d="M36.1133 63.649C35.982 63.5413 35.9412 63.3304 36.0046 63.2541C36.4303 62.7471 36.1404 62.092 36.3669 61.5177C36.5299 61.1048 36.4891 60.6337 36.9555 60.3735C37.1004 60.2927 36.9012 60.176 36.8559 60.0773C36.7472 59.853 36.8921 59.7139 37.0371 59.6062C37.191 59.4895 37.4672 59.2696 37.5578 59.4401C37.8159 59.9158 37.8884 59.5074 38.0242 59.3863C38.3412 59.1081 38.6944 58.9511 39.1246 58.9376C40.0484 58.9062 40.9676 58.7177 41.8778 59.0587C42.4756 59.2831 43.1865 59.3325 43.3088 60.1895C43.3178 60.2523 43.4084 60.3196 43.4763 60.36C44.0424 60.6965 44.4409 61.1363 44.468 61.8542C44.4907 62.4599 44.9209 62.9042 45.0748 63.465C45.2107 63.9631 45.3782 64.4522 45.3782 64.9817C45.3782 65.381 45.3239 65.6772 45.0386 66.0541C44.8258 66.3412 44.6809 67.0547 44.8348 67.5976C44.9616 68.0553 44.7261 68.9976 44.3639 69.2219C43.9835 69.4553 43.6439 69.7424 43.3133 70.0386C43.0099 70.3078 42.7246 70.6174 42.2537 70.3437C42.1224 70.2674 41.9231 70.3168 41.9276 70.5636C41.9276 70.7251 41.8461 70.918 41.7239 70.9091C41.2393 70.8732 40.7593 71.1469 40.2748 70.9046C40.148 70.8418 39.9623 70.8822 39.8039 70.8956C39.4959 70.9136 39.3963 70.779 39.4869 70.4828C40.4288 70.5052 41.1805 70.1597 41.6152 69.2399C41.0174 69.8546 40.2069 70.0879 39.4914 70.4918C39.3329 70.5277 39.0793 70.604 39.0567 70.4469C39.0205 70.1687 39.2967 70.0251 39.5186 69.9533C40.1661 69.7424 40.7005 69.388 41.185 68.8854C41.9458 68.0912 42.2492 67.1534 42.2627 66.072C42.2673 65.8387 42.1586 65.4438 42.4393 65.4393C42.7518 65.4349 42.6975 65.8297 42.702 66.0945C42.7156 66.5432 42.4892 66.9784 42.5842 67.4989C42.8605 67.3104 42.8831 67.0681 42.8741 66.8258C42.8378 65.9778 42.8741 65.1163 42.7337 64.2862C42.5571 63.2227 41.7918 62.5901 40.8318 62.3164C40.1118 62.1099 39.4597 62.424 38.8982 62.949C37.9155 63.8599 37.5125 65.0535 37.2318 66.3188C37.2227 66.3592 37.2272 66.4041 37.2137 66.44C37.1004 66.7765 37.0642 67.3957 36.7201 67.297C36.3352 67.1848 36.7472 66.7137 36.7789 66.3951C36.788 66.2964 36.7789 66.1977 36.7789 66.1079C36.4937 66.0316 36.5706 66.3816 36.3261 66.431C36.3442 65.8477 36.0997 65.3676 35.8642 64.883C35.7691 64.69 35.8144 64.5599 35.9638 64.3939C36.1087 64.2368 36.1631 63.9945 36.2582 63.7926C36.3261 63.6939 36.3895 63.5817 36.2491 63.5099C36.1857 63.474 36.1314 63.5682 36.1133 63.649ZM41.7058 62.1234C40.9405 61.3068 40.0393 61.2215 39.2242 62.1414C40.0484 61.6029 40.8725 61.6971 41.7058 62.1234ZM44.2778 67.2566C44.5405 66.8617 44.5224 66.413 44.6265 66.0092C44.6763 65.8073 44.5722 65.4438 44.219 65.74C44.056 65.8746 43.9473 65.7041 43.8567 65.7265C43.6439 65.7848 43.345 65.7848 43.345 66.1528C43.345 66.7002 43.6484 66.238 43.7254 66.2336C44.1375 66.2066 44.391 66.2605 44.2824 66.7765C44.2552 66.9156 44.2778 67.0637 44.2778 67.2566ZM37.5261 62.5586C37.5488 62.6035 37.5759 62.6484 37.5986 62.6933C37.8884 62.424 38.545 62.7292 38.5359 61.9305C38.1827 62.1503 37.8567 62.3567 37.5261 62.5586ZM38.5133 59.8978C38.8529 60.2388 39.1789 60.2344 39.5593 59.8978C39.1789 59.8978 38.8529 59.8978 38.5133 59.8978ZM41.8325 69.1726L41.8733 69.195L41.8778 69.1591L41.8325 69.1726Z" fill="#9FA09F"/>
<path d="M23.52 61.6208C24.3397 61.3964 25.1004 61.024 25.8657 60.665C26.1057 60.5528 26.2008 60.324 26.0695 59.9965C25.3993 58.3362 24.788 56.6536 24.0182 55.0383C23.8914 54.7735 23.7782 54.5357 24.0951 54.3607C24.4484 54.1678 24.625 54.437 24.7472 54.7017C24.9827 55.2267 25.1819 55.7696 25.3948 56.3036C25.4355 56.3978 25.4763 56.4965 25.5985 56.5055L25.594 56.4965C25.6936 57.4433 26.2687 58.2106 26.5314 59.0945C26.6219 59.3907 26.7533 59.6779 26.8257 59.9785C26.9933 60.683 26.7442 61.1182 26.0831 61.3964C23.751 62.3836 21.4189 63.3707 19.0868 64.3668C18.4936 64.6226 17.8189 64.3803 17.5291 63.6938C16.8272 62.0156 16.1661 60.3195 15.4959 58.6279C15.4008 58.3856 15.3283 58.1029 15.6317 57.9862C15.9578 57.8606 16.0936 58.1253 16.1978 58.3946C16.7955 59.9157 17.3932 61.4368 18 62.9534C18.3125 63.7387 18.5117 63.8149 19.2951 63.4739C19.9653 63.1823 20.631 62.8906 21.428 62.5406C20.5857 62.4195 19.9065 62.5586 19.2861 62.8771C18.7472 63.1553 18.471 62.9983 18.2672 62.4688C17.7329 61.0778 17.1895 59.6913 16.6415 58.3048C16.4921 57.9189 16.3698 57.5151 16.157 57.1651C15.8038 56.5908 16.0619 56.3978 16.5781 56.2857C16.877 56.2183 16.9268 56.0434 16.7547 55.7876C15.9034 54.5133 16.2476 53.5082 17.0129 52.6287C18.1087 51.3678 19.9608 51.2153 21.0974 52.0813C21.5955 52.4627 21.8219 52.9742 21.9533 53.5351C22.0438 53.9299 22.157 54.0287 22.5057 53.8088C22.7955 53.6248 23.0491 53.5934 23.2121 54.0197C23.9185 55.828 24.6295 57.6318 25.3812 59.4221C25.6393 60.0368 25.431 60.2926 24.8967 60.5394C24.3714 60.7817 23.7102 60.9028 23.5336 61.6252C23.4884 61.6387 23.4431 61.6477 23.3978 61.6611C23.4114 61.6656 23.4295 61.6836 23.4385 61.6791C23.4612 61.6656 23.4929 61.6432 23.52 61.6208ZM19.4536 52.355C18.8559 52.364 18.308 52.512 17.828 52.9114C16.7321 53.8223 16.8498 55.2312 18.1042 55.8863C18.634 56.1645 19.1548 56.4786 19.508 56.9497C19.8566 57.4164 20.1238 57.0843 20.4498 57.0126C20.8348 56.9228 20.8393 56.6581 20.8166 56.3485C20.7714 55.7786 20.8529 55.2267 21.0657 54.7017C21.5955 53.3601 20.6763 52.337 19.4536 52.355ZM21.0385 61.6791C21.2378 61.6432 21.5819 61.9393 21.6227 61.522C21.668 61.0958 20.9389 59.9785 20.554 59.9561C20.0197 59.9247 19.7615 59.624 19.4944 59.2112C19.2317 58.8074 19.0234 58.3946 18.9917 57.9145C18.9419 57.1606 18.0725 56.5818 17.357 56.8331C17.0627 56.9363 16.8996 57.044 17.0491 57.4119C17.6468 58.8612 18.2264 60.3195 18.8061 61.7778C18.9193 62.0605 19.0778 62.1278 19.3766 62.0425C19.9246 61.8945 20.4815 61.8002 21.0385 61.6791ZM22.4423 61.3112C22.5691 61.2214 22.6506 61.1631 22.7276 61.1003C23.2619 60.656 23.76 60.167 24.4302 59.9291C24.7246 59.8259 24.6748 59.5747 24.5887 59.3548C23.9774 57.8427 23.357 56.335 22.7366 54.8274C22.6868 54.7107 22.6733 54.5402 22.4514 54.6075C21.6544 54.8498 21.2966 56.0389 21.8083 56.6985C22.0982 57.0664 22.2612 57.5016 22.3382 57.9818C22.4106 58.435 22.474 58.8164 22.1027 59.2292C21.7404 59.633 21.9487 60.7278 22.3336 61.1451C22.3789 61.19 22.4061 61.2483 22.4423 61.3112Z" fill="#9FA09F"/>
<path d="M9.33733 45.8668C7.64374 45.7636 5.93203 45.777 4.27014 45.3373C3.68599 45.1803 3.49127 44.7899 3.50938 44.2335C3.54561 43.1386 3.91693 42.6361 4.9358 42.2816C5.0309 42.2502 5.12599 42.2098 5.21203 42.156C5.62411 41.9092 6.38034 42.0438 6.30788 41.2406C6.2626 40.7515 6.19468 40.2624 5.86411 39.8182C5.60147 39.4682 5.41128 38.9702 5.76448 38.49C5.97279 38.2074 5.87769 37.8439 5.90939 37.5208C6.04071 36.2241 7.24977 35.6138 8.1328 35.7081C9.21959 35.8292 9.95318 36.7401 9.92148 37.9202C9.91243 38.315 9.80827 38.6875 10.0302 39.1048C10.1796 39.383 9.97129 39.8451 9.69959 40.0515C9.24223 40.397 9.15167 40.922 8.97959 41.3842C8.7577 41.99 9.35091 42.1829 9.72676 42.4207C9.94412 42.5553 10.2022 42.6271 10.4241 42.7842C11.1577 43.3002 11.5336 44.386 11.2392 45.2386C11.0762 45.7097 10.6505 45.786 10.2566 45.8533C9.95318 45.9072 9.64073 45.8668 9.33733 45.8668Z" fill="#9FA09F"/>
<path d="M35.3253 4.38837C35.3072 4.4826 35.271 4.68901 35.2212 4.88644C34.397 8.13956 33.5638 11.3927 32.7532 14.6503C32.4408 15.9067 32.1329 16.131 30.9057 15.8214C29.5517 15.4804 28.1978 15.1349 26.8483 14.758C25.9291 14.4977 25.7253 14.1791 25.9336 13.2099C26.2325 11.8145 26.5947 10.428 26.9434 9.04146C27.4642 6.97292 27.9895 4.90438 28.5238 2.84034C28.7276 2.05061 29.1442 1.79485 29.923 1.98779C31.3812 2.35125 32.8348 2.71918 34.2838 3.10058C35.0582 3.30699 35.3253 3.62557 35.3253 4.38837ZM34.2068 5.88256C34.2793 5.58642 34.1253 5.46975 33.8672 5.40245C32.3366 5.0031 30.8106 4.59926 29.28 4.19094C28.9993 4.11466 28.8634 4.22235 28.7955 4.49157C28.1706 7.02228 27.5457 9.55747 26.9027 12.0837C26.8211 12.4112 26.9117 12.5234 27.2061 12.5997C28.6596 12.9766 30.1178 13.3311 31.5532 13.7663C32.0785 13.9234 32.228 13.7529 32.3412 13.2907C32.6627 11.9625 33.0114 10.6388 33.3465 9.31068C33.6408 8.17097 33.9216 7.02676 34.2068 5.88256ZM29.28 14.6368C29.4974 14.574 29.7102 14.4035 29.6966 14.1029C29.683 13.8471 29.4657 13.7125 29.2257 13.7125C28.9495 13.7125 28.7683 13.874 28.7638 14.1702C28.7547 14.4753 28.9313 14.6099 29.28 14.6368Z" fill="#9FA09F"/>
<path d="M65.7828 27.5415C65.5338 30.0946 65.0357 32.5849 63.9806 34.9272C63.7134 35.524 63.4191 36.2419 62.5994 36.2553C61.7345 36.2688 61.5534 35.5015 61.2907 34.8913C61.0145 34.2496 60.7926 33.5766 60.5979 32.9035C60.4394 32.3651 60.1677 32.0285 59.5926 32.0016C58.9632 31.9747 58.7187 31.6157 58.7141 30.983C58.7051 29.9645 58.9315 29.0267 59.4613 28.1652C59.6787 27.8152 59.9277 27.6761 60.3262 27.8286C60.9828 28.0889 61.5398 28.0036 62.0515 27.4338C62.4998 26.9312 63.0387 26.5094 63.5504 26.0742C63.7813 25.8768 64.0394 25.6928 64.3111 25.5672C64.9768 25.2576 65.4659 25.5088 65.656 26.2357C65.7783 26.662 65.7783 27.0973 65.7828 27.5415ZM65.1851 27.5863C65.167 27.4024 65.1715 27.2543 65.1398 27.1152C65.09 26.9267 65.1398 26.6441 64.8817 26.6082C64.6689 26.5812 64.61 26.8325 64.524 26.9851C64.1662 27.6177 63.9579 28.3132 63.7677 29.0177C63.6953 29.2869 63.7541 29.4709 63.9126 29.6953C64.5285 30.5613 64.2568 31.5664 63.3013 32.0151C63.17 32.0779 63.0387 32.0869 62.9889 32.2574C62.7307 33.0965 62.6583 33.9625 62.6402 34.8329C62.6357 34.9676 62.6673 35.1381 62.8485 35.174C62.9934 35.2009 63.0704 35.0797 63.1428 34.99C63.2334 34.8823 63.3104 34.7567 63.3692 34.6265C64.3836 32.383 64.8364 29.9824 65.1851 27.5863Z" fill="#9FA09F"/>
<path d="M5.04902 38.3464C5.02638 38.5214 5.00374 38.7323 5.1577 38.9791C5.37506 39.3246 5.13959 39.6522 4.91317 39.9304C4.34713 40.6259 4.33355 40.931 4.87694 41.6399C5.05355 41.8688 4.88147 41.963 4.74109 42.0034C3.77203 42.2771 3.34637 42.9771 3.22864 43.9463C3.19241 44.2424 2.99769 44.3591 2.70335 44.3232C2.14184 44.2514 1.57127 44.2065 1.00976 44.1168C0.575041 44.045 0.117681 43.8879 0.113153 43.3495C0.108624 42.7841 0.076926 42.1515 0.701834 41.8239C0.973533 41.6848 1.24976 41.5412 1.53957 41.456C2.41354 41.2092 2.5358 40.8412 2.01957 39.9034C1.72976 39.374 1.53052 38.9701 1.9924 38.4631C2.06939 38.3778 2.03769 38.1849 2.04674 38.0413C2.12825 36.942 2.66712 36.426 3.686 36.4843C4.56449 36.5337 5.10789 37.2516 5.04902 38.3464Z" fill="#9FA09F"/>
<path d="M10.5736 42.4655C10.7276 42.3264 10.877 42.2457 10.9585 42.1156C11.1442 41.8284 11.1487 41.5502 10.7593 41.4425C10.5011 41.3707 10.2476 41.2944 10.0302 41.1374C9.85813 41.0117 9.67699 40.7829 9.87624 40.6214C10.4332 40.1682 10.4423 39.4951 10.6279 38.8938C11.0219 37.624 12.2491 37.2112 13.2679 38.0233C13.6574 38.333 13.7887 38.7458 13.8023 39.2259C13.8204 39.8002 13.7615 40.3835 14.2325 40.8547C14.4091 41.0297 14.3457 41.2989 14.074 41.4066C13.8295 41.5053 13.5759 41.5995 13.3223 41.6489C13.1049 41.6938 12.9329 41.7341 12.8921 41.9989C12.8513 42.2861 13.0234 42.3803 13.2317 42.5059C13.6846 42.7841 14.2325 42.9367 14.4272 43.5649C14.6763 44.3681 14.3547 44.92 13.5396 44.9514C13.0732 44.9693 12.6068 44.9469 12.1404 44.9693C11.7464 44.9873 11.52 44.7315 11.5608 44.4129C11.6921 43.511 11.2393 42.9546 10.5736 42.4655Z" fill="#9FA09F"/>
<path d="M41.8054 63.8194C41.8688 64.3085 41.9141 64.7572 41.9911 65.2014C42.299 67.0546 41.6831 68.4904 40.1526 69.518C40.0348 69.5987 39.9171 69.7513 39.7903 69.6077C39.6227 69.4282 39.8084 69.325 39.9261 69.2128C40.4922 68.6879 41.1579 68.2436 41.3707 67.427C41.6696 66.2828 41.6786 65.1296 41.2846 64.0168C41.099 63.4874 40.3518 63.4829 39.6227 64.0079C39.9578 63.963 40.1888 63.9989 40.4288 63.8418C40.6099 63.7207 40.8228 63.797 40.9948 63.9406C41.0356 63.9764 41.0718 64.0393 41.0718 64.0931C41.0763 64.2008 40.9767 64.2367 40.9043 64.2187C39.9216 63.9316 39.7677 64.7841 39.3737 65.345C39.2152 65.5738 39.2695 66.1168 38.8982 65.9911C38.5903 65.8879 38.9163 65.4886 38.9163 65.2194C38.9163 65.1835 38.9027 65.1431 38.8937 65.0982C38.7126 65.2059 38.6582 65.3899 38.6627 65.5694C38.6673 65.8386 38.5133 66.229 38.862 66.3277C39.1971 66.4219 39.2061 66.0046 39.342 65.7937C39.5956 65.4033 39.6771 64.9053 40.0801 64.6046C40.6326 64.1918 41.0854 64.3354 41.2711 64.9995C41.5473 65.9956 41.5654 66.9648 40.9903 67.8757C40.9043 68.0148 40.8228 68.1898 40.6914 68.2616C40.0892 68.6071 39.7269 69.1859 39.2741 69.6795C39.0748 69.8949 38.8665 70.0609 38.382 70.1013C38.9752 69.3878 39.3918 68.6834 39.985 68.2302C40.859 67.5661 41.2756 66.1975 40.7911 64.9771C40.6235 65.4886 40.7141 65.9508 40.7594 66.3681C40.8137 66.8975 40.6326 67.3732 40.3156 67.593C39.6544 68.0552 39.342 68.8 38.7669 69.316C38.5541 69.5045 38.3367 69.7289 38.1058 69.6436C37.8658 69.5584 37.6575 69.2936 37.7933 68.9436C37.8114 68.8943 37.8114 68.7821 37.7842 68.7686C37.1095 68.4366 37.6212 68.0686 37.7752 67.7501C38.1103 67.0456 38.2461 66.3725 37.9246 65.5963C37.7344 65.1431 37.8069 64.654 38.142 64.1963C38.8212 63.2675 39.5186 62.4464 40.7956 62.5496C41.7782 62.6303 42.6386 63.8284 42.6069 64.645C42.6024 64.7796 42.6114 64.9726 42.4213 64.986C42.2446 64.9995 42.2084 64.8066 42.1813 64.6764C42.1179 64.3803 42.1179 64.0572 41.8054 63.8194ZM38.7216 66.4713C38.6673 66.7091 38.6401 66.902 38.5812 67.086C38.5178 67.3014 38.4227 67.5078 38.3503 67.7231C38.3186 67.8174 38.305 67.934 38.4273 67.9744C38.4726 67.9879 38.545 67.9565 38.5903 67.9206C38.776 67.7725 38.8892 66.7898 38.7216 66.4713ZM39.9986 67.1667C40.2522 66.8885 40.5873 66.6507 40.3609 66.2155C40.1933 66.2963 40.2205 66.4668 40.1661 66.5879C40.0892 66.7674 40.0529 66.9693 39.9986 67.1667Z" fill="#9FA09F"/>
<path d="M39.4416 57.8068C40.0756 57.6856 40.6688 58.0132 41.3118 57.9818C41.6197 57.9683 41.9775 58.5113 42.2537 58.8478C42.308 58.9151 42.0545 59.0946 41.8869 58.9689C41.4613 58.6548 40.9722 58.6414 40.5013 58.7042C39.6771 58.8164 38.7941 58.5606 38.0378 59.108C37.9292 59.1888 37.8069 59.1798 37.7209 59.0542C37.6439 58.942 37.7118 58.8298 37.7933 58.7939C38.3005 58.5741 38.6944 58.1837 39.1518 57.892C39.2378 57.8472 39.3465 57.8382 39.4416 57.8068Z" fill="#9FA09F"/>
<path d="M37.8658 66.4219C37.8431 66.9873 37.5533 67.427 37.3586 67.8982C37.3359 67.952 37.2318 68.0058 37.1684 68.0014C37.0461 67.9969 37.019 67.8757 37.0099 67.7725C36.9873 67.5123 37.0914 67.2879 37.1956 67.0636C37.2997 66.8392 37.3767 66.6059 37.4763 66.3815C37.5488 66.22 37.3858 65.8745 37.6982 65.9149C37.9292 65.9463 37.8386 66.2559 37.8658 66.4219Z" fill="#9FA09F"/>
<path d="M38.3956 42.2546C38.0288 42.8334 37.3993 42.8424 36.8378 42.9635C35.7601 43.2058 34.6914 43.2507 33.6001 42.9411C32.9842 42.7661 32.7125 42.4475 32.7352 41.8238C32.7487 41.4245 32.6084 41.1553 32.2687 40.895C31.7751 40.5136 31.5895 39.863 31.4808 39.2752C31.3812 38.7322 32.2733 38.2566 32.8167 38.4182C33.591 38.6515 34.2114 39.1181 34.8001 39.6521C34.8997 39.7418 35.0582 39.8136 35.1216 39.7149C35.3706 39.3425 35.2574 38.9117 35.2257 38.5079C35.2031 38.2207 34.9495 38.2387 34.7095 38.2117C34.2748 38.1669 33.8084 38.4137 33.3782 38.0682C33.5638 38.0188 33.677 37.8303 33.9125 38.0502C34.1887 38.3105 34.5782 38.1175 34.9133 38.1444C35.1261 38.1624 35.108 37.9246 35.1216 37.763C35.1352 37.5925 35.0672 37.4624 34.8906 37.4714C34.6416 37.4804 34.3608 37.2964 34.1978 37.3637C33.8265 37.5118 33.6136 37.1887 33.3102 37.2111C33.8944 37.0675 33.9442 36.915 33.5502 36.4169C34.0121 36.3092 34.4559 36.4618 34.8997 36.4887C35.1487 36.5022 35.2393 36.4304 35.2438 36.1971C35.2484 36.0535 35.2529 35.9054 35.2574 35.7618C35.271 34.7791 35.2212 34.7612 34.2657 34.8823C33.8627 34.9362 33.428 34.667 33.0612 35.0663C32.794 35.358 32.4906 35.6227 32.2053 35.8964C32.4136 36.1432 32.5178 35.883 32.6582 35.8246C32.6582 36.1971 32.3774 36.5291 32.5857 36.9105C32.6763 37.072 32.4997 37.1169 32.4136 37.1842C32.1963 37.3502 32.0921 37.1483 31.9563 37.0361C31.6936 36.8208 31.4174 36.4663 31.2091 37.0855C31.191 37.1349 31.1819 37.1932 31.1729 37.247C31.825 37.3906 31.3721 38.131 31.7706 38.4137C31.6529 38.4944 31.5533 38.4944 31.4582 38.3643C31.3359 38.1938 31.1819 37.8707 30.9872 38.0816C30.8333 38.2476 30.6204 38.6425 30.9827 38.8893C31.1865 39.0284 31.2363 39.0688 30.951 39.1136C30.8604 39.1271 30.8514 39.2213 30.8785 39.3156C30.9963 39.7015 30.7427 40.2175 31.2634 40.4553C30.8106 40.9668 31.5216 41.088 31.6438 41.3661C31.7751 41.6623 31.7163 42.2725 32.3231 42.2815C31.6438 42.2591 31.3223 41.7027 30.8831 41.3527C29.914 40.5764 29.3797 39.4502 28.9948 38.3149C28.6778 37.3816 28.8136 36.3362 28.9495 35.349C29.2031 33.5003 30.1993 32.1408 31.671 31.0639C34.3155 29.121 37.8612 29.7088 39.8854 31.8177C41.9503 33.967 42.4122 37.3054 40.8725 39.9527C40.3699 40.8142 39.6907 41.4469 38.948 42.0482C38.785 42.1918 38.5903 42.2142 38.3956 42.2546C38.468 42.2097 38.5405 42.1738 38.6039 42.1245C38.699 42.0482 38.8167 41.945 38.7306 41.8193C38.6582 41.7072 38.5133 41.7341 38.4001 41.7924C38.2325 41.8732 38.0423 41.9764 38.0786 42.1918C38.1012 42.3309 38.2778 42.2725 38.3956 42.2546ZM30.2174 33.1414C30.2491 32.8497 30.6521 32.751 30.625 32.3831C30.3442 32.4907 30.1721 32.6478 30.0544 32.8721C29.9502 33.0696 30.0499 33.1279 30.2265 33.1369C29.8551 33.7202 29.8551 33.7202 30 34.0881C30.2808 33.6664 30.5616 33.2984 30.7382 32.8093C30.4483 32.8048 30.3668 33.0247 30.2174 33.1414ZM29.588 36.2374C29.5699 36.2374 29.5427 36.2285 29.5291 36.2374C29.1034 36.5785 29.0672 38.5573 29.4702 38.9162C29.5336 38.9745 29.6106 39.0329 29.674 38.9701C29.7238 38.9207 29.76 38.8085 29.7374 38.7502C29.5246 38.122 29.76 37.5073 29.7872 36.8881C29.7963 36.6682 29.7238 36.4842 29.6287 36.3003C30.0725 36.5246 29.991 36.1073 30 35.9323C30.0091 35.7169 29.9004 35.4163 29.6695 35.4343C29.4883 35.4477 29.4295 35.7304 29.4838 35.9503C29.5155 36.049 29.5563 36.1432 29.588 36.2374ZM36.471 34.4516C37.1367 34.6984 37.3586 34.6221 37.4174 34.133C37.5488 34.2452 37.6846 34.3618 37.8612 34.5144C37.1865 34.64 36.5888 34.9138 35.9276 34.8375C35.4793 34.7836 35.3616 34.999 35.3072 35.4432C35.2393 35.9637 35.6378 36.4483 35.3435 36.9868C35.262 37.1393 35.5155 37.2784 35.7193 37.2784C35.9955 37.2784 36.2718 37.2784 36.548 37.2784C36.2537 37.3682 35.9593 37.4265 35.665 37.4759C35.5065 37.5028 35.3254 37.4893 35.3208 37.7271C35.3163 37.9694 35.4431 38.1265 35.674 38.1579C35.8325 38.1758 36.0001 38.1624 36.154 38.1175C36.5254 38.0098 36.8876 37.9964 37.2906 38.0682C36.8423 38.4496 37.028 38.9297 37.028 39.3649C37.028 39.513 37.1638 39.5444 37.2906 39.5623C38.0967 39.6835 38.5269 39.2483 38.4001 38.4316C38.382 38.3105 38.3276 38.1938 38.314 38.0682C38.2371 37.413 37.9427 36.7804 38.3729 36.0983C38.5586 35.8067 38.8982 35.2727 38.2461 34.9362C38.0831 34.8509 37.9971 34.5727 38.1601 34.3843C38.5495 33.9356 38.1329 33.7785 37.8793 33.6843C37.6393 33.599 37.6031 33.5003 37.5352 33.2805C37.3948 32.8228 37.5578 32.3561 37.3676 31.8805C37.2091 31.4812 36.7382 31.2882 36.7699 30.7812C36.7835 30.5927 36.5254 30.4716 36.3261 30.4267C35.6967 30.2966 35.0808 30.2248 34.4242 30.3414C33.9623 30.4222 33.7133 30.669 33.7767 31.0324C33.8355 31.369 34.2567 31.3106 34.5374 31.2344C35.3299 31.019 35.9593 31.5485 36.6703 31.701C36.6748 31.701 36.6703 31.7414 36.6703 31.7594L36.6793 31.7504C36.0318 31.8401 35.8189 32.244 36.1178 32.8003C36.3035 33.1414 36.5571 33.1234 36.7971 32.751L36.788 32.76C37.2318 32.9484 37.182 33.3926 37.2861 33.7606C37.2182 33.6933 37.1186 33.6349 37.0869 33.5542C36.9918 33.2984 36.9238 33.0292 36.5661 33.1189C36.2084 33.2087 36.2763 33.4958 36.3035 33.7561C36.1631 33.5048 36.1269 33.1234 35.7012 33.2266C35.3072 33.3208 35.425 33.6664 35.3978 33.9356C35.3933 33.9984 35.3887 34.0612 35.3933 34.1195C35.4114 34.3708 35.3027 34.7029 35.6559 34.7791C35.9865 34.8509 36.3306 34.8734 36.471 34.4516ZM39.582 38.7278C39.351 38.6784 39.102 38.8489 38.8846 38.638C38.7261 38.481 38.6356 38.5797 38.6084 38.7681C38.545 39.2124 38.6673 39.4367 38.9888 39.2572C38.5993 39.2124 38.6174 39.5982 38.5857 39.9886C38.5586 40.3072 38.7352 40.6258 38.5359 40.9444C38.4635 41.0565 38.5903 41.2136 38.7261 41.1597C38.9888 41.061 39.3691 41.0969 39.3963 40.6617C39.419 40.6303 39.4642 40.5854 39.4597 40.5719C39.4099 40.4912 39.3691 40.536 39.3329 40.5944C39.2378 40.5316 39.0476 40.6527 39.034 40.5046C39.0159 40.3476 39.1608 40.3341 39.2967 40.3835C39.4959 40.4553 39.6046 40.3655 39.6363 40.1636C39.7088 39.7059 39.9035 39.2438 39.6363 38.7816C39.659 38.7547 39.7088 38.7098 39.6997 38.7008C39.6499 38.6156 39.6137 38.6694 39.582 38.7278ZM36.9782 39.163C36.9691 38.279 36.8831 38.1938 36.0725 38.2297C35.8008 38.2432 35.4204 38.1848 35.434 38.6021C35.4476 39.0149 35.117 39.5399 35.7963 39.8136C36.0725 39.9258 36.5208 40.1053 36.4348 40.5989C36.4076 40.7559 36.154 40.9399 36.4665 41.0162C36.702 41.0745 36.8876 41.0117 36.9465 40.6437C37.028 40.1098 36.7744 39.5803 36.9782 39.163ZM34.9269 32.5895C35.1125 32.2574 34.9721 32.069 34.7367 31.9388C34.6325 31.8805 34.4106 31.9254 34.474 32.042C34.6642 32.401 34.4469 32.6971 34.4378 33.0202C34.4242 33.4151 34.5374 33.8279 34.6506 34.2183C34.714 34.4247 34.6823 34.8016 35.022 34.7657C35.3842 34.7298 35.2031 34.3843 35.2438 34.1644C35.348 33.5901 35.0672 33.083 34.9269 32.5895ZM39.6952 33.976C39.5322 33.9356 39.3827 34.1151 39.1835 34.0836C38.948 34.0478 38.9254 34.2811 38.8756 34.465C38.8348 34.6221 38.8574 34.7747 38.9661 34.8644C39.1518 35.0214 39.2424 34.8195 39.3556 34.7118C39.4325 34.6356 39.5186 34.5638 39.6046 34.6715C40.0665 35.2503 40.2431 34.6445 40.4786 34.4247C40.6144 34.299 40.7095 34.0522 40.5601 33.8593C40.4333 33.7022 40.3201 33.9849 40.148 33.9266C40.0167 33.8907 39.8944 34.1554 39.6952 33.976ZM38.4499 40.1098C38.4182 39.9123 38.5133 39.6072 38.1465 39.5758C37.5533 39.522 36.9601 39.8181 37.0144 40.1771C37.0597 40.4687 36.8605 40.9892 37.4763 40.9803C38.0922 40.9668 38.4363 40.6841 38.4499 40.1098ZM31.9019 36.4483C31.8748 36.3765 31.8431 36.3406 31.8431 36.3047C31.8295 35.7394 31.3948 35.6721 31.0325 35.7125C30.6567 35.7528 30.7472 36.2015 30.6612 36.4753C30.5978 36.6817 30.8378 36.8342 30.9465 36.7131C31.3178 36.2823 31.6031 36.6099 31.9291 36.74C32.0876 36.8028 32.305 36.8387 32.4046 36.6188C32.4725 36.4708 32.5133 36.2778 32.3367 36.1746C32.074 36.0221 32.0921 36.3721 31.9019 36.4483ZM29.8823 37.597C29.6559 38.3508 30.2174 38.5214 30.5344 38.5528C30.9284 38.5887 30.6838 38.0367 30.8468 37.781C30.9374 37.6374 30.3125 36.8432 30.1495 36.8925C29.7283 37.0182 29.9729 37.4489 29.8823 37.597ZM29.8733 38.472C29.8687 39.0508 29.8733 39.5668 30.3714 39.8899C30.5842 40.029 30.711 40.0111 30.7608 39.6835C30.8559 39.006 30.5117 38.6919 29.8733 38.472ZM34.5284 37.2919C34.782 37.265 35.1578 37.4041 35.1306 36.9284C35.0944 36.3227 34.5555 36.6682 34.2703 36.5111C34.0529 36.3855 33.8582 36.6547 33.8627 36.9015C33.8763 37.3592 34.225 37.3009 34.5284 37.2919ZM39.9488 39.495C40.0122 39.5982 39.7541 39.9662 40.1118 39.9482C40.4831 39.9258 40.6235 39.5803 40.6235 39.2168C40.6235 39.0284 40.7141 38.7592 40.3744 38.7816C39.9759 38.7996 39.8718 39.0553 39.9488 39.495ZM35.9729 42.2456C35.6514 42.2007 35.3661 42.2052 35.3616 42.5328C35.357 42.8379 35.674 42.7841 35.8687 42.811C36.1359 42.8469 36.4937 42.7975 36.5072 42.5103C36.5208 42.1379 36.1088 42.3354 35.9729 42.2456ZM36.8242 42.4879C37.0597 42.6046 37.2952 42.5732 37.5125 42.4924C37.7752 42.3937 37.6665 42.1604 37.6574 41.9584C37.6529 41.779 37.5986 41.6713 37.4129 41.7072C37.2408 41.7386 36.9963 41.6937 36.9555 41.9225C36.9193 42.1155 37.2499 41.9629 37.2861 42.1559C37.1276 42.2546 36.9103 42.2277 36.8242 42.4879ZM37.4401 41.5546C37.6891 41.402 38.151 41.586 38.2235 41.1059C38.2506 40.9174 38.0197 40.9354 37.902 40.9668C37.594 41.0476 37.1865 41.0072 37.0733 41.402C37.0325 41.5591 37.2861 41.5142 37.4401 41.5546ZM36.4937 41.2001C36.3352 41.227 36.1042 41.1777 36.0635 41.42C36.0272 41.6399 36.2174 41.6802 36.385 41.6713C36.5525 41.6623 36.7789 41.6982 36.8197 41.4514C36.8559 41.2136 36.6657 41.2091 36.4937 41.2001ZM34.225 42.5732C34.5329 42.8559 34.8001 42.793 35.0491 42.7841C35.1759 42.7796 35.2801 42.7033 35.2574 42.5462C35.2348 42.3937 35.1306 42.3533 34.9903 42.3847C34.7638 42.4386 34.5329 42.4969 34.225 42.5732ZM38.1737 33.3567C38.3367 33.0785 38.2823 32.8811 38.0786 32.7375C38.0469 32.7151 37.8974 32.7824 37.8793 32.8362C37.7888 33.1189 38.0378 33.1862 38.1737 33.3567ZM36.6612 41.8866C36.3488 41.7655 36.0454 41.7879 35.7465 41.927C35.7284 41.936 35.7284 42.0661 35.751 42.0796C36.068 42.2411 36.3623 42.1604 36.6386 41.9719C36.6476 41.9584 36.6476 41.927 36.6612 41.8866ZM39.0386 41.2585C38.8665 41.4469 38.5269 41.2405 38.3593 41.6533C38.6763 41.5681 38.9254 41.577 39.0386 41.2585Z" fill="#9FA09F"/>
<path d="M32.4726 37.8214C32.2145 37.9694 32.0695 37.8303 31.8929 37.6912C32.1148 37.6239 32.3095 37.5387 32.4726 37.8214Z" fill="#9FA09F"/>
<path d="M33.9578 35.892C33.985 35.9862 34.0167 36.0759 33.9397 36.1612C33.8899 36.067 33.8944 35.9772 33.9578 35.892Z" fill="#9FA09F"/>
<path d="M32.7442 37.4624C32.7714 37.5566 32.7261 37.5925 32.6672 37.5925C32.6355 37.5925 32.5767 37.5656 32.5767 37.5476C32.5767 37.4983 32.5993 37.4534 32.6129 37.4041C32.6582 37.4265 32.708 37.4489 32.7442 37.4624Z" fill="#9FA09F"/>
<path d="M50.2236 12.2722C49.9111 12.2408 49.73 12.0972 49.73 11.801C49.73 11.5139 49.9156 11.4017 50.1647 11.3972C50.4545 11.3927 50.6221 11.5363 50.6175 11.8459C50.613 12.1286 50.4228 12.2228 50.2236 12.2722Z" fill="#9FA09F"/>
<path d="M53.0628 13.7662C53.013 14.031 52.8771 14.1835 52.6055 14.1476C52.3156 14.1073 52.1843 13.9098 52.207 13.6271C52.2296 13.3624 52.3836 13.2188 52.6598 13.2547C52.9451 13.2951 53.0719 13.4746 53.0628 13.7662Z" fill="#9FA09F"/>
<path d="M19.4672 53.2209C19.6665 53.2299 19.8883 53.194 20.0514 53.3376C20.1963 53.4633 20.4317 53.6024 20.3095 53.8402C20.1646 54.1184 20.0016 53.8581 19.8612 53.7908C19.6438 53.6876 19.4219 53.728 19.2046 53.7145C19.0144 53.7056 18.7427 53.7774 18.7382 53.4812C18.7382 53.2434 18.9917 53.2613 19.1683 53.2344C19.2634 53.2209 19.3631 53.2254 19.4672 53.2209Z" fill="#9FA09F"/>
<path d="M36.8106 32.7555C36.6522 32.7376 36.4257 32.8812 36.3805 32.5985C36.3714 32.5401 36.5027 32.3966 36.5706 32.3966C36.8061 32.3921 36.8152 32.5805 36.8016 32.7645C36.8061 32.7645 36.8106 32.7555 36.8106 32.7555Z" fill="#9FA09F"/>
<path d="M37.739 34.99C37.7299 34.99 37.7118 34.99 37.7118 34.99C37.7118 34.9541 37.7073 34.9227 37.7073 34.8868C37.7163 34.8868 37.7345 34.8868 37.7345 34.8868C37.739 34.9227 37.739 34.9586 37.739 34.99Z" fill="#9FA09F"/>
<path d="M37.422 34.142C37.3812 34.0119 37.3359 33.8862 37.2952 33.7561C37.4265 33.8503 37.3767 34.0119 37.422 34.142Z" fill="#9FA09F"/>
<path d="M36.6839 31.7639C36.7835 31.7863 36.8514 31.8357 36.8424 31.9523C36.8424 31.9613 36.8107 31.9837 36.7971 31.9793C36.6794 31.9479 36.6703 31.8581 36.6929 31.7594L36.6839 31.7639Z" fill="#9FA09F"/>
<path d="M36.3216 33.7606C36.4257 33.9177 36.3805 34.1016 36.394 34.2721C36.3669 34.1016 36.3442 33.9311 36.3216 33.7606Z" fill="#9FA09F"/>
<path d="M208.941 19.0297C208.946 18.9669 208.946 18.9085 208.95 18.8457C209.009 18.913 209 18.9713 208.941 19.0297Z" fill="#9FA09F"/>
<path d="M182.265 49.4833L182.296 49.4744L182.292 49.5058L182.265 49.4833Z" fill="#9FA09F"/>
<path fill-rule="evenodd" clip-rule="evenodd" d="M201.644 23.2835C201.537 22.7992 201.429 22.3145 201.32 21.8297C198.005 19.492 192.069 20.0619 189.768 25.4329C188.632 28.0847 188.12 30.8622 187.989 33.716C187.884 35.9999 187.948 38.2883 188.192 40.5677C188.401 42.537 188.955 44.4067 189.511 46.2832L189.542 46.3874C189.56 46.4488 189.598 46.5025 189.637 46.5561C189.658 46.5848 189.678 46.6135 189.696 46.6432C189.584 46.6566 189.459 46.66 189.331 46.6614L189.337 46.674C189.46 46.6728 189.58 46.6694 189.687 46.6566C189.759 46.7848 189.832 46.9134 189.904 47.0419L189.904 47.0429L189.905 47.0438C190.557 48.2048 191.207 49.3633 192.173 50.3001C193.25 51.3456 194.518 51.9513 195.963 52.2116C197.118 52.4224 198.272 52.3372 199.404 52.0725C200.428 51.8346 201.433 51.4173 201.913 50.4078C202.316 49.5597 202.697 48.6847 203.05 47.8053C203.171 47.4983 203.297 47.1929 203.423 46.8874C203.611 46.4292 203.8 45.9709 203.974 45.5079C204.074 45.2346 204.259 45.2326 204.461 45.2304C204.478 45.2302 204.495 45.23 204.512 45.2297C205.199 45.2105 205.872 45.3103 206.546 45.4104C206.974 45.4739 207.403 45.5376 207.836 45.5707C207.938 45.5766 208.043 45.5689 208.149 45.5613C208.447 45.5398 208.748 45.5181 208.982 45.7937L208.995 45.7862C208.991 45.8288 208.988 45.8727 208.984 45.9165L208.983 45.9329C208.98 45.9711 208.977 46.0092 208.973 46.0464L208.97 46.0716C209.022 46.141 208.993 46.203 208.945 46.2611L208.928 46.4078C208.853 47.0794 208.778 47.7506 208.702 48.4217L208.667 48.731L208.667 48.7321L208.667 48.7333C208.485 50.3412 208.304 51.9485 208.131 53.5578C208.094 53.9212 207.958 54.0289 207.614 54.0783C206.621 54.2098 205.664 54.4988 204.707 54.7877C204.032 54.9914 203.357 55.1952 202.669 55.3436C197.801 56.4071 192.983 56.3128 188.324 54.4148C185.487 53.2583 183.098 51.4256 181.473 48.693L181.459 48.6937C181.078 48.3929 180.871 47.9661 180.667 47.5477C180.631 47.473 180.595 47.3986 180.558 47.3251C178.678 43.6188 178.226 39.6119 178.361 35.5242C178.443 33.1864 178.724 30.8442 179.611 28.6545C180.322 26.9 181.142 25.1994 182.355 23.7097C183.044 22.8617 183.773 22.045 184.561 21.3316C185.525 20.4611 186.639 19.7521 187.821 19.1464C189.388 18.3387 191.009 17.7689 192.694 17.3291C192.723 17.3213 192.752 17.3118 192.781 17.3025C192.851 17.2798 192.921 17.2573 192.988 17.2573C193.96 17.2766 194.927 17.192 195.894 17.1074C197.185 16.9946 198.476 16.8817 199.78 17.015C202.561 17.3022 205.341 17.5894 208.085 18.1682C208.194 18.1914 208.306 18.1938 208.417 18.1962C208.608 18.2002 208.797 18.2043 208.968 18.3118C208.977 18.3178 208.97 18.3477 208.963 18.3776L208.961 18.386C208.958 18.3981 208.956 18.4098 208.955 18.4195C208.938 18.4232 208.921 18.4259 208.904 18.4286C208.858 18.4357 208.812 18.4429 208.783 18.4688L208.253 18.8933L208.266 18.8951C208.438 18.7574 208.61 18.6198 208.783 18.4823C208.812 18.4591 208.851 18.4528 208.891 18.4463C208.912 18.4428 208.934 18.4393 208.955 18.433C208.952 18.5016 208.951 18.5706 208.95 18.6387L208.95 18.6397C208.949 18.7091 208.948 18.7781 208.946 18.8458C208.943 18.8772 208.942 18.9075 208.941 18.9378C208.94 18.9555 208.94 18.9733 208.939 18.9913L209 19L208.911 19.5342L208.836 21.0101C208.701 23.6525 208.566 26.2948 208.443 28.9372C208.425 29.3051 208.321 29.4442 207.945 29.4397C207.092 29.4293 206.238 29.4295 205.385 29.4297C204.776 29.4299 204.166 29.43 203.557 29.4263C203.527 29.427 203.496 29.4303 203.463 29.4336C203.302 29.4502 203.123 29.4687 203.104 29.1885C203.166 29.1265 203.226 29.0636 203.286 29H203.272C203.217 29.059 203.161 29.1174 203.104 29.175C203.067 29.1176 203.033 29.0593 203.002 29H203L203.001 28.997C202.797 28.6042 202.719 28.1726 202.642 27.742C202.609 27.5574 202.577 27.3729 202.534 27.1917C202.226 25.8981 201.936 24.5923 201.644 23.2835ZM201.644 23.2835L201.649 23.2863L201.65 23.2891L201.644 23.2835ZM182.265 49.4835L182.292 49.5015L182.297 49.4701L182.265 49.4835Z" fill="#9FA09F"/>
<path d="M175.101 17.19L175.047 17.1811V17.1272C175.128 17.0868 175.115 17.1362 175.101 17.19Z" fill="#9FA09F"/>
<path d="M175.101 17.19L175.047 17.1811V17.1272C175.128 17.0868 175.115 17.1362 175.101 17.19Z" fill="#9FA09F"/>
<path fill-rule="evenodd" clip-rule="evenodd" d="M170.894 30.8737C170.956 31.3333 171.019 31.7992 171.302 32.1948C171.326 32.4917 171.508 32.4705 171.676 32.4507C171.724 32.4451 171.771 32.4396 171.813 32.4415C172.226 32.4448 172.639 32.442 173.052 32.4392C173.753 32.4344 174.454 32.4297 175.155 32.4551C175.667 32.473 175.807 32.3204 175.78 31.8044C175.668 29.6449 175.571 27.4854 175.475 25.326L175.475 25.3237C175.442 24.6033 175.41 23.8828 175.377 23.1623C175.331 22.1472 175.284 21.1309 175.236 20.1146L175.23 19.9769C175.186 19.0491 175.143 18.1213 175.101 17.1946L175.047 17.1855V17.1317C175.027 17.1333 175.009 17.1343 174.99 17.1351L175 17H174.741C174.615 16.9328 174.471 16.9478 174.331 16.9625L174.329 16.9627C174.306 16.9651 174.283 16.9675 174.26 16.9695C174.226 16.9725 174.192 16.9746 174.159 16.9746C167.516 16.9702 160.868 16.9702 154.225 16.9702L150.385 16.9712C147.825 16.9722 145.265 16.9731 142.705 16.9702H142.679C142.261 16.97 141.917 16.9698 141.89 17.5893C141.842 18.8154 141.779 20.0405 141.716 21.2651C141.649 22.5724 141.582 23.8793 141.533 25.186L141.518 25.5786L141.499 26.1327C141.456 27.3964 141.412 28.6595 141.311 29.9198L141.293 30.1299C141.233 30.821 141.172 31.5247 141.32 32.2172C141.493 32.092 141.659 31.9587 141.82 31.8198L141.825 31.8249C141.664 31.9637 141.498 32.0968 141.324 32.2217C141.287 32.4325 141.413 32.4381 141.545 32.444L141.587 32.446C141.813 32.446 142.038 32.4458 142.264 32.4454L142.927 32.4441C143.821 32.442 144.714 32.4401 145.608 32.446C145.857 32.446 145.988 32.3697 146.016 32.105C146.03 31.9579 146.062 31.8146 146.093 31.6713L146.117 31.5619L146.128 31.5089C146.133 31.4833 146.138 31.4576 146.142 31.4319C146.274 30.7035 146.407 29.9751 146.539 29.2467C147.016 26.6277 147.492 24.0079 147.949 21.3854C148.022 20.9906 148.176 20.9368 148.506 20.9368C150.066 20.9475 151.625 20.9468 153.182 20.946L154.354 20.9457C154.453 21.2026 154.453 21.471 154.452 21.7401L154.452 21.8027C154.452 31.3871 154.452 40.9714 154.447 50.5558C154.447 50.7554 154.428 50.9571 154.408 51.1579C154.399 51.2461 154.391 51.3343 154.384 51.4219C154.361 51.7269 154.185 51.8436 153.904 51.875C153.572 51.9117 153.24 51.9493 152.908 51.9874L152.034 52.0884L152.017 52.0902C150.86 52.2242 149.701 52.3584 148.542 52.4718C148.108 52.5166 147.99 52.6916 147.999 53.1C148.009 53.4825 148.006 53.8651 148.003 54.2477L148.001 54.4194L148 54.6172L148 54.7897C148 54.8561 148 54.9225 148 54.9888L148.001 55.1455L148.004 55.2806C148.004 55.3237 148.002 55.3689 147.999 55.4148C147.988 55.5891 147.977 55.7737 148.167 55.8909L148.636 55.8992H148.638L148.639 55.8992C149.274 55.9108 149.908 55.9224 150.539 55.9224L152.196 55.9233C153.449 55.9241 154.703 55.9244 155.957 55.9248C160.447 55.9261 164.938 55.9275 169.427 55.9403C169.889 55.9448 170.034 55.8147 170.016 55.3525C169.999 54.8895 170.003 54.4281 170.006 53.9664C170.008 53.6585 170.01 53.3503 170.007 53.0416C170.006 53.012 170.009 52.978 170.012 52.9429C170.026 52.7975 170.042 52.6313 169.776 52.6603C169.734 52.4921 169.602 52.4813 169.469 52.4705C169.457 52.4695 169.444 52.4684 169.432 52.4673C168.895 52.4118 168.359 52.3547 167.823 52.2975L167.814 52.2965L167.806 52.2957C166.396 52.1454 164.985 51.9949 163.572 51.875C163.096 51.8346 163.024 51.6641 163.024 51.2289C163.031 43.3286 163.027 35.4283 163.022 27.5281L163.019 21.5738C163.019 21.4506 163.007 21.3252 162.995 21.2006C162.989 21.1393 162.983 21.0781 162.979 21.0174C163.014 21.0094 163.05 20.999 163.085 20.9886L163.088 20.9878L163.091 20.9871L163.14 20.9729C163.172 20.9637 163.205 20.9556 163.237 20.9497C163.267 20.9445 163.297 20.9412 163.327 20.9412C164.595 20.9412 165.863 20.9452 167.131 20.9492L167.449 20.9502C167.977 20.9518 168.505 20.9535 169.033 20.9547C169.185 21.7665 169.335 22.5782 169.486 23.3899L169.486 23.3935C169.919 25.7253 170.35 28.0563 170.817 30.382C170.828 30.4364 170.838 30.4914 170.847 30.5469C170.854 30.5906 170.861 30.6345 170.867 30.6787C170.877 30.7434 170.885 30.8085 170.894 30.8737ZM169.776 52.6603C169.651 52.7852 169.529 52.9134 169.406 53.0419L169.407 53.041C169.529 52.9128 169.651 52.7848 169.776 52.6603Z" fill="#9FA09F"/>
<path fill-rule="evenodd" clip-rule="evenodd" d="M109.721 54.2038C109.361 53.595 109.17 52.9227 108.979 52.2514C108.901 51.9778 108.823 51.7043 108.734 51.4353C108.038 49.337 107.371 47.2278 106.703 45.1176L106.479 44.4086C106.2 43.5313 105.929 42.6519 105.657 41.7724C105.385 40.8933 105.113 40.0131 104.835 39.1363C104.25 37.2995 103.654 35.4681 103.058 33.6358L103.051 33.6134C102.883 33.0988 102.716 32.5841 102.548 32.0691C101.874 29.9872 101.33 27.8648 100.846 25.7289C100.612 24.699 100.365 23.671 100.118 22.6424C99.9733 22.04 99.8285 21.4367 99.6864 20.8335C99.6817 20.8146 99.6772 20.7956 99.6728 20.7767C99.634 20.6125 99.5965 20.4535 99.4464 20.3489L99.4462 20.3397C99.3794 21.3608 99.3141 22.3824 99.2489 23.4042C99.1195 25.4294 98.9901 27.4562 98.8487 29.4801C98.6416 32.4209 98.4266 35.3597 98.2116 38.2992L98.2115 38.3006C98.102 39.7962 97.9926 41.2924 97.8842 42.7888C97.7618 44.4957 97.6433 46.2046 97.5249 47.9129C97.4637 48.7957 97.4025 49.6783 97.3408 50.5604C97.254 50.7298 97.2319 50.905 97.2317 51.0827C97.2327 50.9081 97.2554 50.736 97.3407 50.5693C97.3815 50.8924 97.377 51.2065 97.2502 51.5071L97.25 51.5027C97.2477 51.5482 97.2444 51.5927 97.2411 51.6372C97.2377 51.6832 97.2344 51.7292 97.2321 51.7764C97.1774 51.8111 97.1222 51.8448 97.0664 51.8776L97.0678 51.8786C97.1216 51.8469 97.1748 51.8144 97.2275 51.7809C98.6947 52.095 100.18 52.2341 101.67 52.3552C102.359 52.4132 102.466 52.5244 102.32 53.1517L102.322 53.1584C102.322 53.4949 102.323 53.8303 102.324 54.1657C102.325 54.5011 102.326 54.8365 102.326 55.1731C102.313 55.193 102.302 55.213 102.292 55.2331C102.301 55.216 102.311 55.199 102.322 55.182C102.447 55.3373 102.453 55.4881 102.318 55.6432C102.334 55.918 102.15 55.918 101.964 55.9179H101.955C99.5959 55.9157 97.2377 55.9145 94.8796 55.9134C92.5215 55.9123 90.1634 55.9112 87.8041 55.9089C87.7772 55.9089 87.7477 55.8965 87.7195 55.8846C87.7098 55.8805 87.7002 55.8765 87.6909 55.873L87.6954 55.8684C87.4746 55.4058 87.5109 54.9258 87.5471 54.4466C87.5629 54.2379 87.5786 54.0293 87.5732 53.8224C87.5415 52.566 87.5641 52.5481 88.7641 52.3372C89.6018 52.1891 90.4441 52.0859 91.2864 51.9827C91.6486 51.9378 91.8886 51.8256 91.943 51.4039C92.0741 50.4061 92.1845 49.4054 92.295 48.4045C92.4209 47.2629 92.5469 46.121 92.7037 44.9829C92.8744 43.7501 93.0101 42.5048 93.1455 41.2627C93.1717 41.0221 93.198 40.7809 93.2245 40.5407C93.3517 39.3579 93.4886 38.1766 93.6256 36.9951C93.7177 36.2004 93.81 35.4044 93.8992 34.6088C93.9858 33.8405 94.0677 33.0712 94.1497 32.3019C94.2476 31.3819 94.3456 30.4617 94.4517 29.5429C94.5642 28.5545 94.6818 27.566 94.7993 26.5776C94.956 25.2598 95.1128 23.9417 95.2577 22.6238C95.2666 22.5306 95.2816 22.4358 95.2967 22.3401C95.3506 21.9995 95.4063 21.6475 95.196 21.3118L95.1898 21.3137C93.7725 21.0355 92.346 20.8381 90.9106 20.6945C90.8694 20.6893 90.8279 20.6868 90.7879 20.6844C90.5866 20.6723 90.4212 20.6623 90.5192 20.3243C90.3106 19.5923 90.3523 18.8503 90.3938 18.1115C90.4076 17.8652 90.4215 17.6192 90.426 17.374C90.4302 17.0798 90.8119 17.0691 91.0798 17.0615L91.1324 17.0599C91.6181 17.048 92.1038 17.0519 92.5909 17.0559C92.8349 17.0579 93.0792 17.0599 93.3241 17.0599C94.6962 17.0584 96.0684 17.0574 97.4405 17.0564C100.185 17.0544 102.929 17.0524 105.673 17.0465C106.022 17.0465 106.361 17.0599 106.678 17.217C106.674 17.2377 106.672 17.2593 106.67 17.2807C106.668 17.2949 106.667 17.309 106.665 17.3225C106.669 17.3046 106.671 17.2855 106.673 17.2666C106.676 17.2448 106.678 17.2231 106.683 17.2035C106.962 17.043 106.997 17.2296 107.027 17.3917C107.033 17.429 107.04 17.465 107.049 17.4952C107.484 18.9669 107.91 20.4387 108.331 21.9105C108.791 23.5099 109.25 25.1094 109.709 26.7087L109.709 26.7097L109.711 26.7148C110.519 29.5327 111.327 32.3499 112.144 35.1652C112.954 37.9696 113.742 40.7785 114.172 43.6772L114.176 43.6908C114.59 43.6973 114.577 43.4052 114.566 43.1632C114.563 43.0984 114.561 43.0371 114.566 42.9862C114.674 42.0878 114.844 41.2006 115.013 40.3158C115.058 40.0826 115.103 39.8495 115.146 39.6164C115.385 38.3225 115.722 37.0544 116.058 35.7861C116.283 34.9388 116.508 34.0911 116.704 33.2358C116.935 32.2311 117.189 31.2308 117.444 30.2307C117.634 29.4844 117.823 28.7382 118.003 27.9904C118.354 26.5316 118.694 25.0696 119.034 23.6072C119.257 22.6498 119.48 21.6917 119.706 20.7348C119.825 20.2328 119.951 19.7316 120.078 19.2305C120.235 18.6079 120.392 17.9844 120.535 17.3606C120.623 16.9784 120.874 16.9808 121.13 16.9833C121.15 16.9834 121.171 16.9836 121.191 16.9836C122.018 16.9807 122.843 16.9817 123.669 16.9826C124.082 16.9831 124.495 16.9836 124.909 16.9836C125.828 16.9836 126.747 16.9834 127.666 16.9831C130.423 16.9822 133.178 16.9814 135.936 16.9881C136.024 16.9881 136.113 16.9853 136.203 16.9825C136.517 16.9725 136.833 16.9625 137.135 17.0758L137.14 17.0689C137.383 17.0402 137.362 17.1898 137.344 17.3173C137.339 17.3491 137.335 17.3795 137.335 17.4054C137.338 17.7483 137.335 18.0918 137.332 18.4355V18.4371C137.327 18.9878 137.322 19.5392 137.344 20.0887C137.362 20.5239 137.154 20.6226 136.823 20.6675C136.482 20.7124 136.14 20.7575 135.798 20.8026L135.797 20.8027C134.772 20.9382 133.746 21.0736 132.72 21.2015C131.923 21.3002 131.901 21.3181 132.014 22.1034C132.379 24.603 132.742 27.1039 133.106 29.6053C133.424 31.7919 133.742 33.9788 134.061 36.1658C134.245 37.4337 134.434 38.701 134.622 39.9684L134.622 39.9704L134.623 39.9753C134.938 42.0963 135.253 44.2177 135.551 46.3425C135.624 46.8651 135.706 47.3865 135.788 47.9079L135.788 47.9093C135.984 49.1513 136.179 50.3932 136.262 51.6507C136.246 51.6816 136.229 51.7104 136.212 51.7372L136.213 51.7376C136.232 51.7094 136.25 51.679 136.266 51.6461C136.956 51.9645 137.693 52.0641 138.43 52.1636C138.607 52.1875 138.784 52.2115 138.961 52.2384C139.094 52.259 139.232 52.2642 139.37 52.2695C139.742 52.2836 140.117 52.2977 140.414 52.6153L140.411 52.62C140.654 52.6347 140.636 52.7951 140.62 52.9369C140.616 52.9741 140.612 53.01 140.613 53.0417C140.619 53.3925 140.618 53.7443 140.617 54.0962C140.616 54.536 140.614 54.9767 140.627 55.4153C140.636 55.8012 140.45 55.9179 140.129 55.9358C140.075 55.9388 140.02 55.9378 139.966 55.9368L139.927 55.9362L139.9 55.9359L139.884 55.9358H124.103C123.999 55.9305 123.894 55.9158 123.789 55.9009C123.719 55.891 123.648 55.8811 123.577 55.8738L123.569 55.882C123.445 55.2239 123.462 54.5618 123.479 53.8997C123.488 53.5687 123.496 53.2376 123.487 52.9071C123.478 52.584 123.7 52.4763 123.954 52.4359L124.4 52.3679C125.229 52.2412 126.059 52.1144 126.893 52.0231C127.567 51.9513 127.631 51.884 127.576 51.193C127.354 48.4693 127.031 45.7574 126.707 43.0459L126.707 43.0442C126.502 41.3297 126.297 39.6149 126.118 37.8978C125.946 36.2469 125.749 34.5989 125.552 32.9513L125.552 32.9498C125.402 31.6961 125.252 30.4427 125.113 29.1885C124.961 27.8359 124.831 26.4808 124.702 25.1269C124.658 24.6663 124.614 24.2058 124.569 23.7456C124.54 23.4467 124.512 23.1483 124.483 22.85C124.423 22.2217 124.362 21.5933 124.298 20.9637L124.298 20.9624C124.28 20.8004 124.262 20.6345 124.08 20.5687C123.935 21.2683 123.795 21.9697 123.656 22.6711C123.339 24.2669 123.023 25.8638 122.636 27.443C121.67 31.3887 120.676 35.3263 119.681 39.264L119.68 39.2689L119.68 39.27C119.183 41.2367 118.687 43.2036 118.194 45.1714L117.935 46.1996C117.287 48.7688 116.639 51.3396 116.016 53.9167C115.911 54.3474 115.739 54.4686 115.323 54.4596C114.27 54.4428 113.217 54.4435 112.163 54.4442C111.531 54.4446 110.898 54.445 110.265 54.4417C110.221 54.4407 110.175 54.4452 110.129 54.4497C109.951 54.467 109.768 54.4847 109.721 54.2038ZM109.721 54.2038C109.845 54.1696 109.928 54.0903 109.999 53.9979L109.998 53.9925C109.929 54.0872 109.847 54.169 109.721 54.2038ZM140.356 52.6945C140.248 52.837 140.128 52.965 140 53.085V53.0799C140.127 52.9611 140.248 52.8348 140.356 52.6945ZM114.139 44.5H114.136C114.161 44.4582 114.182 44.4136 114.198 44.3661C114.183 44.4136 114.163 44.4581 114.139 44.5ZM101.737 53.0439C101.715 53.0659 101.694 53.0889 101.674 53.1135C101.64 53.1566 101.605 53.198 101.57 53.2379C101.604 53.1994 101.637 53.1595 101.67 53.118C101.69 53.0919 101.713 53.0673 101.737 53.0439Z" fill="#9FA09F"/>
</svg>
