<?xml version="1.0" encoding="utf-8"?>
<!-- Generator: Adobe Illustrator 17.0.0, SVG Export Plug-In . SVG Version: 6.00 Build 0)  -->
<!DOCTYPE svg PUBLIC "-//W3C//DTD SVG 1.1//EN" "http://www.w3.org/Graphics/SVG/1.1/DTD/svg11.dtd">
<svg version="1.1" id="Capa_1" xmlns="http://www.w3.org/2000/svg" xmlns:xlink="http://www.w3.org/1999/xlink" x="0px" y="0px"
	 width="1400px" height="980px" viewBox="0 0 1400 980" enable-background="new 0 0 1400 980" xml:space="preserve">
<rect fill="#313D5B" width="1400" height="980"/>
<g>
	<rect x="1104.802" y="670.737" fill="#1B222D" width="143.591" height="177.225"/>
	<rect x="1224.181" y="586.336" fill="#1B222D" width="29.402" height="97.871"/>
	<polygon fill="#1B222D" points="1075.045,730.762 1150.724,569.905 1202.471,569.905 1278.15,730.762 	"/>
	<rect x="1182.054" y="744.451" fill="#FFFFD6" width="47.27" height="47.27"/>
	<rect x="1201.234" y="716.651" fill="#1B222D" width="8.91" height="97.871"/>
	<rect x="1166.52" y="763.631" fill="#1B222D" width="78.338" height="8.91"/>
</g>
<g>
	<rect x="1311.907" y="825.487" fill="#1B222D" width="143.591" height="177.225"/>
	<polygon fill="#1B222D" points="1282.15,885.511 1357.829,724.655 1409.576,724.655 1485.255,885.511 	"/>
	<rect x="1389.159" y="899.201" fill="#FFFFD6" width="47.27" height="47.27"/>
	<rect x="1373.625" y="918.381" fill="#1B222D" width="78.338" height="8.91"/>
</g>
<g>
	<rect x="1119.776" y="934.679" fill="#1B222D" width="143.591" height="177.225"/>
	<rect x="1239.154" y="850.278" fill="#1B222D" width="29.402" height="97.871"/>
	<polygon fill="#1B222D" points="1090.019,994.704 1165.698,833.847 1217.445,833.847 1293.124,994.704 	"/>
</g>
<g>
	<rect x="137.088" y="650.301" fill="#1B222D" width="143.591" height="177.225"/>
	<rect x="256.467" y="565.9" fill="#1B222D" width="29.402" height="97.871"/>
	<polygon fill="#1B222D" points="107.332,710.326 183.011,549.469 234.758,549.469 310.437,710.326 	"/>
	<rect x="214.34" y="724.016" fill="#FFFFD6" width="47.27" height="47.27"/>
	<rect x="233.52" y="696.215" fill="#1B222D" width="8.91" height="97.871"/>
	<rect x="198.806" y="743.195" fill="#1B222D" width="78.338" height="8.91"/>
</g>
<g>
	<rect x="-7.834" y="599.041" fill="#1B222D" width="143.591" height="177.225"/>
	<rect x="-13.023" y="514.639" fill="#1B222D" width="29.402" height="97.871"/>
	<polygon fill="#1B222D" points="165.514,659.065 89.835,498.209 38.088,498.209 -37.591,659.065 	"/>
	<rect x="11.236" y="672.755" fill="#FFFFD6" width="47.27" height="47.27"/>
	<rect x="30.415" y="644.955" fill="#1B222D" width="8.91" height="97.871"/>
	<rect x="-4.298" y="691.935" fill="#1B222D" width="78.338" height="8.91"/>
</g>
<g>
	<rect x="1268.638" y="597.074" fill="#1B222D" width="143.591" height="177.225"/>
	<rect x="1263.449" y="512.673" fill="#1B222D" width="29.402" height="97.871"/>
	<polygon fill="#1B222D" points="1441.986,657.099 1366.307,496.243 1314.56,496.243 1238.881,657.099 	"/>
	<rect x="1287.708" y="670.789" fill="#FFFFD6" width="47.27" height="47.27"/>
	<rect x="1306.888" y="642.988" fill="#1B222D" width="8.91" height="97.871"/>
	<rect x="1272.174" y="689.969" fill="#1B222D" width="78.338" height="8.91"/>
</g>
<g>
	<rect x="-41.381" y="836.579" fill="#1B222D" width="143.591" height="177.225"/>
	<rect x="77.998" y="752.178" fill="#1B222D" width="29.402" height="97.871"/>
	<polygon fill="#1B222D" points="-71.137,896.604 4.542,735.747 56.289,735.747 131.968,896.604 	"/>
	<rect x="35.871" y="910.294" fill="#FFFFD6" width="47.27" height="47.27"/>
	<rect x="55.051" y="882.493" fill="#1B222D" width="8.91" height="97.871"/>
	<rect x="20.337" y="929.473" fill="#1B222D" width="78.338" height="8.91"/>
</g>
<g>
	<rect x="120.204" y="874.09" fill="#1B222D" width="143.591" height="177.225"/>
	<rect x="239.583" y="789.689" fill="#1B222D" width="29.402" height="97.871"/>
	<polygon fill="#1B222D" points="90.448,934.115 166.126,773.258 217.874,773.258 293.552,934.115 	"/>
	<rect x="197.456" y="947.805" fill="#FFFFD6" width="47.27" height="47.27"/>
	<rect x="216.636" y="920.004" fill="#1B222D" width="8.91" height="97.871"/>
	<rect x="181.922" y="966.984" fill="#1B222D" width="78.338" height="8.91"/>
</g>
<g>
	<rect x="380.092" y="806.454" fill="#1B222D" width="143.591" height="177.225"/>
	<rect x="374.903" y="722.053" fill="#1B222D" width="29.402" height="97.871"/>
	<polygon fill="#1B222D" points="553.44,866.479 477.761,705.623 426.014,705.623 350.335,866.479 	"/>
	<rect x="399.162" y="880.169" fill="#FFFFD6" width="47.27" height="47.27"/>
	<rect x="418.341" y="852.368" fill="#1B222D" width="8.91" height="97.871"/>
	<rect x="383.628" y="899.349" fill="#1B222D" width="78.338" height="8.91"/>
</g>
<g>
	<rect x="859.459" y="804.376" fill="#1B222D" width="143.591" height="177.225"/>
	<rect x="978.838" y="719.975" fill="#1B222D" width="29.402" height="97.871"/>
	<polygon fill="#1B222D" points="829.703,864.401 905.381,703.544 957.128,703.544 1032.807,864.401 	"/>
	<rect x="936.711" y="878.091" fill="#FFFFD6" width="47.27" height="47.27"/>
	<rect x="955.891" y="850.29" fill="#1B222D" width="8.91" height="97.871"/>
	<rect x="921.177" y="897.27" fill="#1B222D" width="78.338" height="8.91"/>
</g>
<rect x="645.274" y="774.928" fill="#EDCD88" width="102.963" height="73.644"/>
<g>
	<polygon fill="#EFEEC5" points="699.87,847.573 530.66,837.573 530.66,969 699.87,969 	"/>
	<polygon fill="#EFEEC5" points="867,837.573 697.791,847.573 697.791,969 867,969 	"/>
</g>
<g>
	<polygon fill="#FFFFD6" points="699.965,852.573 515.327,842.573 515.327,974 699.965,974 	"/>
	<polygon fill="#FFFFD6" points="882.333,842.573 697.696,852.573 697.696,974 882.333,974 	"/>
</g>
<circle fill="#FFE39C" cx="696.755" cy="693.567" r="126.433"/>
<circle fill="#FFE39C" cx="564.623" cy="601.21" r="36.027"/>
<circle fill="#EDCD88" cx="564.623" cy="601.21" r="19.507"/>
<circle fill="#FFE39C" cx="823.188" cy="601.21" r="36.027"/>
<circle fill="#EDCD88" cx="823.188" cy="601.21" r="19.507"/>
<polygon fill="#FFE39C" points="696.755,479.182 570.519,479.182 570.519,693.567 696.755,693.567 822.991,693.567 822.991,479.182 
	"/>
<linearGradient id="SVGID_1_" gradientUnits="userSpaceOnUse" x1="696.7549" y1="605" x2="696.755" y2="685.1388">
	<stop  offset="0" style="stop-color:#FFE39C"/>
	<stop  offset="1" style="stop-color:#D6455E"/>
</linearGradient>
<path fill="url(#SVGID_1_)" d="M669.424,603.615v57.552c0,15.094,12.236,27.331,27.331,27.331c15.094,0,27.331-12.236,27.331-27.331
	v-57.552H669.424z"/>
<g>
	<circle fill="#FFFFFF" cx="630.78" cy="601.21" r="49.923"/>
	<circle fill="#4AED70" cx="630.78" cy="618.109" r="30.13"/>
	<circle fill="#1D1D1B" cx="630.78" cy="618.109" r="14.494"/>
	<circle fill="#FFFFFF" cx="613.455" cy="600.784" r="14.494"/>
	<circle fill="#FFFFFF" cx="762.73" cy="601.21" r="49.923"/>
	<circle fill="#4AED70" cx="762.73" cy="618.109" r="30.13"/>
	<circle fill="#1D1D1B" cx="762.73" cy="618.109" r="14.494"/>
	<circle fill="#FFFFFF" cx="747.094" cy="600.784" r="14.494"/>
</g>
<g>
	<path fill="#99602C" d="M594.852,554.256c-2.16,0-4.352-0.5-6.404-1.556c-6.888-3.544-9.6-12-6.057-18.889
		c9.372-18.219,27.913-29.537,48.389-29.537c18.792,0,36.001,9.499,46.033,25.41c4.132,6.552,2.169,15.214-4.383,19.345
		c-6.552,4.132-15.214,2.169-19.346-4.383c-4.864-7.714-13.202-12.319-22.304-12.319c-9.918,0-18.901,5.486-23.444,14.316
		C604.849,551.478,599.939,554.256,594.852,554.256z"/>
</g>
<g>
	<path fill="#99602C" d="M727.677,554.256c-2.16,0-4.351-0.5-6.404-1.556c-6.888-3.544-9.6-12-6.057-18.889
		c9.372-18.219,27.913-29.537,48.389-29.537c18.792,0,36.001,9.499,46.033,25.41c4.132,6.552,2.169,15.214-4.383,19.345
		c-6.552,4.132-15.214,2.169-19.346-4.383c-4.864-7.714-13.202-12.319-22.304-12.319c-9.918,0-18.901,5.486-23.444,14.316
		C737.674,551.478,732.764,554.256,727.677,554.256z"/>
</g>
<path fill="#FFE39C" d="M570.519,479.182l206.705-107.067C777.224,372.116,599.223,310.606,570.519,479.182z"/>
<path fill="#99602C" d="M570.519,479.182c0,0,24.165-45.912,45.767-40.403c0,0,62.895,18.233,80.469,9.117l-4.165-16.831
	c0,0,27.141,1.403,55.647-14.026l-10.064-7.714c0,0,61.302-2.805,74.481-57.505c0,0-49.861,9.117-80.053,0
	c-30.192-9.117-95.192-10.76-119.145,9.347v-24.074c0,0-17.086,18.149-12.806,35.021c0,0-32.186-9.074-50.419,21.782
	c0,0,26.648-14.727,33.661-4.208C583.892,389.69,551.536,418.602,570.519,479.182z"/>
<path fill="#B8455E" d="M684.691,723.138c0,10.629-4.791,20.143-12.327,26.496c-6.024,5.078-13.814,8.145-22.314,8.145
	c-13.172,0-24.638-7.359-30.484-18.191c-2.653-4.892-4.157-10.494-4.157-16.45c0-19.129,15.513-34.641,34.641-34.641
	S684.691,704.01,684.691,723.138z"/>
<path fill="#D6455E" d="M672.364,749.635c-6.024,5.078-13.814,8.145-22.314,8.145c-13.172,0-24.638-7.359-30.484-18.191
	c6.083-4.495,13.612-7.156,21.756-7.156C654.41,732.432,665.901,739.302,672.364,749.635z"/>
<rect x="509.6" y="848.573" fill="#D6455E" width="190.4" height="131.427"/>
<rect x="697.66" y="848.573" fill="#D6455E" width="190.4" height="131.427"/>
<rect x="678.321" y="848.573" fill="#B8455E" width="38.679" height="131.427"/>
<g>
	<path fill="#FFE39C" d="M494.468,890.012h65.878c7.271,0,13.165-5.894,13.165-13.165s-5.894-13.165-13.165-13.165h-65.878V890.012z
		"/>
	<path fill="#FFE39C" d="M509.6,957.667V849.59c0-11.928-9.669-21.597-21.597-21.597c-11.928,0-21.597,9.669-21.597,21.597v108.077
		H509.6z"/>
	<path fill="#FFE39C" d="M494.468,916.341h81.212c7.271,0,13.165-5.894,13.165-13.165s-5.894-13.165-13.165-13.165h-81.212V916.341z
		"/>
	<path fill="#FFE39C" d="M494.468,942.671h73.628c7.271,0,13.165-5.894,13.165-13.165s-5.894-13.165-13.165-13.165h-73.628V942.671z
		"/>
	<path fill="#FFE39C" d="M494.468,969h60.151c7.271,0,13.165-5.894,13.165-13.165c0-7.271-5.894-13.165-13.165-13.165h-60.151V969z"
		/>
	<circle fill="#FFE39C" cx="494.468" cy="916.341" r="52.658"/>
</g>
<g>
	<path fill="#FFE39C" d="M903.192,890.012h-65.878c-7.271,0-13.165-5.894-13.165-13.165s5.894-13.165,13.165-13.165h65.878V890.012z
		"/>
	<path fill="#FFE39C" d="M888.061,957.667V849.59c0-11.928,9.669-21.597,21.597-21.597s21.597,9.669,21.597,21.597v108.077H888.061z
		"/>
	<path fill="#FFE39C" d="M903.192,916.341h-81.212c-7.271,0-13.165-5.894-13.165-13.165s5.894-13.165,13.165-13.165h81.212V916.341z
		"/>
	<path fill="#FFE39C" d="M903.192,942.671h-73.628c-7.271,0-13.165-5.894-13.165-13.165s5.894-13.165,13.165-13.165h73.628V942.671z
		"/>
	<path fill="#FFE39C" d="M903.192,969h-60.151c-7.271,0-13.165-5.894-13.165-13.165c0-7.271,5.894-13.165,13.165-13.165h60.151V969z
		"/>
	<circle fill="#FFE39C" cx="903.192" cy="916.341" r="52.658"/>
</g>
<g>
	<rect x="58.421" y="820.884" fill="#262E3F" width="128.92" height="159.116"/>
	<rect x="165.602" y="745.106" fill="#262E3F" width="26.398" height="87.871"/>
	<polygon fill="#262E3F" points="31.705,874.775 99.651,730.354 146.111,730.354 214.058,874.775 	"/>
	<rect x="127.78" y="887.066" fill="#FFFFD6" width="42.44" height="42.44"/>
	<rect x="145" y="862.106" fill="#262E3F" width="8" height="87.871"/>
	<rect x="113.833" y="904.286" fill="#262E3F" width="70.333" height="8"/>
</g>
<g>
	<rect x="1191.572" y="835.773" fill="#262E3F" width="128.92" height="159.116"/>
	<rect x="1298.753" y="759.996" fill="#262E3F" width="26.398" height="87.871"/>
	<polygon fill="#262E3F" points="1164.855,889.665 1232.802,745.244 1279.261,745.244 1347.208,889.665 	"/>
	<rect x="1260.93" y="901.956" fill="#FFFFD6" width="42.44" height="42.44"/>
	<rect x="1278.15" y="876.996" fill="#262E3F" width="8" height="87.871"/>
	<rect x="1246.984" y="919.176" fill="#262E3F" width="70.333" height="8"/>
</g>
<g>
	<rect x="1003.414" y="821.836" fill="#262E3F" width="161.441" height="186.166"/>
	<rect x="997.581" y="733.177" fill="#262E3F" width="33.057" height="102.809"/>
	<polygon fill="#262E3F" points="1198.311,884.89 1113.225,715.917 1055.045,715.917 969.959,884.89 	"/>
	<rect x="1024.855" y="899.27" fill="#FFFFD6" width="53.146" height="49.655"/>
	<rect x="1046.419" y="870.067" fill="#262E3F" width="10.018" height="102.809"/>
	<rect x="1007.39" y="919.418" fill="#262E3F" width="88.076" height="9.36"/>
</g>
<g>
	<rect x="215.185" y="846.679" fill="#262E3F" width="174.355" height="201.059"/>
	<rect x="208.884" y="750.927" fill="#262E3F" width="35.701" height="111.033"/>
	<polygon fill="#262E3F" points="425.672,914.776 333.779,732.287 270.946,732.287 179.053,914.776 	"/>
	<rect x="238.34" y="930.307" fill="#FFFFD6" width="57.397" height="53.627"/>
	<rect x="261.629" y="898.768" fill="#262E3F" width="10.819" height="111.033"/>
	<rect x="219.478" y="952.066" fill="#262E3F" width="95.121" height="10.109"/>
</g>
<g>
	<path fill="#FFFFFF" d="M793.707,433.755c0,0,84.516-38.029,68.701-107.883c0,0-51.34,10.92-79.262-26.507
		c0,0-91.2,4.55-104.042-59.62c0,0-25.335,64.791-90.766,48.714c0,0-23.48,80.068-124.758,61.984c0,0-4.682,79.741-89.088,59.843
		c-84.407-19.898-112.134-97.315-67.636-149.999c0,0-75.842-49.765-1.549-118.712c0,0,14.638-87.46,116.073-51.435
		c0,0,37.301-50.328,112.765-18.516c0,0,95.051-44.336,173.932,35.945c0,0,54.789-31.417,92.587,7.942
		c0,0,94.145-25.076,145.599,38.497c0,0,91.063,28.295,51.101,110.325c0,0,58.259,46.148,28.769,95.533
		c0,0,26.397,74.584-46.929,71.859c0,0-11.04,62.833-75.987,30.23c0,0-41.931-24.796-16.148-54.199
		C887.068,407.756,862.285,437.594,793.707,433.755z"/>
	<circle fill="#FFFFFF" cx="364.746" cy="343.317" r="100.376"/>
	<circle fill="#FFFFFF" cx="301.919" cy="202.078" r="63.352"/>
	<circle fill="#FFFFFF" cx="369.725" cy="121.733" r="66.7"/>
	<circle fill="#FFFFFF" cx="479.271" cy="93.381" r="55.088"/>
	<circle fill="#FFFFFF" cx="611.972" cy="120.121" r="95.252"/>
	<circle fill="#FFFFFF" cx="747.628" cy="127.715" r="53.711"/>
	<circle fill="#FFFFFF" cx="853.785" cy="140.555" r="67.317"/>
	<circle fill="#FFFFFF" cx="954.946" cy="193.116" r="77.124"/>
	<circle fill="#FFFFFF" cx="1007.822" cy="305.046" r="53.711"/>
	<circle fill="#FFFFFF" cx="1009.209" cy="390.644" r="50.957"/>
	<circle fill="#FFFFFF" cx="935.407" cy="437.549" r="61.225"/>
	<circle fill="#FFFFFF" cx="511.646" cy="297.96" r="78.986"/>
	<circle fill="#FFFFFF" cx="613.066" cy="229.152" r="74.369"/>
	<circle fill="#FFFFFF" cx="739.996" cy="250.051" r="59.146"/>
	<circle fill="#FFFFFF" cx="822.073" cy="276.716" r="66.106"/>
</g>
<circle fill="#EDCD88" cx="977.209" cy="374.667" r="28.667"/>
<circle fill="#FFE39C" cx="972" cy="374.667" r="28.667"/>
<circle fill="#EDCD88" cx="972" cy="374.667" r="22.167"/>
<circle fill="#FFE39C" cx="976.276" cy="374.667" r="22.167"/>
<path fill="#4AED70" d="M917.5,316c0,0-9.5-46-51.5-58c0,0,49.5,1,61,55L917.5,316z"/>
<path fill="#4AED70" d="M866,258c0,0-23-5.5-33,29C833,287,862.368,285.199,866,258z"/>
<path fill="#4AED70" d="M866,258c0,0-2-20.696,15-28.848C881,229.152,887.744,250.189,866,258z"/>
<path fill="#4AED70" d="M875.212,292.561c0,0,16.077-13.184,32.314-3.602C907.527,288.958,893.807,306.273,875.212,292.561z"/>
<path fill="#4AED70" d="M905.986,275.125c0,0-1.137-11.762,8.525-16.395C914.511,258.73,918.343,270.686,905.986,275.125z"/>
<ellipse fill="#4BAAEA" cx="365.272" cy="358.759" rx="40.395" ry="24.241"/>
<polygon fill="#4BAAEA" points="378.039,305.736 378.039,289.5 365.249,289.5 352.459,289.5 352.459,305.736 326.053,353.336 
	365.249,353.336 404.445,353.336 "/>
<path fill="#C7FFD2" d="M394.147,347.65l-20.702-36.713V287.5h-8.191h-8.191v23.437l-20.771,36.836
	c-2.053,2.543-3.206,5.396-3.206,8.412c0,10.668,14.41,19.315,32.186,19.315s32.186-8.648,32.186-19.315
	C397.458,353.12,396.264,350.224,394.147,347.65z"/>
<path fill="#4BAAEA" d="M383.167,289.5c0,2.209-1.791,4-4,4h-27.836c-2.209,0-4-1.791-4-4l0,0c0-2.209,1.791-4,4-4h27.836
	C381.376,285.5,383.167,287.291,383.167,289.5L383.167,289.5z"/>
<g>
	<circle fill="#4BAAEA" cx="379.75" cy="357.5" r="5.5"/>
	<circle fill="#4BAAEA" cx="386.5" cy="346.25" r="3.25"/>
	<circle fill="#4BAAEA" cx="389.75" cy="357.5" r="1.5"/>
	<circle fill="#4BAAEA" cx="355.25" cy="343" r="3.5"/>
	<circle fill="#4BAAEA" cx="366.5" cy="333.5" r="1.75"/>
</g>
<rect x="389.201" y="116.966" fill="#936037" width="9.049" height="84.865"/>
<rect x="352.951" y="127.893" fill="#634E42" width="81.549" height="9.534"/>
<rect x="372.951" y="198.161" fill="#634E42" width="41.549" height="7.339"/>
<rect x="352.951" y="137.427" fill="#634E42" width="3.049" height="20.073"/>
<rect x="341.201" y="130.958" transform="matrix(0.7071 0.7071 -0.7071 0.7071 204.6012 -199.1746)" fill="#634E42" width="3.049" height="32.86"/>
<rect x="364.122" y="130.958" transform="matrix(-0.7071 0.7071 -0.7071 -0.7071 728.4171 -6.9439)" fill="#634E42" width="3.049" height="32.86"/>
<path fill="#936037" d="M354.475,183.25c14.221,0,25.75-11.529,25.75-25.75h-51.5C328.725,171.721,340.254,183.25,354.475,183.25z"
	/>
<rect x="429.576" y="137.427" fill="#634E42" width="3.049" height="20.073"/>
<rect x="417.826" y="130.958" transform="matrix(0.7071 0.7071 -0.7071 0.7071 227.0442 -253.3567)" fill="#634E42" width="3.049" height="32.86"/>
<rect x="440.747" y="130.958" transform="matrix(-0.7071 0.7071 -0.7071 -0.7071 859.2241 -61.1259)" fill="#634E42" width="3.049" height="32.86"/>
<path fill="#936037" d="M431.1,183.25c14.221,0,25.75-11.529,25.75-25.75h-51.5C405.35,171.721,416.879,183.25,431.1,183.25z"/>
<circle fill="#009FE3" cx="958.251" cy="194.89" r="46.419"/>
<rect x="939.293" y="163.233" fill="#FFFFFF" width="37.916" height="59.767"/>
<rect x="939.293" y="223" fill="#EDEDED" width="37.916" height="6.152"/>
<rect x="938.36" y="162.754" fill="#EDEDED" width="37.916" height="6.152"/>
<circle fill="#EDEDED" cx="939.293" cy="223" r="8.75"/>
<circle fill="#EDEDED" cx="976.276" cy="223" r="8.75"/>
<circle fill="#EDEDED" cx="976.276" cy="168.907" r="8.75"/>
<circle fill="#EDEDED" cx="939.293" cy="168.907" r="8.75"/>
<circle fill="#FFFFFF" cx="939.293" cy="168.907" r="5.674"/>
<circle fill="#EDEDED" cx="939.293" cy="168.907" r="3.076"/>
<circle fill="#FFFFFF" cx="976.276" cy="168.907" r="5.674"/>
<circle fill="#EDEDED" cx="976.276" cy="168.907" r="3.076"/>
<circle fill="#FFFFFF" cx="939.293" cy="223" r="5.674"/>
<circle fill="#EDEDED" cx="939.293" cy="223" r="3.076"/>
<circle fill="#FFFFFF" cx="976.276" cy="223" r="5.674"/>
<circle fill="#EDEDED" cx="976.276" cy="223" r="3.076"/>
<ellipse fill="#EDEDED" cx="948.043" cy="195" rx="3.457" ry="16.667"/>
<ellipse fill="#EDEDED" cx="958.251" cy="195" rx="3.457" ry="16.667"/>
<ellipse fill="#EDEDED" cx="968.459" cy="195" rx="3.457" ry="16.667"/>
<g>
	<polyline fill="#EDEDED" points="759.069,153.37 759.069,262.086 766.653,262.086 766.653,150.821 	"/>
	<g>
		<path fill="#BE1622" d="M854.151,142.899v44.199c0,0-34.116-6.599-47.541,3.242c-13.425,9.855-21.531,16.511-47.541,13.979
			v-45.892c0,0,32.225,0,40.075-11.846c0.327-0.483,0.612-0.995,0.853-1.536C805.97,131.664,840.513,130.427,854.151,142.899z"/>
		<path fill="#1D71B8" d="M799.144,146.582v18.487c-7.352,11.306-40.075,11.334-40.075,11.334v-17.976
			C759.069,158.428,791.294,158.428,799.144,146.582z"/>
		<path fill="#FFFFFF" d="M799.144,156.097c0,0,23.901-20.425,60.184,0l0.73,8.973c0,0-29.864-14.772-60.914-0.001"/>
		<path fill="#FFFFFF" d="M799.144,174.148c0,0,23.901-20.425,60.184,0l0.73,8.973c0,0-29.864-14.772-60.914-0.001"/>
		<path fill="#FFFFFF" d="M799.144,183.069c0,0-23.901,23.419-60.184,2.994l-0.73-8.973c0,0,25.835,20.512,60.914-2.993"/>
	</g>
	<circle fill="#EDEDED" cx="762.861" cy="150.821" r="5.276"/>
</g>
<g>
	
		<ellipse transform="matrix(0.7664 -0.6424 0.6424 0.7664 -76.7166 400.5298)" fill="#EDEDED" cx="512.294" cy="305.736" rx="20.667" ry="6.847"/>
	
		<ellipse transform="matrix(0.7664 -0.6424 0.6424 0.7664 -78.7291 404.0095)" fill="#EDEDED" cx="516.071" cy="310.242" rx="20.667" ry="6.847"/>
	
		<ellipse transform="matrix(0.7664 -0.6424 0.6424 0.7664 -82.0821 409.8068)" fill="#DADADA" cx="522.365" cy="317.751" rx="16.333" ry="6.847"/>
	
		<ellipse transform="matrix(0.7664 -0.6424 0.6424 0.7664 -80.7417 407.4892)" fill="#EDEDED" cx="519.849" cy="314.749" rx="20.667" ry="6.847"/>
	
		<ellipse transform="matrix(0.7664 -0.6424 0.6424 0.7664 -73.4271 394.842)" fill="#EDEDED" cx="506.119" cy="298.369" rx="20.667" ry="6.847"/>
	<path fill="#FFE39C" d="M513.995,254.094L513.995,254.094c-1.393-5.171-3.897-10.131-7.564-14.506
		c-13.482-16.084-37.45-18.193-53.533-4.711c-16.084,13.482-18.193,37.45-4.711,53.533c3.667,4.375,8.113,7.707,12.962,9.981
		l-0.001,0l0.029,0.013c0.28,0.131,0.561,0.26,0.844,0.384l28.26,12.856l31.676-26.553l-7.718-30.048
		C514.162,254.727,514.08,254.411,513.995,254.094L513.995,254.094z"/>
	<polyline fill="#EDCD88" points="499.988,303.509 474.909,288.593 499.666,267.84 511.483,293.872 497.807,275.481 482.99,287.901 
			"/>
</g>
<g>
	<path fill="#4AED70" d="M531.53,156.504l2.468-3.309c4.296-5.759,10.338-10.79,20.331-12.68c6.051-1.208,12.806-2.081,15.366-5.512
		c2.468-3.309,1.817-7.037-3.514-11.396c-4.534-3.382-11.328-5.78-16.618-6.103l6.92-20.015c7.158,1.144,17.103,4.176,28.009,12.312
		c16.788,12.524,19.608,27.408,11.198,38.682c-7.77,10.416-19.052,10.964-26.021,11.868c-7.489,1.089-12.678,4.466-16.791,9.98
		l-1.006,1.348L531.53,156.504z M515.024,170.703c5.76-7.72,15.05-9.181,23.015-3.239c7.965,5.942,9.089,15.173,3.452,22.984
		c-5.668,7.597-15.05,9.181-23.138,3.147C510.511,187.745,509.357,178.3,515.024,170.703z"/>
</g>
<path fill="#EDEDED" d="M605.667,230.461l68.205-86.831c0,0-6.462-10.455,0-15.325c6.462-4.87,10.462,5.395,10.462,5.395
	s10-6.67,19.333,4.46c9.333,11.13-13.073,7.12-13.073,7.12l-70.26,90.871c0,0,4.667-0.279,2,9.04c-2.667,9.319-14,4.602-14-1.156
	c0,0-16,0.254-14.667-11.771C595,220.24,605.667,230.461,605.667,230.461z"/>
<path fill="#B8455E" d="M611.972,204.86c-2.996-18.917,12.176-43.55,41.602-54.038c0,0,18.968-2.313,33.864,11.933
	C702.333,177,669,212.619,653.574,223C641.546,231.094,617.495,239.727,611.972,204.86z"/>
<path fill="#99334E" d="M630.667,219.924c0,0,41.844-34.519,44-49.549C674.667,170.375,687,201.181,630.667,219.924z"/>
<circle fill="#FFFFFF" cx="480.632" cy="415" r="11.333"/>
<circle fill="#FFFFFF" cx="425.672" cy="471.337" r="22.329"/>
<circle fill="#FFFFFF" cx="233.52" cy="275.125" r="16.331"/>
<circle fill="#FFFFFF" cx="271.168" cy="111" r="10.733"/>
<circle fill="#FFFFFF" cx="724.086" cy="45" r="20.667"/>
<circle fill="#FFFFFF" cx="787.162" cy="65.667" r="9.172"/>
<circle fill="#FFFFFF" cx="930.543" cy="93.381" r="11.826"/>
<circle fill="#FFFFFF" cx="1051.667" cy="231.75" r="18.301"/>
<circle fill="#FFFFFF" cx="1069.968" cy="267.84" r="8.876"/>
<circle fill="#FFFFFF" cx="1093" cy="352.5" r="15.833"/>
<circle fill="#FFFFFF" cx="1021" cy="462.333" r="9.637"/>
<circle fill="#FFFFFF" cx="944.586" cy="523" r="16"/>
<circle fill="#FFE39C" cx="1238.851" cy="166.106" r="106.379"/>
<g>
	<ellipse fill="#EDCD88" cx="1238.851" cy="235.667" rx="29.787" ry="15.667"/>
	<ellipse fill="#EDCD88" cx="1307.667" cy="168.907" rx="5.333" ry="24.21"/>
	<ellipse fill="#EDCD88" cx="1259" cy="197.287" rx="9.638" ry="10.587"/>
	<ellipse fill="#EDCD88" cx="1161" cy="144.697" rx="8" ry="11.401"/>
	<ellipse fill="#EDCD88" cx="1220.333" cy="110.333" rx="24" ry="17.382"/>
</g>
<g>
	<path fill="#FFFFFF" d="M62.05,124.736l-6.147-3.362l-3.362-6.147l-3.362,6.147l-6.147,3.362l6.147,3.362l3.362,6.147l3.362-6.147
		L62.05,124.736z M52.54,130.749l-2.126-3.887l-3.887-2.126l3.887-2.126l2.126-3.887l2.126,3.887l3.887,2.126l-3.887,2.126
		L52.54,130.749z"/>
	<path fill="#FFFFFF" d="M161.894,234.09l-3.014-10.29l3.014-10.29l-10.29,3.014l-10.29-3.014l3.014,10.29l-3.014,10.29l10.29-3.014
		L161.894,234.09z M145.098,230.306l1.906-6.506l-1.906-6.506l6.506,1.906l6.506-1.906l-1.906,6.506l1.906,6.506l-6.506-1.906
		L145.098,230.306z"/>
	<polygon fill="#FFFFFF" points="90.188,55.151 101.585,48.792 95.225,60.188 101.585,71.584 90.188,65.224 78.792,71.584 
		85.152,60.188 78.792,48.792 	"/>
	<polygon fill="#FFFFFF" points="145,298.472 156.396,292.112 150.036,303.509 156.396,314.905 145,308.545 133.604,314.905 
		139.964,303.509 133.604,292.112 	"/>
	<polygon fill="#FFFFFF" points="79.049,288.197 91.604,291.758 79.049,295.32 75.487,307.875 71.926,295.32 59.371,291.758 
		71.926,288.197 75.487,275.642 	"/>
	<path fill="#FFFFFF" d="M243.262,435.731l-3.014-10.29l3.014-10.29l-10.29,3.014l-10.29-3.014l3.014,10.29l-3.014,10.29
		l10.29-3.014L243.262,435.731z M226.466,431.947l1.906-6.506l-1.906-6.506l6.506,1.906l6.506-1.906l-1.906,6.506l1.906,6.506
		l-6.506-1.906L226.466,431.947z"/>
	<path fill="#FFFFFF" d="M111.874,430.465l-3.014-10.29l3.014-10.29l-10.29,3.014l-10.29-3.014l3.014,10.29l-3.014,10.29
		l10.29-3.014L111.874,430.465z M95.078,426.681l1.906-6.506l-1.906-6.506l6.506,1.906l6.506-1.906l-1.906,6.506l1.906,6.506
		l-6.506-1.906L95.078,426.681z"/>
	<path fill="#FFFFFF" d="M366.29,642.892l-3.014-10.29l3.014-10.29L356,625.326l-10.29-3.014l3.014,10.29l-3.014,10.29l10.29-3.014
		L366.29,642.892z M349.494,639.109l1.906-6.506l-1.906-6.506l6.506,1.906l6.506-1.906l-1.906,6.506l1.906,6.506L356,637.203
		L349.494,639.109z"/>
	<path fill="#FFFFFF" d="M555.406,773.921l-3.014-10.29l3.014-10.29l-10.29,3.014l-10.29-3.014l3.014,10.29l-3.014,10.29
		l10.29-3.014L555.406,773.921z M538.61,770.137l1.906-6.506l-1.906-6.506l6.506,1.906l6.506-1.906l-1.906,6.506l1.906,6.506
		l-6.506-1.906L538.61,770.137z"/>
	<polygon fill="#FFFFFF" points="169.164,458.772 181.719,462.333 169.164,465.895 165.602,478.45 162.041,465.895 149.486,462.333 
		162.041,458.772 165.602,446.217 	"/>
	<polygon fill="#FFFFFF" points="515.855,467.776 528.41,471.337 515.855,474.899 512.294,487.454 508.732,474.899 496.177,471.337 
		508.732,467.776 512.294,455.221 	"/>
	<polygon fill="#FFFFFF" points="438.061,633.676 450.617,637.237 438.061,640.798 434.5,653.354 430.939,640.798 418.383,637.237 
		430.939,633.676 434.5,621.12 	"/>
	<polygon fill="#FFFFFF" points="531.972,680.645 544.527,684.206 531.972,687.768 528.41,700.323 524.849,687.768 512.294,684.206 
		524.849,680.645 528.41,668.089 	"/>
	<path fill="#FFFFFF" d="M69.109,182.573l3.014,10.29l-3.014,10.29l10.29-3.014l10.29,3.014l-3.014-10.29l3.014-10.29l-10.29,3.014
		L69.109,182.573z M85.905,186.356L84,192.862l1.906,6.506l-6.506-1.906l-6.506,1.906l1.906-6.506l-1.906-6.506l6.506,1.906
		L85.905,186.356z"/>
	<path fill="#FFFFFF" d="M234.436,493.984l3.014,10.29l-3.014,10.29l10.29-3.014l10.29,3.014l-3.014-10.29l3.014-10.29l-10.29,3.014
		L234.436,493.984z M251.232,497.768l-1.906,6.506l1.906,6.506l-6.506-1.906l-6.506,1.906l1.906-6.506l-1.906-6.506l6.506,1.906
		L251.232,497.768z"/>
	<path fill="#FFFFFF" d="M404.21,551.319l3.014,10.29l-3.014,10.29l10.29-3.014l10.29,3.014l-3.014-10.29l3.014-10.29l-10.29,3.014
		L404.21,551.319z M421.006,555.102l-1.906,6.506l1.906,6.506l-6.506-1.906l-6.506,1.906l1.906-6.506l-1.906-6.506l6.506,1.906
		L421.006,555.102z"/>
	<polygon fill="#FFFFFF" points="151.954,128.466 139.399,124.904 151.954,121.343 155.516,108.788 159.077,121.343 
		171.632,124.904 159.077,128.466 155.516,141.021 	"/>
	<path fill="#FFFFFF" d="M96.033,362.832l-6.147-3.362l-3.362-6.147l-3.362,6.147l-6.147,3.362l6.147,3.362l3.362,6.147l3.362-6.147
		L96.033,362.832z M86.523,368.845l-2.126-3.887l-3.887-2.126l3.887-2.126l2.126-3.887l2.126,3.887l3.887,2.126l-3.887,2.126
		L86.523,368.845z"/>
	<polygon fill="#FFFFFF" points="185.937,366.561 173.382,363 185.937,359.439 189.498,346.883 193.06,359.439 205.615,363 
		193.06,366.561 189.498,379.117 	"/>
	<polygon fill="#FFFFFF" points="311.038,510.561 298.483,507 311.038,503.439 314.599,490.883 318.161,503.439 330.716,507 
		318.161,510.561 314.599,523.117 	"/>
	<polygon fill="#FFFFFF" points="477.071,542.561 464.516,539 477.071,535.439 480.632,522.883 484.194,535.439 496.749,539 
		484.194,542.561 480.632,555.117 	"/>
</g>
<g>
	<path fill="#FFFFFF" d="M1348.169,43.486l6.147-3.362l3.362-6.147l3.362,6.147l6.147,3.362l-6.147,3.362l-3.362,6.147l-3.362-6.147
		L1348.169,43.486z M1357.678,49.499l2.126-3.887l3.887-2.126l-3.887-2.126l-2.126-3.887l-2.126,3.887l-3.887,2.126l3.887,2.126
		L1357.678,49.499z"/>
	<path fill="#FFFFFF" d="M1158.658,304.257l3.014-10.29l-3.014-10.29l10.29,3.014l10.29-3.014l-3.014,10.29l3.014,10.29
		l-10.29-3.014L1158.658,304.257z M1175.454,300.473l-1.906-6.506l1.906-6.506l-6.506,1.906l-6.506-1.906l1.906,6.506l-1.906,6.506
		l6.506-1.906L1175.454,300.473z"/>
	<polygon fill="#FFFFFF" points="1079.874,115.818 1068.478,109.458 1074.837,120.855 1068.478,132.251 1079.874,125.891 
		1091.27,132.251 1084.91,120.855 1091.27,109.458 	"/>
	<polygon fill="#FFFFFF" points="1247.218,298.472 1235.822,292.112 1242.182,303.509 1235.822,314.905 1247.218,308.545 
		1258.615,314.905 1252.255,303.509 1258.615,292.112 	"/>
	<polygon fill="#FFFFFF" points="1346.682,328.226 1334.126,331.787 1346.682,335.348 1350.243,347.904 1353.804,335.348 
		1366.359,331.787 1353.804,328.226 1350.243,315.67 	"/>
	<path fill="#FFFFFF" d="M1148.957,435.731l3.014-10.29l-3.014-10.29l10.29,3.014l10.29-3.014l-3.014,10.29l3.014,10.29
		l-10.29-3.014L1148.957,435.731z M1165.753,431.947l-1.906-6.506l1.906-6.506l-6.506,1.906l-6.506-1.906l1.906,6.506l-1.906,6.506
		l6.506-1.906L1165.753,431.947z"/>
	<path fill="#FFFFFF" d="M1280.344,430.465l3.014-10.29l-3.014-10.29l10.29,3.014l10.29-3.014l-3.014,10.29l3.014,10.29
		l-10.29-3.014L1280.344,430.465z M1297.14,426.681l-1.906-6.506l1.906-6.506l-6.506,1.906l-6.506-1.906l1.906,6.506l-1.906,6.506
		l6.506-1.906L1297.14,426.681z"/>
	<path fill="#FFFFFF" d="M1025.929,642.892l3.014-10.29l-3.014-10.29l10.29,3.014l10.29-3.014l-3.014,10.29l3.014,10.29
		l-10.29-3.014L1025.929,642.892z M1042.725,639.109l-1.906-6.506l1.906-6.506l-6.506,1.906l-6.506-1.906l1.906,6.506l-1.906,6.506
		l6.506-1.906L1042.725,639.109z"/>
	<path fill="#FFFFFF" d="M836.813,773.921l3.014-10.29l-3.014-10.29l10.29,3.014l10.29-3.014l-3.014,10.29l3.014,10.29l-10.29-3.014
		L836.813,773.921z M853.609,770.137l-1.906-6.506l1.906-6.506l-6.506,1.906l-6.506-1.906l1.906,6.506l-1.906,6.506l6.506-1.906
		L853.609,770.137z"/>
	<polygon fill="#FFFFFF" points="1229.722,487.105 1217.166,490.667 1229.722,494.228 1233.283,506.783 1236.844,494.228 
		1249.4,490.667 1236.844,487.105 1233.283,474.55 	"/>
	<polygon fill="#FFFFFF" points="923.157,633.676 910.602,637.237 923.157,640.798 926.718,653.354 930.28,640.798 942.835,637.237 
		930.28,633.676 926.718,621.12 	"/>
	<polygon fill="#FFFFFF" points="860.247,680.645 847.691,684.206 860.247,687.768 863.808,700.323 867.369,687.768 
		879.925,684.206 867.369,680.645 863.808,668.089 	"/>
	<path fill="#FFFFFF" d="M1370.109,232.239l-3.014,10.29l3.014,10.29l-10.29-3.014l-10.29,3.014l3.014-10.29l-3.014-10.29
		l10.29,3.014L1370.109,232.239z M1353.313,236.023l1.906,6.506l-1.906,6.506l6.506-1.906l6.506,1.906l-1.906-6.506l1.906-6.506
		l-6.506,1.906L1353.313,236.023z"/>
	<path fill="#FFFFFF" d="M1157.782,493.984l-3.014,10.29l3.014,10.29l-10.29-3.014l-10.29,3.014l3.014-10.29l-3.014-10.29
		l10.29,3.014L1157.782,493.984z M1140.986,497.768l1.906,6.506l-1.906,6.506l6.506-1.906l6.506,1.906l-1.906-6.506l1.906-6.506
		l-6.506,1.906L1140.986,497.768z"/>
	<path fill="#FFFFFF" d="M992.508,588.652l-3.014,10.29l3.014,10.29l-10.29-3.014l-10.29,3.014l3.014-10.29l-3.014-10.29
		l10.29,3.014L992.508,588.652z M975.712,592.436l1.906,6.506l-1.906,6.506l6.506-1.906l6.506,1.906l-1.906-6.506l1.906-6.506
		l-6.506,1.906L975.712,592.436z"/>
	<polygon fill="#FFFFFF" points="1029.597,68.466 1042.153,64.904 1029.597,61.343 1026.036,48.788 1022.475,61.343 
		1009.919,64.904 1022.475,68.466 1026.036,81.021 	"/>
	<path fill="#FFFFFF" d="M1296.186,362.832l6.147-3.362l3.362-6.147l3.362,6.147l6.147,3.362l-6.147,3.362l-3.362,6.147
		l-3.362-6.147L1296.186,362.832z M1305.695,368.845l2.126-3.887l3.887-2.126l-3.887-2.126l-2.126-3.887l-2.126,3.887l-3.887,2.126
		l3.887,2.126L1305.695,368.845z"/>
	<polygon fill="#FFFFFF" points="1206.281,366.561 1218.837,363 1206.281,359.439 1202.72,346.883 1199.159,359.439 1186.603,363 
		1199.159,366.561 1202.72,379.117 	"/>
	<polygon fill="#FFFFFF" points="1078.559,565.837 1091.115,562.275 1078.559,558.714 1074.998,546.159 1071.437,558.714 
		1058.881,562.275 1071.437,565.837 1074.998,578.392 	"/>
	<polygon fill="#FFFFFF" points="883.572,542.561 896.128,539 883.572,535.439 880.011,522.883 876.449,535.439 863.894,539 
		876.449,542.561 880.011,555.117 	"/>
</g>
</svg>
